<?xml version="1.0" encoding="utf-8"?>
<!-- Generator: Adobe Illustrator 19.0.0, SVG Export Plug-In . SVG Version: 6.00 Build 0)  -->
<svg version="1.1" id="Layer_1" xmlns="http://www.w3.org/2000/svg" xmlns:xlink="http://www.w3.org/1999/xlink" x="0px" y="0px"
	 width="131px" height="131px" viewBox="-114 115 131 131" style="enable-background:new -114 115 131 131;" xml:space="preserve">
<style type="text/css">
	.st0{display:none;}
	.st1{display:inline;}
	.st2{fill:#FFFFFF;}
	.st3{filter:url(#Adobe_OpacityMaskFilter);}
	.st4{opacity:0.35;mask:url(#XMLID_221_);}
	.st5{fill:#5C5121;}
	.st6{filter:url(#Adobe_OpacityMaskFilter_1_);}
	.st7{opacity:0.35;mask:url(#XMLID_237_);}
	.st8{display:inline;fill:#C7CE2D;}
	.st9{display:inline;fill:#FFFFFF;}
	.st10{filter:url(#Adobe_OpacityMaskFilter_2_);}
	.st11{opacity:0.35;mask:url(#XMLID_238_);}
	.st12{filter:url(#Adobe_OpacityMaskFilter_3_);}
	.st13{opacity:0.35;mask:url(#XMLID_239_);}
	.st14{filter:url(#Adobe_OpacityMaskFilter_4_);}
	.st15{opacity:0.35;mask:url(#XMLID_241_);}
	.st16{fill:#4B63AE;}
	.st17{filter:url(#Adobe_OpacityMaskFilter_5_);}
	.st18{opacity:0.35;mask:url(#XMLID_242_);}
	.st19{fill:#4C64AE;stroke:#4B63AE;stroke-width:2.1572;stroke-miterlimit:10;}
	.st20{fill:none;stroke:#4B63AE;stroke-width:2.1572;stroke-miterlimit:10;}
	.st21{filter:url(#Adobe_OpacityMaskFilter_6_);}
	.st22{opacity:0.35;mask:url(#XMLID_245_);}
	.st23{filter:url(#Adobe_OpacityMaskFilter_7_);}
	.st24{opacity:0.35;mask:url(#XMLID_256_);}
	.st25{stroke:#000000;stroke-width:2.1572;stroke-miterlimit:10;}
	.st26{fill:none;stroke:#000000;stroke-width:2.1572;stroke-miterlimit:10;}
	.st27{filter:url(#Adobe_OpacityMaskFilter_8_);}
	.st28{opacity:0.35;mask:url(#XMLID_257_);}
	.st29{filter:url(#Adobe_OpacityMaskFilter_9_);}
	.st30{opacity:0.35;mask:url(#XMLID_258_);}
	.st31{display:inline;fill:none;stroke:#000000;stroke-width:3.1045;stroke-miterlimit:10;}
	.st32{filter:url(#Adobe_OpacityMaskFilter_10_);}
	.st33{opacity:0.35;mask:url(#XMLID_259_);}
	.st34{fill:#B75238;}
	.st35{filter:url(#Adobe_OpacityMaskFilter_11_);}
	.st36{opacity:0.35;mask:url(#XMLID_261_);}
	.st37{fill:#B65239;}
	.st38{fill:none;stroke:#B75238;stroke-width:3.1045;stroke-miterlimit:10;}
	.st39{filter:url(#Adobe_OpacityMaskFilter_12_);}
	.st40{opacity:0.35;mask:url(#XMLID_264_);}
	.st41{filter:url(#Adobe_OpacityMaskFilter_13_);}
	.st42{opacity:0.35;mask:url(#XMLID_265_);}
	.st43{filter:url(#Adobe_OpacityMaskFilter_14_);}
	.st44{opacity:0.35;mask:url(#XMLID_266_);}
	.st45{fill:#0F6B38;}
	.st46{filter:url(#Adobe_OpacityMaskFilter_15_);}
	.st47{opacity:0.35;mask:url(#XMLID_267_);}
	.st48{fill:#596561;}
	.st49{filter:url(#Adobe_OpacityMaskFilter_16_);}
	.st50{opacity:0.35;mask:url(#SVGID_1_);}
	.st51{fill:#C6CE2D;}
</style>
<g id="Layer_1_1_" class="st0">
	<g id="XMLID_534_" class="st1">
		<g id="XMLID_22_">
			<circle id="XMLID_24_" class="st2" cx="-48.5" cy="180.5" r="58.5"/>
		</g>
		<defs>
			<filter id="Adobe_OpacityMaskFilter" filterUnits="userSpaceOnUse" x="-107" y="122" width="117" height="117">
				<feColorMatrix  type="matrix" values="1 0 0 0 0  0 1 0 0 0  0 0 1 0 0  0 0 0 1 0"/>
			</filter>
		</defs>
		<mask maskUnits="userSpaceOnUse" x="-107" y="122" width="117" height="117" id="XMLID_221_">
			<g id="XMLID_17_" class="st3">
				
					<image style="overflow:visible;enable-background:new    ;" width="508" height="513" id="XMLID_18_" xlink:href="DE4FA74A833F6BB.jpeg"  transform="matrix(0.2386 0 0 0.2363 -109 120)">
				</image>
			</g>
		</mask>
		<g id="XMLID_19_" class="st4">
			<circle id="XMLID_21_" cx="-48.5" cy="180.5" r="58.5"/>
		</g>
	</g>
	<g id="XMLID_490_" class="st1">
		<g id="XMLID_829_">
			<path id="XMLID_898_" class="st5" d="M-48.5,122c32.3,0,58.5,26.2,58.5,58.5S-16.2,239-48.5,239s-58.5-26.2-58.5-58.5
				S-80.8,122-48.5,122 M-48.5,115c-36.1,0-65.5,29.4-65.5,65.5S-84.6,246-48.5,246S17,216.6,17,180.5S-12.4,115-48.5,115L-48.5,115
				z"/>
		</g>
		<defs>
			<filter id="Adobe_OpacityMaskFilter_1_" filterUnits="userSpaceOnUse" x="-114" y="115" width="131" height="131">
				<feColorMatrix  type="matrix" values="1 0 0 0 0  0 1 0 0 0  0 0 1 0 0  0 0 0 1 0"/>
			</filter>
		</defs>
		<mask maskUnits="userSpaceOnUse" x="-114" y="115" width="131" height="131" id="XMLID_237_">
			<g id="XMLID_41_" class="st6">
				
					<image style="overflow:visible;enable-background:new    ;" width="567" height="571" id="XMLID_42_" xlink:href="DE4FA74A833F6B9.jpeg"  transform="matrix(0.2383 0 0 0.2366 -116 113)">
				</image>
			</g>
		</mask>
		<g id="XMLID_824_" class="st7">
			<path id="XMLID_826_" d="M-48.5,122c32.3,0,58.5,26.2,58.5,58.5S-16.2,239-48.5,239s-58.5-26.2-58.5-58.5S-80.8,122-48.5,122
				 M-48.5,115c-36.1,0-65.5,29.4-65.5,65.5S-84.6,246-48.5,246S17,216.6,17,180.5S-12.4,115-48.5,115L-48.5,115z"/>
		</g>
	</g>
	<path id="XMLID_896_" class="st8" d="M-44,228.5"/>
	<g id="XMLID_105_" class="st1">
		
			<image style="overflow:visible;opacity:0.39;enable-background:new    ;" width="196" height="475" id="XMLID_87_" xlink:href="DE4FA74A833F6BF.png"  transform="matrix(0.2314 0 0 0.2385 -70.1 123.1597)">
		</image>
		<g id="XMLID_50_">
			<g id="XMLID_75_">
				<path id="XMLID_80_" class="st5" d="M-42,132.4v2.6c0,0.3-0.3,0.5-0.6,0.5H-44c-0.3,0-0.6-0.2-0.6-0.5c0,0.3-0.3,0.5-0.6,0.5
					h-1.3c-0.3,0-0.6-0.2-0.6-0.5c0,0.3-0.3,0.5-0.6,0.5H-49c-0.3,0-0.6-0.2-0.6-0.5c0,0.3-0.3,0.5-0.6,0.5h-1.3
					c-0.3,0-0.6-0.2-0.6-0.5c0,0.3-0.3,0.5-0.6,0.5H-54c-0.3,0-0.6-0.2-0.6-0.5v-2.6c0-0.7,0.6-1.2,1.3-1.2H-43
					C-42.6,131.2-42,131.7-42,132.4z"/>
				<path id="XMLID_76_" class="st5" d="M-35.9,175.2c0,0-4-9-4.8-11.4c-0.7-2.4-2-23.3-2-23.3c-0.1-1.2,0.3-1,0.3-1s0.9,0,0.9-1.6
					c0-1.6-1.3-1.8-1.3-1.8h-11.4c0,0-1.3,0.2-1.3,1.8c0,1.6,0.9,1.6,0.9,1.6s0.4-0.1,0.3,1c0,0-1.3,20.9-2,23.3
					c-0.7,2.5-4.8,11.4-4.8,11.4s-1,1.8-1,16.1c0,14.2,0,30.7,0,30.7c0,0.1,0.1,4.4,13.6,4.4s13.6-4.3,13.6-4.4c0,0,0-16.4,0-30.7
					S-35.9,175.2-35.9,175.2z M-36,209.5c0,1.1-5.6,1.9-12.5,1.9h-0.2c-7,0-12.7-0.9-12.7-1.9v-24c0-0.7,0.7-1.1,1.4-0.9
					c2.1,0.6,6.4,1,11.2,1h0.2c4.8,0,8.9-0.4,11-1c0.7-0.2,1.4,0.3,1.4,0.9v24H-36z"/>
			</g>
		</g>
	</g>
	<path id="XMLID_71_" class="st9" d="M-41.2,185.9L-41.2,185.9z"/>
</g>
<g id="Layer_2" class="st0">
	<g id="XMLID_618_" class="st1">
		<g id="XMLID_29_">
			<circle id="XMLID_32_" class="st2" cx="-48.7" cy="180.5" r="58.5"/>
		</g>
		<defs>
			<filter id="Adobe_OpacityMaskFilter_2_" filterUnits="userSpaceOnUse" x="-107.2" y="122" width="117" height="117">
				<feColorMatrix  type="matrix" values="1 0 0 0 0  0 1 0 0 0  0 0 1 0 0  0 0 0 1 0"/>
			</filter>
		</defs>
		<mask maskUnits="userSpaceOnUse" x="-107.2" y="122" width="117" height="117" id="XMLID_238_">
			<g id="XMLID_23_" class="st10">
				
					<image style="overflow:visible;enable-background:new    ;" width="513" height="508" id="XMLID_25_" xlink:href="DE4FA74A833F6B9.jpeg"  transform="matrix(0.2363 0 0 0.2386 -109.1967 120)">
				</image>
			</g>
		</mask>
		<g id="XMLID_26_" class="st11">
			<circle id="XMLID_28_" cx="-48.7" cy="180.5" r="58.5"/>
		</g>
	</g>
	<g id="XMLID_604_" class="st1">
		<g id="XMLID_52_">
			<g id="XMLID_53_">
				<path id="XMLID_54_" d="M-48.7,122c32.3,0,58.5,26.2,58.5,58.5S-16.4,239-48.7,239s-58.5-26.2-58.5-58.5S-81,122-48.7,122
					 M-48.7,115c-36.1,0-65.5,29.4-65.5,65.5S-84.8,246-48.7,246s65.5-29.4,65.5-65.5S-12.6,115-48.7,115L-48.7,115z"/>
			</g>
		</g>
		<defs>
			<filter id="Adobe_OpacityMaskFilter_3_" filterUnits="userSpaceOnUse" x="-114.2" y="115" width="131" height="131">
				<feColorMatrix  type="matrix" values="1 0 0 0 0  0 1 0 0 0  0 0 1 0 0  0 0 0 1 0"/>
			</filter>
		</defs>
		<mask maskUnits="userSpaceOnUse" x="-114.2" y="115" width="131" height="131" id="XMLID_239_">
			<g id="XMLID_40_" class="st12">
				
					<image style="overflow:visible;enable-background:new    ;" width="567" height="567" id="XMLID_43_" xlink:href="DE4FA74A833F6BB.jpeg"  transform="matrix(0.2383 0 0 0.2383 -116.1967 113)">
				</image>
			</g>
		</mask>
		<g id="XMLID_44_" class="st13">
			<g id="XMLID_45_">
				<path id="XMLID_46_" d="M-48.7,122c32.3,0,58.5,26.2,58.5,58.5S-16.4,239-48.7,239s-58.5-26.2-58.5-58.5S-81,122-48.7,122
					 M-48.7,115c-36.1,0-65.5,29.4-65.5,65.5S-84.8,246-48.7,246s65.5-29.4,65.5-65.5S-12.6,115-48.7,115L-48.7,115z"/>
			</g>
		</g>
	</g>
	<g id="XMLID_559_" class="st1">
		
			<image style="overflow:visible;opacity:0.39;enable-background:new    ;" width="196" height="475" id="XMLID_103_" xlink:href="DE4FA74A833F6B9.png"  transform="matrix(0.2314 0 0 0.2385 -70.2966 123.1598)">
		</image>
		<g id="XMLID_59_">
			<g id="XMLID_91_">
				<path id="XMLID_96_" d="M-42.2,132.4v2.6c0,0.3-0.3,0.5-0.6,0.5h-1.3c-0.3,0-0.6-0.2-0.6-0.5c0,0.3-0.3,0.5-0.6,0.5h-1.3
					c-0.3,0-0.6-0.2-0.6-0.5c0,0.3-0.3,0.5-0.6,0.5h-1.3c-0.3,0-0.6-0.2-0.6-0.5c0,0.3-0.3,0.5-0.6,0.5H-52c-0.3,0-0.6-0.2-0.6-0.5
					c0,0.3-0.3,0.5-0.6,0.5h-1.3c-0.3,0-0.6-0.2-0.6-0.5v-2.6c0-0.7,0.6-1.2,1.3-1.2h10.3C-42.8,131.2-42.2,131.7-42.2,132.4z"/>
				<path id="XMLID_92_" d="M-36.1,175.2c0,0-4-9-4.8-11.4c-0.7-2.4-2-23.3-2-23.3c-0.1-1.2,0.3-1,0.3-1s0.9,0,0.9-1.6
					c0-1.6-1.3-1.9-1.3-1.9h-11.4c0,0-1.3,0.2-1.3,1.8c0,1.6,0.9,1.6,0.9,1.6s0.4-0.1,0.3,1c0,0-1.3,20.9-2,23.3
					c-0.7,2.5-4.8,11.4-4.8,11.4s-1,1.8-1,16.1c0,14.2,0,30.7,0,30.7c0,0.1,0.1,4.4,13.6,4.4s13.6-4.3,13.6-4.4c0,0,0-16.4,0-30.7
					S-36.1,175.2-36.1,175.2z M-36.2,209.5c0,1.1-5.6,1.9-12.5,1.9h-0.2c-7,0-12.7-0.9-12.7-1.9v-24c0-0.7,0.7-1.1,1.4-0.9
					c2.1,0.6,6.4,1,11.2,1h0.2c4.8,0,8.9-0.4,11-1c0.7-0.2,1.4,0.3,1.4,0.9v24H-36.2z"/>
			</g>
		</g>
	</g>
	<path id="XMLID_558_" class="st9" d="M-41.4,185.9L-41.4,185.9z"/>
</g>
<g id="Layer_3" class="st0">
	<g id="XMLID_386_" class="st1">
		<g id="XMLID_62_">
			<circle id="XMLID_63_" class="st2" cx="-48.5" cy="180.5" r="59.4"/>
		</g>
		<defs>
			<filter id="Adobe_OpacityMaskFilter_4_" filterUnits="userSpaceOnUse" x="-107.9" y="121.1" width="118.8" height="118.8">
				<feColorMatrix  type="matrix" values="1 0 0 0 0  0 1 0 0 0  0 0 1 0 0  0 0 0 1 0"/>
			</filter>
		</defs>
		<mask maskUnits="userSpaceOnUse" x="-107.9" y="121.1" width="118.8" height="118.8" id="XMLID_241_">
			<g id="XMLID_12_" class="st14">
				
					<image style="overflow:visible;enable-background:new    ;" width="508" height="508" id="XMLID_31_" xlink:href="DE4FA74A833F6C7.jpeg"  transform="matrix(0.2423 0 0 0.2423 -109.9488 119.062)">
				</image>
			</g>
		</mask>
		<g id="XMLID_58_" class="st15">
			<circle id="XMLID_60_" cx="-48.5" cy="180.5" r="59.4"/>
		</g>
	</g>
	<g id="XMLID_1_" class="st1">
		<g id="XMLID_20_">
			<path id="XMLID_33_" class="st16" d="M-48.5,121.1c32.8,0,59.4,26.6,59.4,59.4s-26.6,59.4-59.4,59.4s-59.4-26.6-59.4-59.4
				S-81.3,121.1-48.5,121.1 M-48.5,115c-36.1,0-65.5,29.4-65.5,65.5S-84.6,246-48.5,246S17,216.6,17,180.5S-12.4,115-48.5,115
				L-48.5,115z"/>
		</g>
		<defs>
			<filter id="Adobe_OpacityMaskFilter_5_" filterUnits="userSpaceOnUse" x="-114" y="115" width="131" height="131">
				<feColorMatrix  type="matrix" values="1 0 0 0 0  0 1 0 0 0  0 0 1 0 0  0 0 0 1 0"/>
			</filter>
		</defs>
		<mask maskUnits="userSpaceOnUse" x="-114" y="115" width="131" height="131" id="XMLID_242_">
			<g id="XMLID_4_" class="st17">
				
					<image style="overflow:visible;enable-background:new    ;" width="561" height="561" id="XMLID_8_" xlink:href="DE4FA74A833F6C9.jpeg"  transform="matrix(0.2411 0 0 0.2411 -116.0418 112.969)">
				</image>
			</g>
		</mask>
		<g id="XMLID_9_" class="st18">
			<path id="XMLID_14_" d="M-48.5,121.1c32.8,0,59.4,26.6,59.4,59.4s-26.6,59.4-59.4,59.4s-59.4-26.6-59.4-59.4
				S-81.3,121.1-48.5,121.1 M-48.5,115c-36.1,0-65.5,29.4-65.5,65.5S-84.6,246-48.5,246S17,216.6,17,180.5S-12.4,115-48.5,115
				L-48.5,115z"/>
		</g>
	</g>
	<g id="XMLID_27_" class="st1">
		
			<image style="overflow:visible;opacity:0.39;enable-background:new    ;" width="266" height="455" id="XMLID_7_" xlink:href="DE4FA74A833F6CB.png"  transform="matrix(0.24 0 0 0.2421 -79.3311 122.4692)">
		</image>
		<g id="XMLID_3_">
			<path id="XMLID_6_" class="st19" d="M-27.2,213c0,0,0.2,8.2-21.3,8.2s-21.3-8.2-21.3-8.2c-0.6-0.6-0.1-39.3-0.1-39.3s0-1,0.2-2.4
				c0.5-3.3,2.4-8.7,8.7-8.7c6.8,0,8-2.7,8.2-4c0.1-0.3-0.2-0.7-0.5-0.8c-1.1-0.3-1.1-1.4-1.1-1.4c0-2.4,1.8-2.3,1.8-2.3
				c0-0.2-0.1-0.5-0.1-0.8c-0.1-0.3-0.2-0.5-0.4-0.7c-2.4-2.5,1.7-2.4,1.7-2.4l-1-2.5c-0.1-0.4,0.2-0.8,0.6-0.8h2.4v-2.2
				c0-0.4-0.3-0.8-0.7-0.8c-2.3-0.4-2.1-3-2.1-3v-7.5H-53c0-2.1,4.3-1.7,4.3-1.7s4.3-0.4,4.3,1.7H-45v7.6c0,0,0.3,2.6-2.1,3
				c-0.4,0.1-0.7,0.4-0.7,0.8v2.2h2.5c0.4,0,0.7,0.4,0.6,0.8l-1,2.5c0,0,4.2-0.1,1.7,2.4c-0.2,0.2-0.3,0.4-0.4,0.7
				c-0.1,0.3-0.1,0.6-0.1,0.8c0,0,1.8-0.1,1.8,2.3c0,0-0.1,1.1-1.1,1.4c-0.3,0.1-0.5,0.4-0.5,0.8c0.2,1.3,1.4,4,8.2,4
				c6.3,0,8.1,5.4,8.7,8.7c0.2,1.4,0.2,2.4,0.2,2.4S-26.6,212.4-27.2,213z"/>
			<line id="XMLID_5_" class="st20" x1="-45" y1="133.4" x2="-52" y2="133.4"/>
		</g>
	</g>
</g>
<g id="Layer_4" class="st0">
	<g id="XMLID_766_" class="st1">
		<g id="XMLID_90_">
			<circle id="XMLID_97_" class="st2" cx="-48.5" cy="180.4" r="59.4"/>
		</g>
		<defs>
			<filter id="Adobe_OpacityMaskFilter_6_" filterUnits="userSpaceOnUse" x="-107.9" y="121" width="118.8" height="118.8">
				<feColorMatrix  type="matrix" values="1 0 0 0 0  0 1 0 0 0  0 0 1 0 0  0 0 0 1 0"/>
			</filter>
		</defs>
		<mask maskUnits="userSpaceOnUse" x="-107.9" y="121" width="118.8" height="118.8" id="XMLID_245_">
			<g id="XMLID_64_" class="st21">
				
					<image style="overflow:visible;enable-background:new    ;" width="508" height="512" id="XMLID_70_" xlink:href="21832DC4F82A918.jpeg"  transform="matrix(0.2423 0 0 0.2404 -109.938 118.9285)">
				</image>
			</g>
		</mask>
		<g id="XMLID_85_" class="st22">
			<circle id="XMLID_89_" cx="-48.5" cy="180.4" r="59.4"/>
		</g>
	</g>
	<g id="XMLID_744_" class="st1">
		<g id="XMLID_69_">
			<path id="XMLID_72_" d="M-48.5,121c32.8,0,59.4,26.6,59.4,59.4s-26.6,59.4-59.4,59.4s-59.4-26.6-59.4-59.4S-81.3,121-48.5,121
				 M-48.5,114.9c-36.1,0-65.5,29.3-65.5,65.5s29.4,65.5,65.5,65.5S17,216.5,17,180.4S-12.4,114.9-48.5,114.9L-48.5,114.9z"/>
		</g>
		<defs>
			<filter id="Adobe_OpacityMaskFilter_7_" filterUnits="userSpaceOnUse" x="-114" y="114.9" width="131" height="131">
				<feColorMatrix  type="matrix" values="1 0 0 0 0  0 1 0 0 0  0 0 1 0 0  0 0 0 1 0"/>
			</filter>
		</defs>
		<mask maskUnits="userSpaceOnUse" x="-114" y="114.9" width="131" height="131" id="XMLID_256_">
			<g id="XMLID_35_" class="st23">
				
					<image style="overflow:visible;enable-background:new    ;" width="561" height="561" id="XMLID_51_" xlink:href="21832DC4F82A918.jpeg"  transform="matrix(0.2411 0 0 0.2411 -116.031 112.8355)">
				</image>
			</g>
		</mask>
		<g id="XMLID_61_" class="st24">
			<path id="XMLID_66_" d="M-48.5,121c32.8,0,59.4,26.6,59.4,59.4s-26.6,59.4-59.4,59.4s-59.4-26.6-59.4-59.4S-81.3,121-48.5,121
				 M-48.5,114.9c-36.1,0-65.5,29.3-65.5,65.5s29.4,65.5,65.5,65.5S17,216.5,17,180.4S-12.4,114.9-48.5,114.9L-48.5,114.9z"/>
		</g>
	</g>
	<g id="XMLID_713_" class="st1">
		
			<image style="overflow:visible;opacity:0.39;enable-background:new    ;" width="266" height="455" id="XMLID_39_" xlink:href="21832DC4F82A918.png"  transform="matrix(0.24 0 0 0.2421 -79.3203 122.3358)">
		</image>
		<g id="XMLID_13_">
			<path id="XMLID_37_" class="st25" d="M-27.2,212.9c0,0,0.2,8.2-21.3,8.2s-21.3-8.2-21.3-8.2c-0.6-0.6-0.1-39.3-0.1-39.3
				s0-1,0.2-2.4c0.5-3.3,2.4-8.7,8.7-8.7c6.8,0,8-2.7,8.2-4c0.1-0.3-0.2-0.7-0.5-0.8c-1.1-0.3-1.1-1.4-1.1-1.4
				c0-2.4,1.8-2.3,1.8-2.3c0-0.2-0.1-0.5-0.1-0.8c-0.1-0.3-0.2-0.5-0.4-0.7c-2.4-2.5,1.7-2.4,1.7-2.4l-1-2.5
				c-0.1-0.4,0.2-0.8,0.6-0.8h2.4v-2.2c0-0.4-0.3-0.8-0.7-0.8c-2.3-0.4-2.1-3-2.1-3v-7.5H-53c0-2.1,4.3-1.7,4.3-1.7s4.3-0.4,4.3,1.7
				H-45v7.5c0,0,0.3,2.6-2.1,3c-0.4,0.1-0.7,0.4-0.7,0.8v2.2h2.5c0.4,0,0.7,0.4,0.6,0.8l-1,2.5c0,0,4.2-0.1,1.7,2.4
				c-0.2,0.2-0.3,0.4-0.4,0.7s-0.1,0.6-0.1,0.8c0,0,1.8-0.1,1.8,2.3c0,0-0.1,1.1-1.1,1.4c-0.3,0.1-0.5,0.4-0.5,0.8
				c0.2,1.3,1.4,4,8.2,4c6.3,0,8.1,5.4,8.7,8.7c0.2,1.4,0.2,2.4,0.2,2.4S-26.5,212.3-27.2,212.9z"/>
			<line id="XMLID_36_" class="st26" x1="-45" y1="133.3" x2="-52" y2="133.3"/>
		</g>
	</g>
</g>
<g id="Layer_5" class="st0">
	<g id="XMLID_640_" class="st1">
		<g id="XMLID_124_">
			<circle id="XMLID_127_" class="st2" cx="-48.5" cy="180.5" r="59.4"/>
		</g>
		<defs>
			<filter id="Adobe_OpacityMaskFilter_8_" filterUnits="userSpaceOnUse" x="-107.9" y="121.1" width="118.8" height="118.8">
				<feColorMatrix  type="matrix" values="1 0 0 0 0  0 1 0 0 0  0 0 1 0 0  0 0 0 1 0"/>
			</filter>
		</defs>
		<mask maskUnits="userSpaceOnUse" x="-107.9" y="121.1" width="118.8" height="118.8" id="XMLID_257_">
			<g id="XMLID_109_" class="st27">
				
					<image style="overflow:visible;enable-background:new    ;" width="508" height="508" id="XMLID_115_" xlink:href="21832DC4F82A918.jpeg"  transform="matrix(0.2423 0 0 0.2423 -109.9361 119.062)">
				</image>
			</g>
		</mask>
		<g id="XMLID_119_" class="st28">
			<circle id="XMLID_120_" cx="-48.5" cy="180.5" r="59.4"/>
		</g>
	</g>
	<g id="XMLID_626_" class="st1">
		<g id="XMLID_113_">
			<path id="XMLID_116_" d="M-48.5,121.1c32.8,0,59.4,26.6,59.4,59.4s-26.6,59.4-59.4,59.4s-59.4-26.6-59.4-59.4
				S-81.3,121.1-48.5,121.1 M-48.5,115c-36.1,0-65.5,29.4-65.5,65.5S-84.6,246-48.5,246S17,216.6,17,180.5S-12.4,115-48.5,115
				L-48.5,115z"/>
		</g>
		<defs>
			<filter id="Adobe_OpacityMaskFilter_9_" filterUnits="userSpaceOnUse" x="-114" y="115" width="131" height="131">
				<feColorMatrix  type="matrix" values="1 0 0 0 0  0 1 0 0 0  0 0 1 0 0  0 0 0 1 0"/>
			</filter>
		</defs>
		<mask maskUnits="userSpaceOnUse" x="-114" y="115" width="131" height="131" id="XMLID_258_">
			<g id="XMLID_106_" class="st29">
				
					<image style="overflow:visible;enable-background:new    ;" width="561" height="561" id="XMLID_107_" xlink:href="21832DC4F82A918.jpeg"  transform="matrix(0.2411 0 0 0.2411 -116.0291 112.969)">
				</image>
			</g>
		</mask>
		<g id="XMLID_108_" class="st30">
			<path id="XMLID_110_" d="M-48.5,121.1c32.8,0,59.4,26.6,59.4,59.4s-26.6,59.4-59.4,59.4s-59.4-26.6-59.4-59.4
				S-81.3,121.1-48.5,121.1 M-48.5,115c-36.1,0-65.5,29.4-65.5,65.5S-84.6,246-48.5,246S17,216.6,17,180.5S-12.4,115-48.5,115
				L-48.5,115z"/>
		</g>
	</g>
	<path id="XMLID_102_" class="st1" d="M-71.3,160.6L-71.3,160.6z"/>
	<path id="XMLID_101_" class="st1" d="M-26.6,163.1c0,0.6-1.3,1.9-6,3.1c-4.2,1-9.9,1.6-15.9,1.6s-11.7-0.6-15.9-1.6
		c-4.7-1.2-6-2.5-6-3.1h10.6c0,0.4,0.2,0.9,0.6,1.1c0.3,0.2,0.6,0.3,0.9,0.3c0.4,0,0.9-0.2,1.1-0.6c0.2-0.3,0.4-0.6,0.6-0.9h6.7
		c0,0.4,0.2,0.9,0.6,1.1c0.3,0.2,0.6,0.3,0.9,0.3c0.4,0,0.9-0.2,1.1-0.6c0.2-0.3,0.4-0.6,0.6-0.9h6.7c0,0.4,0.2,0.9,0.6,1.1
		c0.3,0.2,0.6,0.3,0.9,0.3c0.4,0,0.9-0.2,1.1-0.6c0.2-0.3,0.4-0.6,0.6-0.9h10.2V163.1z"/>
	<path id="XMLID_100_" class="st1" d="M-48.5,169.7c9.9,0,19.8-1.6,22.8-4.6v51.3h-45.6v-51.3C-68.3,168.1-58.4,169.7-48.5,169.7z"
		/>
	<path id="XMLID_99_" class="st31" d="M-23.4,188.9H-28c-2.1,0-3.8-1.7-3.8-3.8v-6.9c0-2.1,1.7-3.8,3.8-3.8h4.6
		c2.1,0,3.8,1.7,3.8,3.8v6.9C-19.5,187.2-21.3,188.9-23.4,188.9z"/>
	<path id="XMLID_98_" class="st31" d="M-69,187.9h-4.6c-2.1,0-3.8-1.7-3.8-3.8v-6.9c0-2.1,1.7-3.8,3.8-3.8h4.6
		c2.1,0,3.8,1.7,3.8,3.8v6.9C-65.2,186.2-66.9,187.9-69,187.9z"/>
	<g id="XMLID_84_" class="st1">
		<path id="XMLID_88_" d="M-26.6,163.1c0,0.6-1.3,1.9-6,3.1c-4.2,1-9.9,1.6-15.9,1.6s-11.7-0.6-15.9-1.6c-4.7-1.2-6-2.5-6-3.1
			c0-0.6,1.3-1.9,6-3.1c2-0.5,4.4-0.9,7-1.2c-0.5,1.1-1.2,2.2-2.1,3.4c-0.2,0.3-0.3,0.6-0.3,0.9c0,0.4,0.2,0.9,0.6,1.1
			c0.3,0.2,0.6,0.3,0.9,0.3c0.4,0,0.9-0.2,1.1-0.6c0.2-0.3,0.4-0.6,0.6-0.9c1.1-1.6,1.9-3.1,2.3-4.6c2.2-0.1,4.6-0.2,7-0.2
			c-0.5,1.2-1.3,2.5-2.3,3.9c-0.2,0.3-0.3,0.6-0.3,0.9c0,0.4,0.2,0.9,0.6,1.1c0.3,0.2,0.6,0.3,0.9,0.3c0.4,0,0.9-0.2,1.1-0.6
			c0.2-0.3,0.4-0.6,0.6-0.9c1.1-1.6,1.9-3.1,2.4-4.6c2.3,0.1,4.6,0.3,6.6,0.6c-0.5,1-1.2,2.1-2,3.2c-0.2,0.3-0.3,0.6-0.3,0.9
			c0,0.4,0.2,0.9,0.6,1.1c0.3,0.2,0.6,0.3,0.9,0.3c0.4,0,0.9-0.2,1.1-0.6c0.2-0.3,0.4-0.6,0.6-0.9c0.9-1.2,1.5-2.4,2-3.6
			c0.8,0.2,1.5,0.3,2.2,0.5C-27.9,161.2-26.6,162.5-26.6,163.1z"/>
	</g>
	<g id="XMLID_81_" class="st1">
		<path id="XMLID_83_" d="M-54.3,158.6c-1.1,0.1-2.1,0.2-3.1,0.3c1.6-3.5,0.9-6.5-2-9.5l0,0c-4.8-5.2-4.8-10.8,0-16
			c0.5-0.6,1.4-0.6,2-0.1s0.6,1.4,0.1,2c-3.8,4.2-3.8,7.9,0,12.1C-54,150.8-53,154.5-54.3,158.6z"/>
	</g>
	<g id="XMLID_73_" class="st1">
		<path id="XMLID_74_" d="M-44.4,158.5c-1,0-2-0.1-3-0.1c1.3-3.3,0.6-6.2-2.2-9.1l0,0c-4.8-5.2-4.8-10.8,0-16c0.5-0.6,1.4-0.6,2-0.1
			s0.6,1.4,0.1,2c-3.8,4.2-3.8,7.9,0,12.1C-44.1,150.8-43.1,154.5-44.4,158.5z"/>
	</g>
	<g id="XMLID_2_" class="st1">
		<path id="XMLID_65_" d="M-34.8,159.5c-0.9-0.2-1.9-0.3-2.9-0.5c1.7-3.6,1.1-6.7-1.9-9.7l0,0c-4.8-5.2-4.8-10.8,0-16
			c0.5-0.6,1.4-0.6,2-0.1s0.6,1.4,0.1,2c-3.8,4.2-3.8,7.9,0,12.1C-33.9,151.1-33,155.1-34.8,159.5z"/>
	</g>
</g>
<g id="Layer_6" class="st0">
	<g id="XMLID_477_" class="st1">
		<g id="XMLID_140_">
			<circle id="XMLID_143_" class="st2" cx="-48.5" cy="180.5" r="59.4"/>
		</g>
		<defs>
			<filter id="Adobe_OpacityMaskFilter_10_" filterUnits="userSpaceOnUse" x="-107.9" y="121.1" width="118.8" height="118.8">
				<feColorMatrix  type="matrix" values="1 0 0 0 0  0 1 0 0 0  0 0 1 0 0  0 0 0 1 0"/>
			</filter>
		</defs>
		<mask maskUnits="userSpaceOnUse" x="-107.9" y="121.1" width="118.8" height="118.8" id="XMLID_259_">
			<g id="XMLID_123_" class="st32">
				
					<image style="overflow:visible;enable-background:new    ;" width="508" height="508" id="XMLID_131_" xlink:href="21832DC4F82A918.jpeg"  transform="matrix(0.2423 0 0 0.2423 -109.938 119.062)">
				</image>
			</g>
		</mask>
		<g id="XMLID_135_" class="st33">
			<circle id="XMLID_136_" cx="-48.5" cy="180.5" r="59.4"/>
		</g>
	</g>
	<g id="XMLID_434_" class="st1">
		<g id="XMLID_129_">
			<path id="XMLID_132_" class="st34" d="M-48.5,121.1c32.8,0,59.4,26.6,59.4,59.4s-26.6,59.4-59.4,59.4s-59.4-26.6-59.4-59.4
				S-81.3,121.1-48.5,121.1 M-48.5,115c-36.1,0-65.5,29.4-65.5,65.5S-84.6,246-48.5,246S17,216.6,17,180.5S-12.4,115-48.5,115
				L-48.5,115z"/>
		</g>
		<defs>
			<filter id="Adobe_OpacityMaskFilter_11_" filterUnits="userSpaceOnUse" x="-114" y="115" width="131" height="131">
				<feColorMatrix  type="matrix" values="1 0 0 0 0  0 1 0 0 0  0 0 1 0 0  0 0 0 1 0"/>
			</filter>
		</defs>
		<mask maskUnits="userSpaceOnUse" x="-114" y="115" width="131" height="131" id="XMLID_261_">
			<g id="XMLID_114_" class="st35">
				
					<image style="overflow:visible;enable-background:new    ;" width="561" height="561" id="XMLID_121_" xlink:href="21832DC4F82A908.jpeg"  transform="matrix(0.2411 0 0 0.2411 -116.031 112.969)">
				</image>
			</g>
		</mask>
		<g id="XMLID_122_" class="st36">
			<path id="XMLID_125_" d="M-48.5,121.1c32.8,0,59.4,26.6,59.4,59.4s-26.6,59.4-59.4,59.4s-59.4-26.6-59.4-59.4
				S-81.3,121.1-48.5,121.1 M-48.5,115c-36.1,0-65.5,29.4-65.5,65.5S-84.6,246-48.5,246S17,216.6,17,180.5S-12.4,115-48.5,115
				L-48.5,115z"/>
		</g>
	</g>
	<path id="XMLID_845_" class="st8" d="M-44.4,229.3"/>
	<g id="XMLID_830_" class="st1">
		<path id="XMLID_844_" class="st37" d="M-71.3,160.6L-71.3,160.6z"/>
		<path id="XMLID_843_" class="st37" d="M-26.6,163.1c0,0.6-1.3,1.9-6,3.1c-4.2,1-9.9,1.6-15.9,1.6s-11.7-0.6-15.9-1.6
			c-4.7-1.2-6-2.5-6-3.1h10.6c0,0.4,0.2,0.9,0.6,1.1c0.3,0.2,0.6,0.3,0.9,0.3c0.4,0,0.9-0.2,1.1-0.6c0.2-0.3,0.4-0.6,0.6-0.9h6.7
			c0,0.4,0.2,0.9,0.6,1.1c0.3,0.2,0.6,0.3,0.9,0.3c0.4,0,0.9-0.2,1.1-0.6c0.2-0.3,0.4-0.6,0.6-0.9h6.7c0,0.4,0.2,0.9,0.6,1.1
			c0.3,0.2,0.6,0.3,0.9,0.3c0.4,0,0.9-0.2,1.1-0.6c0.2-0.3,0.4-0.6,0.6-0.9h10.2V163.1z"/>
		<path id="XMLID_842_" class="st37" d="M-48.5,169.7c9.9,0,19.8-1.6,22.8-4.6v51.3h-45.6v-51.3C-68.3,168.1-58.4,169.7-48.5,169.7z
			"/>
		<path id="XMLID_841_" class="st38" d="M-23.4,188.9H-28c-2.1,0-3.8-1.7-3.8-3.8v-6.9c0-2.1,1.7-3.8,3.8-3.8h4.6
			c2.1,0,3.8,1.7,3.8,3.8v6.9C-19.5,187.2-21.3,188.9-23.4,188.9z"/>
		<path id="XMLID_840_" class="st38" d="M-69,187.9h-4.6c-2.1,0-3.8-1.7-3.8-3.8v-6.9c0-2.1,1.7-3.8,3.8-3.8h4.6
			c2.1,0,3.8,1.7,3.8,3.8v6.9C-65.2,186.2-66.9,187.9-69,187.9z"/>
		<g id="XMLID_838_">
			<path id="XMLID_839_" class="st37" d="M-26.6,163.1c0,0.6-1.3,1.9-6,3.1c-4.2,1-9.9,1.6-15.9,1.6s-11.7-0.6-15.9-1.6
				c-4.7-1.2-6-2.5-6-3.1c0-0.6,1.3-1.9,6-3.1c2-0.5,4.4-0.9,7-1.2c-0.5,1.1-1.2,2.2-2.1,3.4c-0.2,0.3-0.3,0.6-0.3,0.9
				c0,0.4,0.2,0.9,0.6,1.1c0.3,0.2,0.6,0.3,0.9,0.3c0.4,0,0.9-0.2,1.1-0.6c0.2-0.3,0.4-0.6,0.6-0.9c1.1-1.6,1.9-3.1,2.3-4.6
				c2.2-0.1,4.6-0.2,7-0.2c-0.5,1.2-1.3,2.5-2.3,3.9c-0.2,0.3-0.3,0.6-0.3,0.9c0,0.4,0.2,0.9,0.6,1.1c0.3,0.2,0.6,0.3,0.9,0.3
				c0.4,0,0.9-0.2,1.1-0.6c0.2-0.3,0.4-0.6,0.6-0.9c1.1-1.6,1.9-3.1,2.4-4.6c2.3,0.1,4.6,0.3,6.6,0.6c-0.5,1-1.2,2.1-2,3.2
				c-0.2,0.3-0.3,0.6-0.3,0.9c0,0.4,0.2,0.9,0.6,1.1c0.3,0.2,0.6,0.3,0.9,0.3c0.4,0,0.9-0.2,1.1-0.6c0.2-0.3,0.4-0.6,0.6-0.9
				c0.9-1.2,1.5-2.4,2-3.6c0.8,0.2,1.5,0.3,2.2,0.5C-27.9,161.2-26.6,162.5-26.6,163.1z"/>
		</g>
		<ellipse id="XMLID_837_" class="st37" cx="-48.5" cy="216.4" rx="22.8" ry="5.6"/>
		<g id="XMLID_835_">
			<path id="XMLID_836_" class="st37" d="M-54.3,158.6c-1.1,0.1-2.1,0.2-3.1,0.3c1.6-3.5,0.9-6.5-2-9.5l0,0c-4.8-5.2-4.8-10.8,0-16
				c0.5-0.6,1.4-0.6,2-0.1s0.6,1.4,0.1,2c-3.8,4.2-3.8,7.9,0,12.1C-54,150.8-53,154.5-54.3,158.6z"/>
		</g>
		<g id="XMLID_833_">
			<path id="XMLID_834_" class="st37" d="M-44.4,158.5c-1,0-2-0.1-3-0.1c1.3-3.3,0.6-6.2-2.2-9.1l0,0c-4.8-5.2-4.8-10.8,0-16
				c0.5-0.6,1.4-0.6,2-0.1s0.6,1.4,0.1,2c-3.8,4.2-3.8,7.9,0,12.1C-44.1,150.8-43.1,154.5-44.4,158.5z"/>
		</g>
		<g id="XMLID_831_">
			<path id="XMLID_832_" class="st37" d="M-34.8,159.5c-0.9-0.2-1.9-0.3-2.9-0.5c1.7-3.6,1.1-6.7-1.9-9.7l0,0
				c-4.8-5.2-4.8-10.8,0-16c0.5-0.6,1.4-0.6,2-0.1s0.6,1.4,0.1,2c-3.8,4.2-3.8,7.9,0,12.1C-33.9,151.1-33,155.1-34.8,159.5z"/>
		</g>
	</g>
</g>
<g id="Layer_7" class="st0">
	<g id="XMLID_736_" class="st1">
		<g id="XMLID_172_">
			<circle id="XMLID_173_" class="st2" cx="-48.5" cy="180.5" r="59.4"/>
		</g>
		<defs>
			<filter id="Adobe_OpacityMaskFilter_12_" filterUnits="userSpaceOnUse" x="-107.9" y="121.1" width="118.8" height="118.8">
				<feColorMatrix  type="matrix" values="1 0 0 0 0  0 1 0 0 0  0 0 1 0 0  0 0 0 1 0"/>
			</filter>
		</defs>
		<mask maskUnits="userSpaceOnUse" x="-107.9" y="121.1" width="118.8" height="118.8" id="XMLID_264_">
			<g id="XMLID_159_" class="st39">
				
					<image style="overflow:visible;enable-background:new    ;" width="508" height="508" id="XMLID_169_" xlink:href="21832DC4F82A908.jpeg"  transform="matrix(0.2423 0 0 0.2423 -109.938 119.062)">
				</image>
			</g>
		</mask>
		<g id="XMLID_170_" class="st40">
			<circle id="XMLID_171_" cx="-48.5" cy="180.5" r="59.4"/>
		</g>
	</g>
	<g id="XMLID_722_" class="st1">
		<g id="XMLID_189_">
			<path id="XMLID_191_" d="M-48.5,121.1c32.8,0,59.4,26.6,59.4,59.4s-26.6,59.4-59.4,59.4s-59.4-26.6-59.4-59.4
				S-81.3,121.1-48.5,121.1 M-48.5,115c-36.1,0-65.5,29.4-65.5,65.5S-84.6,246-48.5,246S17,216.6,17,180.5S-12.4,115-48.5,115
				L-48.5,115z"/>
		</g>
		<defs>
			<filter id="Adobe_OpacityMaskFilter_13_" filterUnits="userSpaceOnUse" x="-114" y="115" width="131" height="131">
				<feColorMatrix  type="matrix" values="1 0 0 0 0  0 1 0 0 0  0 0 1 0 0  0 0 0 1 0"/>
			</filter>
		</defs>
		<mask maskUnits="userSpaceOnUse" x="-114" y="115" width="131" height="131" id="XMLID_265_">
			<g id="XMLID_137_" class="st41">
				
					<image style="overflow:visible;enable-background:new    ;" width="561" height="561" id="XMLID_183_" xlink:href="21832DC4F82A908.jpeg"  transform="matrix(0.2411 0 0 0.2411 -116.031 112.969)">
				</image>
			</g>
		</mask>
		<g id="XMLID_184_" class="st42">
			<path id="XMLID_186_" d="M-48.5,121.1c32.8,0,59.4,26.6,59.4,59.4s-26.6,59.4-59.4,59.4s-59.4-26.6-59.4-59.4
				S-81.3,121.1-48.5,121.1 M-48.5,115c-36.1,0-65.5,29.4-65.5,65.5S-84.6,246-48.5,246S17,216.6,17,180.5S-12.4,115-48.5,115
				L-48.5,115z"/>
		</g>
	</g>
	<g id="XMLID_662_" class="st1">
		
			<image style="overflow:visible;opacity:0.39;enable-background:new    ;" width="344" height="434" id="XMLID_182_" xlink:href="21832DC4F82A908.png"  transform="matrix(0.2394 0 0 0.2426 -89.1401 131.3584)">
		</image>
		<g id="XMLID_130_">
			<path id="XMLID_176_" d="M-34.9,211.7c-1.2,2.7-3,5.1-5.2,7.3l-8.5,7.8l-7.6-7.1c-2.7-2.5-4.7-5.4-5.8-8.7
				c4.2-2.8,7.5-6.5,9.7-11l3.7,3.4l3.2-3.4C-43,204.8-39.4,209.1-34.9,211.7z"/>
			<path id="XMLID_168_" d="M-63,189.3C-63.1,189.3-63.1,189.4-63,189.3C-63.1,189.4-63,189.4-63,189.3L-63,189.3z"/>
			<path id="XMLID_167_" d="M-63,189.3L-63,189.3C-63.1,189.4-63.1,189.3-63,189.3L-63,189.3z"/>
			<path id="XMLID_166_" d="M-55.3,197.3c-0.1,0.3-0.2,0.6-0.4,0.8c-1.6,3.5-4.2,6.6-7.4,8.9c-0.7,0.5-1.3,1-2,1.3
				c-0.7,0.4-1.3,0.8-2.1,1c-0.9,0.4-1.7,0.8-2.7,1l-0.5,0.2l-0.4-1.1c-1.2-3.2-1.7-6.8-1.3-10.1c1.8-0.5,3.5-1.2,5.1-2.1
				c1-0.5,2-1,2.9-1.7c1.3-0.9,2.6-1.9,3.7-3l0.1,0.1c0.3,0.3,0.6,0.6,0.9,0.9L-55.3,197.3z"/>
			<path id="XMLID_165_" d="M-27.3,209.6l-0.4,1.1l-0.5-0.2c-0.5-0.2-1-0.4-1.4-0.6c-0.7-0.3-1.4-0.6-2.1-1c-0.7-0.4-1.3-0.8-2-1.1
				c-3.8-2.4-6.8-5.7-8.7-9.7c-0.1-0.1-0.1-0.2-0.1-0.3l5.1-4.8c0.9,0.8,1.7,1.5,2.7,2.1c1,0.7,1.9,1.3,3,1.8
				c0.9,0.5,1.7,0.9,2.6,1.2c1,0.5,2.1,0.9,3.1,1.1C-25.5,202.9-25.9,206.3-27.3,209.6z"/>
			<path id="XMLID_164_" d="M-57.7,165.9c-0.1-0.2-0.2-0.4-0.3-0.7l0,0c0,0,0.1,0,0.1-0.1L-57.7,165.9z"/>
			<path id="XMLID_163_" d="M-63,189.3C-63.1,189.3-63.1,189.4-63,189.3c-2.3,2.2-4.8,3.8-7.6,5c-0.8,0.3-1.5,0.6-2.3,0.9
				c-0.4,0.1-0.8,0.2-1.1,0.3l-1,0.3l-3.5,0.9l-1.4-5c-1.4-5.1-1-10.3,1.3-15.1h5.4c2,0,3.9-0.2,5.7-0.7c0.1,2.1,0.5,4.2,1,6.2
				c0.2,0.7,0.4,1.3,0.7,2c0.3,0.7,0.5,1.2,0.9,1.8C-64.4,187.1-63.8,188.2-63,189.3z"/>
			<path id="XMLID_162_" d="M-63,189.3L-63,189.3C-63.1,189.4-63.1,189.3-63,189.3L-63,189.3z"/>
			<path id="XMLID_160_" d="M-17.7,191.6l-1.4,5l-3.5-0.9l-1-0.3c-0.4-0.1-0.8-0.2-1.1-0.3c-0.8-0.2-1.5-0.5-2.3-0.8
				c-1.3-0.6-2.7-1.2-3.8-2c-1.1-0.8-2.3-1.5-3.2-2.5c0.4-0.5,0.7-1,1-1.4c0.4-0.6,0.9-1.2,1.1-1.8c0.4-0.6,0.7-1.1,1-1.8
				c0.3-0.6,0.6-1.2,0.8-1.9c0.9-2.2,1.4-4.5,1.6-6.8c1.3,0.3,2.8,0.4,4.2,0.4h5.3C-16.8,181.2-16.3,186.6-17.7,191.6z"/>
			<path id="XMLID_156_" d="M-37.5,161c0,0.1,0,0.2,0,0.2"/>
			<path id="XMLID_152_" d="M-57.7,165.9c-0.1-0.2-0.2-0.4-0.3-0.7l0,0c0,0,0.1,0,0.1-0.1L-57.7,165.9z"/>
			<path id="XMLID_151_" d="M-37.5,161c0,0.1,0,0.2,0,0.2"/>
			<path id="XMLID_150_" d="M-33.1,175c-0.1,1.7-0.4,3.4-1,5.1c-0.2,0.7-0.4,1.2-0.7,1.9c-0.3,0.6-0.5,1.1-0.9,1.7
				c-0.2,0.4-0.5,0.9-0.7,1.2c-0.4,0.6-0.7,1-1.1,1.6c0,0.1-0.1,0.2-0.2,0.3c-0.4,0.5-0.8,1-1.2,1.5c0,0.1-0.1,0.1-0.2,0.2
				c-0.4,0.4-0.8,0.8-1.1,1.1l-0.2,0.4l-3.6,3.2l-1.6,1.4l-1.6,1.4l-1.4,1.3l-2-1.9l-1.6-1.4l-1.6-1.5l-2.3-2.1
				c-0.4-0.3-0.7-0.7-1-1c-0.1,0-0.1-0.1-0.1-0.1c-0.5-0.5-1-1-1.3-1.6c-0.1,0-0.1-0.1-0.1-0.1c-0.5-0.6-0.9-1.1-1.2-1.8
				c0,0,0,0,0-0.1c-0.6-0.9-1-1.7-1.4-2.6c-0.3-0.6-0.5-1.2-0.7-1.8c-0.2-0.7-0.4-1.2-0.6-1.9c-0.4-1.5-0.6-3.1-0.6-4.8v-0.2
				c1.6-0.7,3.1-1.6,4.6-2.7c0.8,1,1.5,2,2.4,3c0.4,0.5,0.9,0.9,1.3,1.3l0.1,0.1l0.7,0.7l1.9,1.7l0.1,0.1l0.2,0.2l1.3,1.2l1.6,1.5
				l0.4,0.4l1.3-1.2l1-1l0.6-0.6l0.1-0.1l1.5-1.4l0.4-0.4l1.1-1l1-0.9l0.1-0.1c1-1,2-2,2.9-3.1C-36.9,173.4-35.1,174.4-33.1,175z"/>
			<path id="XMLID_149_" d="M-61.6,166.4c0.2,0.5,0.4,1,0.7,1.5c-0.5,0.4-1,0.8-1.5,1l0,0c-0.9,0.5-1.7,1-2.6,1.3
				c-0.8,0.4-1.5,0.7-2.4,0.9c-1.9,0.6-3.8,0.9-5.9,0.9h-8.2v-6.7c0-11.4,9.3-20.8,20.8-20.8h0.7c-2.2,3.8-3.3,8.1-3.3,12.6
				c0,0.9,0,1.6,0.1,2.5c0,0.2,0,0.4,0,0.5c0.1,0.6,0.2,1.1,0.3,1.7c0.1,0.5,0.2,1,0.4,1.5l0,0c0.1,0.2,0.1,0.4,0.2,0.7
				C-62.2,164.8-61.9,165.6-61.6,166.4L-61.6,166.4z"/>
			<path id="XMLID_148_" d="M-57.7,165.9c-0.1-0.2-0.2-0.4-0.3-0.7l0,0c0,0,0.1,0,0.1-0.1L-57.7,165.9z"/>
			<path id="XMLID_147_" d="M-57.9,165.1C-57.9,165.1-57.9,165.2-57.9,165.1L-57.9,165.1c0,0.3,0.1,0.5,0.2,0.8L-57.9,165.1z"/>
			<path id="XMLID_145_" d="M-37.5,161c0,0.1,0,0.2,0,0.2"/>
			<path id="XMLID_144_" d="M-16.4,165.4v6.7h-8.1c-1.4,0-2.9-0.2-4.2-0.4c-0.8-0.2-1.5-0.4-2.3-0.6c-0.9-0.3-1.6-0.6-2.4-1
				c-1-0.5-1.9-1-2.8-1.6c0.6-1,1-1.9,1.3-3c0.2-0.4,0.3-0.8,0.4-1.1c0.2-0.7,0.4-1.2,0.6-1.9c0-0.1,0-0.2,0.1-0.3
				c0.2-0.8,0.3-1.4,0.4-2.2c0-0.3,0.1-0.6,0.1-0.8l0,0c0.1-1,0.1-1.9,0.1-2.8c0-4.2-1-8.2-3-11.9
				C-25.2,145.2-16.4,154.2-16.4,165.4z"/>
			<path id="XMLID_142_" d="M-36.9,156.5c0,0.5,0,1-0.1,1.5c0,0.3,0,0.7-0.1,1c-0.1,0.7-0.2,1.3-0.3,2c0,0.1,0,0.2,0,0.2
				c-0.2,0.8-0.4,1.4-0.6,2.2c-0.3,0.9-0.7,1.8-1.1,2.7c-0.4,0.7-0.8,1.3-1.1,2c-0.3,0.4-0.6,0.9-0.9,1.2c-0.2,0.2-0.3,0.4-0.5,0.6
				c-0.7,0.9-1.4,1.7-2.2,2.5c-0.1,0.1-0.2,0.2-0.3,0.3l-2,1.9l-0.8,0.7l-1.7,1.6l-0.9-0.8l-2.2-2.1l-0.6-0.6
				c-0.7-0.6-1.2-1.1-1.7-1.8l0,0c-0.6-0.7-1.1-1.3-1.6-2.1c-0.5-0.7-0.9-1.2-1.2-1.9c-0.3-0.5-0.5-1-0.8-1.4l0,0l0,0l0,0l-0.2-0.8
				c0,0,0,0-0.1,0.1c-0.3-0.7-0.6-1.3-0.8-2.1c-0.1-0.4-0.2-0.8-0.3-1.1c-0.1-0.4-0.2-0.7-0.2-1c-0.1-0.7-0.2-1.2-0.3-1.9l0,0
				c0-0.1,0-0.2,0-0.3c0-0.5,0-1,0-1.5s0-0.9,0-1.3c0.3-4,1.6-7.9,4.1-11.2c0.6-0.8,1.1-1.5,1.8-2.2c0.4-0.4,0.8-0.9,1.2-1.2
				l0.8-0.7c0-0.5,0.1-0.6,0.2-0.7c1-0.8,2.2-1.1,3.3-1.1c1.2,0,2.4,0.4,3.4,1.1c0.1,0.1,0.3,0.2,0.4,0.3c0.7,0.6,1.2,1.2,1.8,1.9
				c0.6,0.8,1.1,1.4,1.7,2.2c2.1,3.1,3.2,6.6,3.5,10.3C-37,155.4-36.9,156-36.9,156.5z"/>
			<path id="XMLID_141_" d="M-57.7,165.9c-0.1-0.2-0.2-0.4-0.3-0.7l0,0c0,0,0.1,0,0.1-0.1L-57.7,165.9z"/>
			<path id="XMLID_139_" d="M-37.5,161c0,0.1,0,0.2,0,0.2"/>
			<path id="XMLID_138_" d="M-37.5,161c0,0.1,0,0.2,0,0.2"/>
		</g>
	</g>
</g>
<g id="Layer_8" class="st0">
	<g id="XMLID_154_" class="st1">
		<g id="XMLID_216_">
			<circle id="XMLID_217_" class="st2" cx="-48.5" cy="180.5" r="59.4"/>
		</g>
		<defs>
			<filter id="Adobe_OpacityMaskFilter_14_" filterUnits="userSpaceOnUse" x="-107.9" y="121.1" width="118.8" height="118.8">
				<feColorMatrix  type="matrix" values="1 0 0 0 0  0 1 0 0 0  0 0 1 0 0  0 0 0 1 0"/>
			</filter>
		</defs>
		<mask maskUnits="userSpaceOnUse" x="-107.9" y="121.1" width="118.8" height="118.8" id="XMLID_266_">
			<g id="XMLID_203_" class="st43">
				
					<image style="overflow:visible;enable-background:new    ;" width="508" height="508" id="XMLID_213_" xlink:href="21832DC4F82A923.jpeg"  transform="matrix(0.2423 0 0 0.2423 -109.9372 119.062)">
				</image>
			</g>
		</mask>
		<g id="XMLID_214_" class="st44">
			<circle id="XMLID_215_" cx="-48.5" cy="180.5" r="59.4"/>
		</g>
	</g>
	<g id="XMLID_153_" class="st1">
		<g id="XMLID_232_">
			<path id="XMLID_234_" class="st45" d="M-48.5,121.1c32.8,0,59.4,26.6,59.4,59.4s-26.6,59.4-59.4,59.4s-59.4-26.6-59.4-59.4
				S-81.3,121.1-48.5,121.1 M-48.5,115c-36.1,0-65.5,29.4-65.5,65.5S-84.6,246-48.5,246S17,216.6,17,180.5S-12.4,115-48.5,115
				L-48.5,115z"/>
		</g>
		<defs>
			<filter id="Adobe_OpacityMaskFilter_15_" filterUnits="userSpaceOnUse" x="-114" y="115" width="131" height="131">
				<feColorMatrix  type="matrix" values="1 0 0 0 0  0 1 0 0 0  0 0 1 0 0  0 0 0 1 0"/>
			</filter>
		</defs>
		<mask maskUnits="userSpaceOnUse" x="-114" y="115" width="131" height="131" id="XMLID_267_">
			<g id="XMLID_155_" class="st46">
				
					<image style="overflow:visible;enable-background:new    ;" width="561" height="561" id="XMLID_158_" xlink:href="21832DC4F82A92D.jpeg"  transform="matrix(0.2411 0 0 0.2411 -116.0302 112.969)">
				</image>
			</g>
		</mask>
		<g id="XMLID_227_" class="st47">
			<path id="XMLID_229_" d="M-48.5,121.1c32.8,0,59.4,26.6,59.4,59.4s-26.6,59.4-59.4,59.4s-59.4-26.6-59.4-59.4
				S-81.3,121.1-48.5,121.1 M-48.5,115c-36.1,0-65.5,29.4-65.5,65.5S-84.6,246-48.5,246S17,216.6,17,180.5S-12.4,115-48.5,115
				L-48.5,115z"/>
		</g>
	</g>
	<g id="XMLID_104_" class="st1">
		
			<image style="overflow:visible;opacity:0.39;enable-background:new    ;" width="344" height="434" id="XMLID_226_" xlink:href="21832DC4F82A92F.png"  transform="matrix(0.2394 0 0 0.2426 -89.1393 131.3584)">
		</image>
		<g id="XMLID_157_">
			<path id="XMLID_220_" class="st45" d="M-34.9,211.7c-1.2,2.7-3,5.1-5.2,7.3l-8.5,7.8l-7.6-7.1c-2.7-2.5-4.7-5.4-5.8-8.7
				c4.2-2.8,7.5-6.5,9.7-11l3.7,3.4l3.2-3.4C-43,204.8-39.4,209.1-34.9,211.7z"/>
			<path id="XMLID_212_" class="st45" d="M-63,189.3C-63.1,189.3-63.1,189.4-63,189.3C-63.1,189.4-63,189.4-63,189.3L-63,189.3z"/>
			<path id="XMLID_211_" class="st45" d="M-63,189.3L-63,189.3C-63.1,189.4-63.1,189.3-63,189.3L-63,189.3z"/>
			<path id="XMLID_210_" class="st45" d="M-55.3,197.3c-0.1,0.3-0.2,0.6-0.4,0.8c-1.6,3.5-4.2,6.6-7.4,8.9c-0.7,0.5-1.3,1-2,1.3
				c-0.7,0.4-1.3,0.8-2.1,1c-0.9,0.4-1.7,0.8-2.7,1l-0.5,0.2l-0.4-1.1c-1.2-3.2-1.7-6.8-1.3-10.1c1.8-0.5,3.5-1.2,5.1-2.1
				c1-0.5,2-1,2.9-1.7c1.3-0.9,2.6-1.9,3.7-3l0.1,0.1c0.3,0.3,0.6,0.6,0.9,0.9L-55.3,197.3z"/>
			<path id="XMLID_209_" class="st45" d="M-27.3,209.6l-0.4,1.1l-0.5-0.2c-0.5-0.2-1-0.4-1.4-0.6c-0.7-0.3-1.4-0.6-2.1-1
				c-0.7-0.4-1.3-0.8-2-1.1c-3.8-2.4-6.8-5.7-8.7-9.7c-0.1-0.1-0.1-0.2-0.1-0.3l5.1-4.8c0.9,0.8,1.7,1.5,2.7,2.1
				c1,0.7,1.9,1.3,3,1.8c0.9,0.5,1.7,0.9,2.6,1.2c1,0.5,2.1,0.9,3.1,1.1C-25.5,202.9-25.9,206.3-27.3,209.6z"/>
			<path id="XMLID_208_" class="st45" d="M-57.7,165.9c-0.1-0.2-0.2-0.4-0.3-0.7l0,0c0,0,0.1,0,0.1-0.1L-57.7,165.9z"/>
			<path id="XMLID_207_" class="st45" d="M-63,189.3C-63.1,189.3-63.1,189.4-63,189.3c-2.3,2.2-4.8,3.8-7.6,5
				c-0.8,0.3-1.5,0.6-2.3,0.9c-0.4,0.1-0.8,0.2-1.1,0.3l-1,0.3l-3.5,0.9l-1.4-5c-1.4-5.1-1-10.3,1.3-15.1h5.4c2,0,3.9-0.2,5.7-0.7
				c0.1,2.1,0.5,4.2,1,6.2c0.2,0.7,0.4,1.3,0.7,2c0.3,0.7,0.5,1.2,0.9,1.8C-64.4,187.1-63.8,188.2-63,189.3z"/>
			<path id="XMLID_206_" class="st45" d="M-63,189.3L-63,189.3C-63.1,189.4-63.1,189.3-63,189.3L-63,189.3z"/>
			<path id="XMLID_204_" class="st45" d="M-17.7,191.6l-1.4,5l-3.5-0.9l-1-0.3c-0.4-0.1-0.8-0.2-1.1-0.3c-0.8-0.2-1.5-0.5-2.3-0.8
				c-1.3-0.6-2.7-1.2-3.8-2c-1.1-0.8-2.3-1.5-3.2-2.5c0.4-0.5,0.7-1,1-1.4c0.4-0.6,0.9-1.2,1.1-1.8c0.4-0.6,0.7-1.1,1-1.8
				c0.3-0.6,0.6-1.2,0.8-1.9c0.9-2.2,1.4-4.5,1.6-6.8c1.3,0.3,2.8,0.4,4.2,0.4h5.3C-16.8,181.2-16.3,186.6-17.7,191.6z"/>
			<path id="XMLID_200_" class="st45" d="M-37.5,161c0,0.1,0,0.2,0,0.2"/>
			<path id="XMLID_196_" class="st45" d="M-57.7,165.9c-0.1-0.2-0.2-0.4-0.3-0.7l0,0c0,0,0.1,0,0.1-0.1L-57.7,165.9z"/>
			<path id="XMLID_195_" class="st45" d="M-37.5,161c0,0.1,0,0.2,0,0.2"/>
			<path id="XMLID_194_" class="st45" d="M-33.1,175c-0.1,1.7-0.4,3.4-1,5.1c-0.2,0.7-0.4,1.2-0.7,1.9c-0.3,0.6-0.5,1.1-0.9,1.7
				c-0.2,0.4-0.5,0.9-0.7,1.2c-0.4,0.6-0.7,1-1.1,1.6c0,0.1-0.1,0.2-0.2,0.3c-0.4,0.5-0.8,1-1.2,1.5c0,0.1-0.1,0.1-0.2,0.2
				c-0.4,0.4-0.8,0.8-1.1,1.1l-0.2,0.4l-3.6,3.2l-1.6,1.4l-1.6,1.4l-1.4,1.3l-2-1.9l-1.6-1.4l-1.6-1.5l-2.3-2.1
				c-0.4-0.3-0.7-0.7-1-1c-0.1,0-0.1-0.1-0.1-0.1c-0.5-0.5-1-1-1.3-1.6c-0.1,0-0.1-0.1-0.1-0.1c-0.5-0.6-0.9-1.1-1.2-1.8
				c0,0,0,0,0-0.1c-0.6-0.9-1-1.7-1.4-2.6c-0.3-0.6-0.5-1.2-0.7-1.8c-0.2-0.7-0.4-1.2-0.6-1.9c-0.4-1.5-0.6-3.1-0.6-4.8v-0.2
				c1.6-0.7,3.1-1.6,4.6-2.7c0.8,1,1.5,2,2.4,3c0.4,0.5,0.9,0.9,1.3,1.3l0.1,0.1l0.7,0.7l1.9,1.7l0.1,0.1l0.2,0.2l1.3,1.2l1.6,1.5
				l0.4,0.4l1.3-1.2l1-1l0.6-0.6l0.1-0.1l1.5-1.4l0.4-0.4l1.1-1l1-0.9l0.1-0.1c1-1,2-2,2.9-3.1C-36.9,173.4-35.1,174.4-33.1,175z"/>
			<path id="XMLID_190_" class="st45" d="M-61.6,166.4c0.2,0.5,0.4,1,0.7,1.5c-0.5,0.4-1,0.8-1.5,1l0,0c-0.9,0.5-1.7,1-2.6,1.3
				c-0.8,0.4-1.5,0.7-2.4,0.9c-1.9,0.6-3.8,0.9-5.9,0.9h-8.2v-6.7c0-11.4,9.3-20.8,20.8-20.8h0.7c-2.2,3.8-3.3,8.1-3.3,12.6
				c0,0.9,0,1.6,0.1,2.5c0,0.2,0,0.4,0,0.5c0.1,0.6,0.2,1.1,0.3,1.7c0.1,0.5,0.2,1,0.4,1.5l0,0c0.1,0.2,0.1,0.4,0.2,0.7
				C-62.2,164.8-61.9,165.6-61.6,166.4L-61.6,166.4z"/>
			<path id="XMLID_185_" class="st45" d="M-57.7,165.9c-0.1-0.2-0.2-0.4-0.3-0.7l0,0c0,0,0.1,0,0.1-0.1L-57.7,165.9z"/>
			<path id="XMLID_181_" class="st45" d="M-57.9,165.1C-57.9,165.1-57.9,165.2-57.9,165.1L-57.9,165.1c0,0.3,0.1,0.5,0.2,0.8
				L-57.9,165.1z"/>
			<path id="XMLID_179_" class="st45" d="M-37.5,161c0,0.1,0,0.2,0,0.2"/>
			<path id="XMLID_178_" class="st45" d="M-16.4,165.4v6.7h-8.1c-1.4,0-2.9-0.2-4.2-0.4c-0.8-0.2-1.5-0.4-2.3-0.6
				c-0.9-0.3-1.6-0.6-2.4-1c-1-0.5-1.9-1-2.8-1.6c0.6-1,1-1.9,1.3-3c0.2-0.4,0.3-0.8,0.4-1.1c0.2-0.7,0.4-1.2,0.6-1.9
				c0-0.1,0-0.2,0.1-0.3c0.2-0.8,0.3-1.4,0.4-2.2c0-0.3,0.1-0.6,0.1-0.8l0,0c0.1-1,0.1-1.9,0.1-2.8c0-4.2-1-8.2-3-11.9
				C-25.2,145.2-16.4,154.2-16.4,165.4z"/>
			<path id="XMLID_177_" class="st45" d="M-36.9,156.5c0,0.5,0,1-0.1,1.5c0,0.3,0,0.7-0.1,1c-0.1,0.7-0.2,1.3-0.3,2
				c0,0.1,0,0.2,0,0.2c-0.2,0.8-0.4,1.4-0.6,2.2c-0.3,0.9-0.7,1.8-1.1,2.7c-0.4,0.7-0.8,1.3-1.1,2c-0.3,0.4-0.6,0.9-0.9,1.2
				c-0.2,0.2-0.3,0.4-0.5,0.6c-0.7,0.9-1.4,1.7-2.2,2.5c-0.1,0.1-0.2,0.2-0.3,0.3l-2,1.9l-0.8,0.7l-1.7,1.6l-0.9-0.8l-2.2-2.1
				l-0.6-0.6c-0.7-0.6-1.2-1.1-1.7-1.8l0,0c-0.6-0.7-1.1-1.3-1.6-2.1c-0.5-0.7-0.9-1.2-1.2-1.9c-0.3-0.5-0.5-1-0.8-1.4l0,0l0,0l0,0
				l-0.2-0.8c0,0,0,0-0.1,0.1c-0.3-0.7-0.6-1.3-0.8-2.1c-0.1-0.4-0.2-0.8-0.3-1.1c-0.1-0.4-0.2-0.7-0.2-1c-0.1-0.7-0.2-1.2-0.3-1.9
				l0,0c0-0.1,0-0.2,0-0.3c0-0.5,0-1,0-1.5s0-0.9,0-1.3c0.3-4,1.6-7.9,4.1-11.2c0.6-0.8,1.1-1.5,1.8-2.2c0.4-0.4,0.8-0.9,1.2-1.2
				l0.8-0.7c0-0.5,0.1-0.6,0.2-0.7c1-0.8,2.2-1.1,3.3-1.1c1.2,0,2.4,0.4,3.4,1.1c0.1,0.1,0.3,0.2,0.4,0.3c0.7,0.6,1.2,1.2,1.8,1.9
				c0.6,0.8,1.1,1.4,1.7,2.2c2.1,3.1,3.2,6.6,3.5,10.3C-37,155.4-36.9,156-36.9,156.5z"/>
			<path id="XMLID_175_" class="st45" d="M-57.7,165.9c-0.1-0.2-0.2-0.4-0.3-0.7l0,0c0,0,0.1,0,0.1-0.1L-57.7,165.9z"/>
			<path id="XMLID_174_" class="st45" d="M-37.5,161c0,0.1,0,0.2,0,0.2"/>
			<path id="XMLID_161_" class="st45" d="M-37.5,161c0,0.1,0,0.2,0,0.2"/>
		</g>
	</g>
</g>
<g id="XMLID_11_">
</g>
<g id="XMLID_10_">
	<g>
		<g>
			<path class="st48" d="M-48.3,121.7c32.3,0,58.5,26.2,58.5,58.5s-26.2,58.5-58.5,58.5s-58.5-26.2-58.5-58.5
				S-80.6,121.7-48.3,121.7 M-48.3,114.7c-36.1,0-65.5,29.4-65.5,65.5s29.4,65.5,65.5,65.5s65.5-29.4,65.5-65.5
				S-12.2,114.7-48.3,114.7L-48.3,114.7z"/>
		</g>
	</g>
	<defs>
		<filter id="Adobe_OpacityMaskFilter_16_" filterUnits="userSpaceOnUse" x="-113.8" y="114.7" width="131" height="131">
			
				<feColorMatrix  type="matrix" values="-1 0 0 0 1  0 -1 0 0 1  0 0 -1 0 1  0 0 0 1 0" color-interpolation-filters="sRGB" result="source"/>
		</filter>
	</defs>
	<mask maskUnits="userSpaceOnUse" x="-113.8" y="114.7" width="131" height="131" id="SVGID_1_">
		<g class="st49">
			
				<image style="overflow:visible;" width="136" height="136" xlink:href="21832DC4F82A92D.jpg"  transform="matrix(1 0 0 1 -116 112)">
			</image>
		</g>
	</mask>
	<g class="st50">
		<g>
			<path d="M-48.3,121.7c32.3,0,58.5,26.2,58.5,58.5s-26.2,58.5-58.5,58.5s-58.5-26.2-58.5-58.5S-80.6,121.7-48.3,121.7
				 M-48.3,114.7c-36.1,0-65.5,29.4-65.5,65.5s29.4,65.5,65.5,65.5s65.5-29.4,65.5-65.5S-12.2,114.7-48.3,114.7L-48.3,114.7z"/>
		</g>
	</g>
</g>
<path id="XMLID_424_" class="st51" d="M-44.3,228.2"/>
<g id="XMLID_417_">
	<path id="XMLID_423_" class="st48" d="M-41.8,132.1v2.6c0,0.3-0.3,0.5-0.6,0.5h-1.3c-0.3,0-0.6-0.2-0.6-0.5c0,0.3-0.3,0.5-0.6,0.5
		h-1.3c-0.3,0-0.6-0.2-0.6-0.5c0,0.3-0.3,0.5-0.6,0.5H-49c-0.3,0-0.6-0.2-0.6-0.5c0,0.3-0.3,0.5-0.6,0.5h-1.3
		c-0.3,0-0.6-0.2-0.6-0.5c0,0.3-0.3,0.5-0.6,0.5h-1.3c-0.3,0-0.6-0.2-0.6-0.5v-2.6c0-0.7,0.6-1.2,1.3-1.2h10.3
		C-42.4,130.9-41.8,131.4-41.8,132.1z"/>
	<path id="XMLID_418_" class="st48" d="M-35.7,175c0,0-4-9-4.8-11.4c-0.7-2.4-2-23.3-2-23.3c-0.1-1.2,0.3-1,0.3-1s0.9,0,0.9-1.6
		c0-1.6-1.3-1.8-1.3-1.8H-54c0,0-1.3,0.2-1.3,1.8c0,1.6,0.9,1.6,0.9,1.6s0.4-0.1,0.3,1c0,0-1.3,20.9-2,23.3
		c-0.7,2.5-4.8,11.4-4.8,11.4s-1,1.8-1,16.1c0,14.2,0,30.7,0,30.7c0,0.1,0.1,4.4,13.6,4.4c13.5,0,13.6-4.3,13.6-4.4
		c0,0,0-16.4,0-30.7C-34.7,176.8-35.7,175-35.7,175z M-35.9,209.2c0,1.1-5.6,1.9-12.5,1.9h-0.2c-7,0-12.7-0.9-12.7-1.9v-24
		c0-0.7,0.7-1.1,1.4-0.9c2.1,0.6,6.4,1,11.2,1h0.2c4.8,0,8.9-0.4,11-1c0.7-0.2,1.4,0.3,1.4,0.9V209.2z"/>
</g>
<path id="XMLID_415_" class="st2" d="M-41,185.6"/>
</svg>
