<?xml version="1.0" encoding="utf-8"?>
<!-- Generator: Adobe Illustrator 19.0.0, SVG Export Plug-In . SVG Version: 6.00 Build 0)  -->
<svg version="1.1" id="Layer_1" xmlns="http://www.w3.org/2000/svg" xmlns:xlink="http://www.w3.org/1999/xlink" x="0px" y="0px"
	 width="300px" height="100px" viewBox="0 0 300 100" style="enable-background:new 0 0 300 100;" xml:space="preserve">
<style type="text/css">
	.st0{fill:#FFFFFF;}
</style>
<g id="XMLID_2_">
	<path id="XMLID_749_" class="st0" d="M262,61.1c1.7-0.1,3.3-0.5,4.8-1.2c-1.9,1.7-4.4,2.8-7.2,2.9c-6.3,0.3-11.7-4.7-12-11
		c-0.2-4.4,2.5-10.3,6.7-15.4c-3.1,4.6-4.9,9.4-4.8,13.2C249.7,56.2,255.3,61.4,262,61.1z"/>
	<path id="XMLID_752_" class="st0" d="M257.9,24.6c-13.9,0-25.1,11.3-25.1,25.1c0,13.9,11.3,25.1,25.1,25.1
		c13.9,0,25.1-11.3,25.1-25.1C283,35.9,271.7,24.6,257.9,24.6z M269.7,55.8c-0.3,1.2-0.8,2.2-1.4,3.2c-2,3.4-5.7,5.8-10,5.9
		c-6.7,0.3-12.4-5-12.7-11.7c-0.3-6.7,5.8-16.7,13.6-23.1c0,0,0,0,0,0c0,0.3,0.1,0.5,0.2,0.8c1.8,8.1,10.4,14.7,10.6,21.3
		C270.1,53.4,270,54.6,269.7,55.8z"/>
</g>
<g id="XMLID_25_">
	<g id="XMLID_664_">
		<path id="XMLID_111_" class="st0" d="M208.1,52.2c0.9-0.3,1.6-0.4,2.2-0.5c0.2-3.2-0.2-6.4-1.2-9.4c-0.7,0-1.3-0.4-1.8-1
			c0,0-0.5-0.7-0.5-4c-1.2-2.1-2.8-4-4.6-5.7c0,0.1-0.1,0.2-0.1,0.2c-1.7,3.1-2.5,3.4-2.5,3.4c-1.5,0.6-2.9-0.3-3.3-1.8
			c0,0-0.2-0.9,1.5-4c0.2-0.3,0.3-0.6,0.5-0.9c-1.3-0.8-2.6-1.4-3.9-1.9c0.3,0.6,0.6,1.5,0.8,2.5c0.9,3.6,0.2,4.6,0.2,4.6
			c-0.9,1.3-2.6,1.7-4,0.8c0,0-1.2-0.8-2.1-4.4c-0.9-3.6-0.2-4.6-0.2-4.6c0.1-0.1,0.2-0.2,0.3-0.4c-3.3-0.6-6.6-0.5-9.9,0.3
			c3.4,1.5,3.9,2.8,3.9,2.8c0.6,1.5-0.1,3.1-1.6,3.6c0,0-1.4,0.5-4.9-1c-3.5-1.5-4-2.9-4-2.9c0,0,0-0.1,0-0.1
			c-0.8,0.4-1.6,0.9-2.3,1.4c-1,0.7-1.9,1.4-2.7,2.2h0c-1.1,1-2,2.1-2.9,3.3c-8.3,11.1-6.1,26.9,5,35.2c0.6,0.4,1.1,0.8,1.7,1.2
			c0,0,0,0,0,0c0.6-0.2,1.8-0.4,3.7-0.2c3.5,0.2,4.3,1.1,4.3,1.1c0.7,0.7,0.9,1.7,0.6,2.6c9.1,1.7,18.9-1.7,24.8-9.6
			c1.8-2.3,3-4.9,3.9-7.5c-3,0.8-3.9,0.3-3.9,0.3c-1.4-0.7-1.9-2.4-1.1-3.8C204.1,54.2,204.7,53.2,208.1,52.2z M195.9,39.4
			c0,0,0.2-1,3.3-3c3-2,4.1-1.8,4.1-1.8c1.5,0.2,2.5,1.7,2.1,3.2c0,0-0.3,1-3.3,3c-3,2-4.1,1.8-4.1,1.8
			C196.5,42.3,195.5,40.9,195.9,39.4z M195.2,44.4c1.4,0.7,1.9,2.4,1.1,3.7c0,0-0.6,1.1-4.2,2c-3.6,1-4.9,0.3-4.9,0.3
			c-1.4-0.7-1.9-2.4-1.1-3.7c0,0,0.6-1.1,4.2-2C193.9,43.8,195.2,44.4,195.2,44.4z M183.9,33.7c0,0,1-0.2,4.4,1.6
			c3.4,1.8,3.8,2.7,3.8,2.7c0.7,1.4-0.1,2.8-1.6,3.1c0,0-1,0.2-4.4-1.6c-3.4-1.8-3.8-2.7-3.8-2.7C181.7,35.3,182.4,34,183.9,33.7z
			 M181.4,39.6c3.6,1.1,4.3,2.4,4.3,2.4c0.7,1.4,0.2,3.1-1.2,3.8c0,0-1.3,0.7-4.9-0.5c-3.6-1.1-4.3-2.4-4.3-2.4
			c-0.7-1.4-0.2-3.1,1.2-3.8C176.4,39.1,177.7,38.5,181.4,39.6z M167,56.3c-0.6,1.4-2.2,1.9-3.5,1c0,0-0.7-0.5-1.8-3.7
			c-1.1-3.2-0.8-3.9-0.8-3.9c0.6-1.4,2.2-1.9,3.5-1c0,0,0.7,0.5,1.8,3.7C167.3,55.6,167,56.3,167,56.3z M166.8,38
			c-1.1-1.2-1-2.9,0.2-3.9c0,0,0.9-0.7,4.4-0.5s4.3,1.1,4.3,1.1c1.1,1.2,1,2.9-0.2,3.9c0,0-0.9,0.7-4.4,0.5
			C167.5,38.9,166.8,38,166.8,38z M173.4,61.8c-0.1,3.6-1.1,4.5-1.1,4.5c-1.2,1-3,0.9-4-0.3c0,0-1-1.1-0.9-4.7
			c0.1-3.7,1.1-4.5,1.1-4.5c1.2-1,3-0.9,4,0.3C172.5,57.1,173.5,58.2,173.4,61.8z M173.6,50.6c-3.4,1-4.4,0.5-4.4,0.5
			c-1.4-0.7-1.9-2.4-1.1-3.8c0,0,0.6-1,3.9-2c3.4-1,4.4-0.5,4.4-0.5c1.4,0.7,1.9,2.4,1.1,3.8C177.5,48.6,177,49.6,173.6,50.6z
			 M175.3,59.9c0,0-0.6-1.4,0.8-4.9c1.4-3.5,2.7-4.1,2.7-4.1c1.4-0.6,3.1,0,3.7,1.5c0,0,0.6,1.4-0.8,4.9c-1.4,3.5-2.7,4.1-2.7,4.1
			C177.6,62,175.9,61.4,175.3,59.9z M184.8,72.3c0,0-1.5,0.2-4.5-2.1c-3-2.3-3.3-3.7-3.3-3.7c-0.2-1.5,0.8-3,2.4-3.2
			c0,0,1.5-0.2,4.5,2.1c3,2.3,3.3,3.7,3.3,3.7C187.4,70.7,186.3,72.1,184.8,72.3z M185.5,60.8c-1.5-0.4-2.4-1.9-2-3.4
			c0,0,0.3-1.1,3.3-2.9c3-1.8,4.1-1.5,4.1-1.5c1.5,0.4,2.4,1.9,2,3.4c0,0-0.3,1.1-3.3,2.9C186.6,61,185.5,60.8,185.5,60.8z
			 M194.5,69.1c-0.1,3.4-0.6,3.9-0.6,3.9c-1.1,1.1-2.7,1-3.7-0.2c0,0-0.5-0.7-0.5-4.1c0.1-3.4,0.6-3.9,0.6-3.9
			c1.1-1.1,2.7-1,3.7,0.2C194.1,65,194.6,65.7,194.5,69.1z M200.6,63c-0.8,1.4-2.5,1.9-3.9,1.1c0,0-1.3-0.7-2.4-4.2
			c-1.1-3.5-0.5-4.6-0.5-4.6c0.7-1.4,2.5-1.9,3.9-1.1c0,0,1.3,0.7,2.4,4.2C201.2,61.9,200.6,63,200.6,63z M201.1,51.5
			c-1.5,0.5-3-0.3-3.4-1.8c0,0-0.3-1,1.5-4.2C201,42.4,202,42,202,42c1.5-0.5,3,0.3,3.4,1.8c0,0,0.3,1-1.5,4.2
			C202.2,51.2,201.1,51.5,201.1,51.5z"/>
	</g>
</g>
<g id="XMLID_26_">
	<g id="XMLID_938_">
		<path id="XMLID_73_" class="st0" d="M112.5,24.6c-13.9,0-25.1,11.3-25.1,25.1c0,13.9,11.3,25.1,25.1,25.1
			c13.9,0,25.1-11.3,25.1-25.1C137.7,35.9,126.4,24.6,112.5,24.6z M107.9,39.5c0.1-1.7,0.7-3.3,1.7-4.8c0.2-0.3,0.5-0.6,0.8-0.9
			c0.2-0.2,0.3-0.4,0.5-0.5l0.3-0.3c0-0.2,0-0.2,0.1-0.3c0.4-0.3,0.9-0.5,1.4-0.5c0.5,0,1,0.2,1.4,0.5c0,0,0.1,0.1,0.2,0.1
			c0.3,0.2,0.5,0.5,0.8,0.8c0.2,0.3,0.5,0.6,0.7,0.9c0.9,1.3,1.4,2.8,1.5,4.4c0,0.2,0.1,0.5,0.1,0.7c0,0.2,0,0.4,0,0.6
			c0,0.1,0,0.3,0,0.4c0,0.3-0.1,0.6-0.1,0.8c0,0,0,0.1,0,0.1c-0.1,0.3-0.2,0.6-0.2,0.9c-0.1,0.4-0.3,0.8-0.5,1.1
			c-0.2,0.3-0.3,0.6-0.5,0.8c-0.1,0.2-0.2,0.4-0.4,0.5c-0.1,0.1-0.1,0.2-0.2,0.2c-0.3,0.4-0.6,0.7-0.9,1l-0.1,0.1l-0.8,0.8l-0.3,0.3
			l-0.7,0.7l-0.4-0.3l-1-0.9l-0.2-0.2c-0.3-0.2-0.5-0.5-0.7-0.8c-0.2-0.3-0.5-0.6-0.7-0.9c-0.2-0.3-0.4-0.5-0.5-0.8
			c-0.1-0.2-0.2-0.4-0.3-0.6l-0.1-0.3c0,0,0,0,0,0l0-0.1c0,0,0,0,0,0c0,0,0,0.1,0,0.1c0,0,0,0,0,0c-0.1-0.3-0.2-0.6-0.3-0.9
			c0-0.2-0.1-0.3-0.1-0.5c0-0.2-0.1-0.3-0.1-0.4c0-0.3-0.1-0.5-0.1-0.8V39.5z M107.1,50.9c-0.1-0.2-0.2-0.5-0.3-0.8
			c-0.1-0.3-0.2-0.5-0.2-0.8c-0.2-0.6-0.2-1.3-0.2-2v-0.1c0.7-0.3,1.3-0.7,1.9-1.1c0.3,0.4,0.6,0.8,1,1.3c0.2,0.2,0.4,0.4,0.6,0.6
			l0,0l0.3,0.3l0.8,0.7l0.1,0.1l0.6,0.5l0.7,0.6l0.2,0.2l0.6-0.5l0.4-0.4l0.2-0.2l0,0l0.6-0.6l0.2-0.2l0.5-0.4l0.4-0.4l0,0
			c0.4-0.4,0.8-0.8,1.2-1.3c0.7,0.5,1.5,0.9,2.3,1.2c0,0.7-0.2,1.5-0.4,2.1c-0.1,0.3-0.2,0.5-0.3,0.8c-0.1,0.2-0.2,0.5-0.4,0.7
			c-0.1,0.2-0.2,0.4-0.3,0.5c-0.2,0.2-0.3,0.4-0.5,0.7c0,0,0,0.1-0.1,0.1c-0.2,0.2-0.3,0.4-0.5,0.6c0,0,0,0-0.1,0.1
			c-0.2,0.2-0.3,0.3-0.5,0.5l-0.1,0.1l-1.5,1.4l-0.7,0.6l-0.7,0.6l-0.6,0.6l-0.8-0.8l-0.7-0.6l-0.7-0.6l-1-0.9
			c-0.2-0.1-0.3-0.3-0.4-0.4c0,0,0,0,0,0c-0.2-0.2-0.4-0.4-0.6-0.7c0,0,0,0,0,0c-0.2-0.2-0.4-0.5-0.5-0.8c0,0,0,0,0,0
			C107.4,51.6,107.3,51.3,107.1,50.9z M98.6,43.4c0-4.8,4-8.8,8.8-8.8h0.3c-0.9,1.6-1.4,3.4-1.4,5.3c0,0.4,0,0.7,0,1.1v0.2
			c0,0.2,0.1,0.5,0.1,0.7c0,0.2,0.1,0.4,0.2,0.6c0,0.1,0,0.2,0.1,0.3c0.1,0.3,0.2,0.6,0.3,1c0.1,0.2,0.2,0.4,0.3,0.6
			c-0.2,0.2-0.4,0.3-0.6,0.4c-0.4,0.2-0.7,0.4-1.1,0.6c-0.3,0.2-0.6,0.3-1,0.4c-0.8,0.2-1.6,0.4-2.5,0.4h-3.5V43.4z M101.7,56.1
			l-0.4,0.1l-1.5,0.4l-0.6-2.1c-0.6-2.1-0.4-4.4,0.6-6.4h2.3c0.8,0,1.6-0.1,2.4-0.3c0,0.9,0.2,1.8,0.4,2.6c0.1,0.3,0.2,0.6,0.3,0.8
			c0.1,0.3,0.2,0.5,0.4,0.8c0.2,0.5,0.5,1,0.8,1.5c0,0,0,0,0,0c-0.9,0.9-2,1.6-3.2,2.1c-0.3,0.1-0.6,0.2-1,0.4
			C102,56,101.9,56,101.7,56.1z M105.5,61.5c-0.3,0.2-0.6,0.3-0.9,0.4c-0.4,0.2-0.7,0.3-1.1,0.4l-0.2,0.1l-0.2-0.5
			c-0.5-1.4-0.7-2.9-0.6-4.3c0.8-0.2,1.5-0.5,2.2-0.9c0.4-0.2,0.8-0.4,1.2-0.7c0.6-0.4,1.1-0.8,1.6-1.3l0,0c0.1,0.1,0.2,0.2,0.4,0.4
			l1.7,1.6c0,0.1-0.1,0.2-0.2,0.3c-0.7,1.5-1.8,2.8-3.1,3.8C106.1,61.2,105.8,61.4,105.5,61.5z M116.1,66.1l-3.6,3.3l-3.2-3
			c-1.1-1.1-2-2.3-2.5-3.7c1.8-1.2,3.2-2.7,4.1-4.6l1.6,1.5l1.4-1.5c1,1.9,2.5,3.8,4.4,4.9C117.8,64.1,117,65.1,116.1,66.1z
			 M121.5,62.1l-0.2,0.5l-0.2-0.1l-0.6-0.2c-0.3-0.1-0.6-0.2-0.9-0.4c-0.3-0.2-0.6-0.3-0.8-0.5c-1.6-1-2.9-2.4-3.7-4.1
			c0,0,0-0.1,0-0.1l2.2-2c0.4,0.3,0.7,0.6,1.1,0.9c0.4,0.3,0.8,0.6,1.3,0.8c0.4,0.2,0.7,0.4,1.1,0.5c0.4,0.2,0.9,0.4,1.3,0.5
			C122.3,59.2,122.1,60.7,121.5,62.1z M125.6,54.5l-0.6,2.1l-1.5-0.4l-0.4-0.1l-0.5-0.1c-0.3-0.1-0.6-0.2-1-0.3
			c-0.6-0.2-1.1-0.5-1.6-0.8c-0.5-0.3-1-0.6-1.4-1.1c0.2-0.2,0.3-0.4,0.4-0.6c0.2-0.2,0.4-0.5,0.5-0.8c0.2-0.2,0.3-0.5,0.4-0.8
			c0.1-0.2,0.2-0.5,0.3-0.8c0.4-0.9,0.6-1.9,0.7-2.9c0.6,0.1,1.2,0.2,1.8,0.2h2.3C126,50.1,126.2,52.3,125.6,54.5z M126.1,46.2h-3.4
			c-0.6,0-1.2-0.1-1.8-0.2c-0.3-0.1-0.6-0.2-1-0.2c-0.4-0.1-0.7-0.2-1-0.4c-0.4-0.2-0.8-0.4-1.2-0.7c0.2-0.4,0.4-0.8,0.6-1.3
			c0.1-0.2,0.1-0.3,0.2-0.5c0.1-0.3,0.2-0.5,0.2-0.8c0,0,0-0.1,0-0.1c0.1-0.3,0.1-0.6,0.2-0.9c0-0.1,0-0.2,0-0.3c0-0.4,0-0.8,0-1.2
			c0-1.8-0.4-3.5-1.2-5c4.6,0.2,8.3,4.1,8.3,8.8V46.2z"/>
	</g>
	<g id="XMLID_662_">
		
			<image style="overflow:visible;opacity:0.39;" width="76" height="81" id="XMLID_248_" xlink:href="851701324CED8DFB.png"  transform="matrix(0.24 0 0 0.24 103.1296 38.286)">
		</image>
		<g id="XMLID_120_">
			<g id="XMLID_183_">
				<path id="XMLID_232_" d="M106.4,53.5C106.4,53.5,106.4,53.5,106.4,53.5C106.4,53.5,106.4,53.5,106.4,53.5z"/>
				<path id="XMLID_231_" d="M106.4,53.5L106.4,53.5C106.4,53.5,106.4,53.5,106.4,53.5z"/>
				<path id="XMLID_230_" d="M108.7,43.6c0-0.1-0.1-0.1-0.1-0.2c0,0,0-0.1,0-0.1c0,0,0,0,0,0l0,0.1L108.7,43.6z"/>
				<path id="XMLID_229_" d="M106.4,53.5L106.4,53.5C106.4,53.5,106.4,53.5,106.4,53.5z"/>
				<path id="XMLID_227_" d="M108.7,43.6c0-0.1-0.1-0.1-0.1-0.2c0,0,0-0.1,0-0.1c0,0,0,0,0,0l0,0.1L108.7,43.6z"/>
				<path id="XMLID_225_" d="M108.7,43.6c0-0.1-0.1-0.1-0.1-0.2c0,0,0-0.1,0-0.1c0,0,0,0,0,0l0,0.1L108.7,43.6z"/>
				<path id="XMLID_189_" d="M108.7,43.6c0-0.1,0-0.1-0.1-0.2l0-0.1l0,0.1L108.7,43.6z"/>
				<path id="XMLID_187_" d="M108.6,43.4C108.6,43.4,108.6,43.4,108.6,43.4C108.6,43.4,108.6,43.4,108.6,43.4
					C108.6,43.4,108.5,43.3,108.6,43.4c-0.1-0.1,0-0.1,0-0.1L108.6,43.4z"/>
				<path id="XMLID_186_" d="M108.7,43.6c0-0.1-0.1-0.1-0.1-0.2c0,0,0-0.1,0-0.1c0,0,0,0,0,0l0,0.1L108.7,43.6z"/>
			</g>
		</g>
	</g>
</g>
<g id="XMLID_151_">
	<g id="XMLID_933_">
		<path id="XMLID_190_" class="st0" d="M39.8,63.5c0,0.1,0,0.2,0,0.3h0.1C39.8,63.6,39.8,63.6,39.8,63.5z M39.8,63.5
			c0,0.1,0,0.2,0,0.3h0.1C39.8,63.6,39.8,63.6,39.8,63.5z M39.8,63.5c0,0.1,0,0.2,0,0.3h0.1C39.8,63.6,39.8,63.6,39.8,63.5z
			 M39.8,63.5c0,0.1,0,0.2,0,0.3h0.1C39.8,63.6,39.8,63.6,39.8,63.5z M39.8,63.5c0,0.1,0,0.2,0,0.3h0.1
			C39.8,63.6,39.8,63.6,39.8,63.5z M39.8,63.5c0,0.1,0,0.2,0,0.3h0.1C39.8,63.6,39.8,63.6,39.8,63.5z M39.8,63.5c0,0.1,0,0.2,0,0.3
			h0.1C39.8,63.6,39.8,63.6,39.8,63.5z M39.8,63.5c0,0.1,0,0.2,0,0.3h0.1C39.8,63.6,39.8,63.6,39.8,63.5z M39.8,63.5
			c0,0.1,0,0.2,0,0.3h0.1C39.8,63.6,39.8,63.6,39.8,63.5z M39.8,63.5c0,0.1,0,0.2,0,0.3h0.1C39.8,63.6,39.8,63.6,39.8,63.5z
			 M39.8,63.5c0,0.1,0,0.2,0,0.3h0.1C39.8,63.6,39.8,63.6,39.8,63.5z M39.9,24.6c-13.9,0-25.1,11.3-25.1,25.1S26,74.9,39.9,74.9
			C53.8,74.9,65,63.6,65,49.7S53.8,24.6,39.9,24.6z M37.8,31.4c0.8-0.9,1.4-2.2,2-3.6c0.6,1.4,1.2,2.7,2,3.6c1,1.3,0.9,4-0.2,5.1
			c-1.1,1.4-1.5,1.5-1.6,2.2c0,0.2-0.3,0.2-0.3,0c-0.2-0.7-0.5-0.9-1.6-2.2C36.9,35.4,36.7,32.7,37.8,31.4z M33.8,35.6
			c0,0,0.3,0.3,3.3,1.8c3,1.5,2.4,6.5,2.4,6.5c-0.6-0.7-1.1-0.8-3.7-2.3C33.2,40.1,33.8,35.6,33.8,35.6z M33.8,41.4
			c0,0,0.3,0.3,3.3,1.8c3,1.5,2.4,6.5,2.4,6.5c-0.6-0.7-1.1-0.8-3.7-2.3C33.2,45.9,33.8,41.4,33.8,41.4z M33.8,47.2
			c0,0,0.3,0.3,3.3,1.8c3,1.5,2.4,6.5,2.4,6.5c-0.6-0.7-1.1-0.8-3.7-2.3C33.2,51.7,33.8,47.2,33.8,47.2z M33.8,53
			c0,0,0.3,0.3,3.3,1.8c3,1.5,2.4,6.5,2.4,6.5c-0.6-0.7-1.1-0.8-3.7-2.3C33.2,57.5,33.8,53,33.8,53z M42.2,63.5
			c-1.1,0.6-1.6,0.7-1.9,0.9v7.1c0,0.1-0.1,0.1-0.1,0c-0.1-0.7-0.4-1.4-0.7-1.8c0,0,0-0.1,0-0.1c0.2-0.8,0.2-3,0.1-5.2
			c-0.3-0.2-0.8-0.4-2-1c-1.6-0.8-1.3-3.3-1.3-3.3s0.2,0.2,2.1,1c1,0.5,1.4,1.5,1.5,2.3c0.1-0.8,0.5-1.9,1.5-2.3
			c1.9-0.8,2.1-1,2.1-1S43.8,62.6,42.2,63.5z M43.9,59c-2.5,1.5-3.1,1.5-3.7,2.3c0,0-0.7-4.9,2.4-6.5c3-1.5,3.3-1.8,3.3-1.8
			S46.4,57.5,43.9,59z M43.9,53.2c-2.5,1.5-3.1,1.5-3.7,2.3c0,0-0.7-4.9,2.4-6.5c3-1.5,3.3-1.8,3.3-1.8S46.4,51.7,43.9,53.2z
			 M43.9,47.4c-2.5,1.5-3.1,1.5-3.7,2.3c0,0-0.7-4.9,2.4-6.5c3-1.5,3.3-1.8,3.3-1.8S46.4,45.9,43.9,47.4z M43.9,41.6
			c-2.5,1.5-3.1,1.5-3.7,2.3c0,0-0.7-4.9,2.4-6.5c3-1.5,3.3-1.8,3.3-1.8S46.4,40.1,43.9,41.6z M39.8,63.7c0-0.1,0-0.2,0-0.3
			C39.8,63.6,39.8,63.6,39.8,63.7L39.8,63.7z M39.8,63.5c0,0.1,0,0.2,0,0.3h0.1C39.8,63.6,39.8,63.6,39.8,63.5z M39.8,63.5
			c0,0.1,0,0.2,0,0.3h0.1C39.8,63.6,39.8,63.6,39.8,63.5z M39.8,63.5c0,0.1,0,0.2,0,0.3h0.1C39.8,63.6,39.8,63.6,39.8,63.5z
			 M39.8,63.5c0,0.1,0,0.2,0,0.3h0.1C39.8,63.6,39.8,63.6,39.8,63.5z M39.8,63.5c0,0.1,0,0.2,0,0.3h0.1
			C39.8,63.6,39.8,63.6,39.8,63.5z M39.8,63.5c0,0.1,0,0.2,0,0.3h0.1C39.8,63.6,39.8,63.6,39.8,63.5z M39.8,63.5c0,0.1,0,0.2,0,0.3
			h0.1C39.8,63.6,39.8,63.6,39.8,63.5z M39.8,63.5c0,0.1,0,0.2,0,0.3h0.1C39.8,63.6,39.8,63.6,39.8,63.5z M39.8,63.5
			c0,0.1,0,0.2,0,0.3h0.1C39.8,63.6,39.8,63.6,39.8,63.5z M39.8,63.5c0,0.1,0,0.2,0,0.3h0.1C39.8,63.6,39.8,63.6,39.8,63.5z"/>
	</g>
	<g id="XMLID_432_">
		
			<image style="overflow:visible;opacity:0.39;" width="33" height="34" id="XMLID_54_" xlink:href="851701324CED8DF9.png"  transform="matrix(0.24 0 0 0.24 36.3563 60.0251)">
		</image>
		<g id="XMLID_36_">
			<g id="XMLID_48_">
				<path id="XMLID_50_" d="M39.8,63.7L39.8,63.7c0-0.1,0-0.2,0-0.3C39.8,63.6,39.8,63.6,39.8,63.7z"/>
				<path id="XMLID_49_" d="M39.8,63.7L39.8,63.7c0-0.1,0-0.2,0-0.3C39.8,63.6,39.8,63.6,39.8,63.7z"/>
			</g>
		</g>
	</g>
</g>
</svg>
