<?xml version="1.0" encoding="utf-8"?>
<!-- Generator: Adobe Illustrator 19.0.0, SVG Export Plug-In . SVG Version: 6.00 Build 0)  -->
<svg version="1.1" id="Layer_1" xmlns="http://www.w3.org/2000/svg" xmlns:xlink="http://www.w3.org/1999/xlink" x="0px" y="0px"
	 width="300px" height="100px" viewBox="0 0 300 100" style="enable-background:new 0 0 300 100;" xml:space="preserve">
<style type="text/css">
	.st0{fill:none;}
	.st1{fill:#FFFFFF;}
</style>
<path id="XMLID_148_" class="st0" d="M123.8,51.7c-1.3,3-3.2,6.4-3.6,7.1c0.9,2,2.1,4.4,2.9,5.8c1.1-2,3.1-5.8,3.7-8
	c-0.9-1.4-2-3.2-2.9-4.9C123.8,51.7,123.8,51.7,123.8,51.7z"/>
<path id="XMLID_147_" class="st0" d="M124.8,42c0.9,1.3,5.3,3.6,7.6,4.8c-0.3-2.6-0.9-7.6-1.8-8.9c-0.6-0.9-1.7-1.5-2.9-1.5
	c-0.7,0-1.4,0.2-2,0.6C124.1,38.2,123.7,40.4,124.8,42z"/>
<path id="XMLID_146_" class="st0" d="M119.1,59.3c-0.9,2.1-2.1,4.4-2.8,5.6c0.7,1.6,1.6,3.4,2.3,4.7c0.9-1.6,2.3-4.3,2.8-6.1
	c-0.6-1.2-1.4-2.7-2-4.1C119.4,59.4,119.3,59.4,119.1,59.3z"/>
<path id="XMLID_145_" class="st0" d="M115.3,66.1c-0.5,1-1,2-1.4,2.9c0.6,1.3,1.3,2.6,1.8,3.6c0.5-0.9,1.1-2.1,1.7-3.4
	c-0.5-0.9-1.1-2.1-1.6-3.3L115.3,66.1z"/>
<path id="XMLID_144_" class="st0" d="M107,32.9c1.3,1.3,1.3,3.3,3.3,4c0.9,0.3,2,0.4,2.9,0.5c0.1-2.1-0.7-4.7-2.6-5.8
	c-2.1-1.3-6.6-1.4-8.4,0.6C103.1,31.2,106.3,32.2,107,32.9z"/>
<path id="XMLID_143_" class="st0" d="M117.5,37.1c0.5-1.4,1.1-2.6,1.6-4c0.6-1.9,1.6-2.6,3.5-2.8c-2-0.9-4.8-0.5-6.6,0.5
	c-2.1,1.2-1.9,4-1.9,6.2C115,35.8,116.7,36,117.5,37.1z"/>
<path id="XMLID_142_" class="st0" d="M119.3,35.2c-0.2,0.4-0.1,1.6-0.3,1.8c0.1-0.1,0.4-0.3,0.8-0.6c1.5-1.1,4.4-3.1,5.1-2.6
	c-1.3-1-3-0.6-4.3,0.2C120.1,34.3,119.6,34.7,119.3,35.2z"/>
<path id="XMLID_141_" class="st0" d="M111.9,59.4c-0.1,0-0.2,0.1-0.3,0.1l-0.1,0.1l0-0.1c-0.6,1.3-1.2,2.6-1.8,3.7
	c0.5,1.7,2,4.6,2.9,6.3c0.6-1.2,1.6-2.9,2.2-4.5C114.2,64,112.9,61.6,111.9,59.4z"/>
<path id="XMLID_140_" class="st0" d="M123.3,50.5c-0.1-0.2-0.2-0.5-0.3-0.7l-0.1-0.1c-0.3-0.4-2.5-3-4-5.4c-1,2.2-2.4,4.6-3,5.6
	c0.9,2.5,2.7,6,3.8,7.9C120.7,56,122.3,53,123.3,50.5z"/>
<path id="XMLID_139_" class="st0" d="M121.7,36.9c-0.2,0-0.4,0-0.6,0.1c-0.9,0.2-1.8,0.7-2.3,1.4c-0.6,0.8-0.8,1.7-0.6,2.6
	c0.3,1.5,3.3,5.6,4.9,7.6c0.5-1.4,1.2-3.5,1.6-5.3c-0.3-0.2-0.5-0.5-0.7-0.7c-1-1.5-1-3.4-0.1-4.9C123.4,37.2,122.6,36.9,121.7,36.9
	z"/>
<path id="XMLID_138_" class="st0" d="M104.7,43.9c-0.5-1.4-0.8-2.7-0.7-3.4c0.1-1,0.6-2,1.3-2.7c-0.2-0.2-0.5-0.4-0.8-0.5
	c-0.5-0.2-0.9-0.3-1.4-0.3c-1.4,0-2.7,0.8-3.2,2.1c-0.6,1.4-0.3,6.4,0,9C101.1,47.1,103.2,45.4,104.7,43.9z"/>
<path id="XMLID_137_" class="st0" d="M115.5,51.6c-1.1,2.5-2.5,5.1-3.2,6.5c0.9,2.1,2.3,4.9,3.2,6.5c0.9-1.7,2.4-4.5,3.3-6.7
	c-0.8-1.4-2.1-3.9-3.1-6.2C115.6,51.7,115.6,51.6,115.5,51.6z"/>
<path id="XMLID_136_" class="st0" d="M107.5,51.7C107.4,51.7,107.4,51.7,107.5,51.7c-1,1.8-2.2,3.7-3.2,5.1c0.7,2.2,2.5,5.8,3.6,7.8
	c0.8-1.5,2.1-4,3-6C110.4,57.6,108.7,54.5,107.5,51.7z"/>
<path id="XMLID_135_" class="st0" d="M108,50.3l-0.1,0.2c1,2.4,2.6,5.5,3.6,7.3c1-1.8,2.6-4.8,3.5-7.2l-0.2-0.3
	c-0.3-0.5-1.9-3.7-3-6.4C110.6,46.5,108.4,49.8,108,50.3z"/>
<path id="XMLID_134_" class="st0" d="M115.7,37.4l-0.1,0c-1.9,0-3.5,1.5-3.5,3.4c0,1.5,2.1,6.1,3.3,8.4c0.9-1.5,2.2-3.9,3-5.8
	c-0.5-0.9-0.9-1.7-1-2.3c-0.2-1,0-2,0.5-2.9C117.2,37.7,116.5,37.4,115.7,37.4z"/>
<path id="XMLID_133_" class="st0" d="M180,54.8c2.5,1,3.3,0.7,3.3,0.7c1.1-0.4,1.6-1.7,1.2-2.8c0,0-0.4-0.8-2.9-1.8
	c-2.5-1-3.3-0.7-3.3-0.7c-1.1,0.4-1.6,1.7-1.2,2.8C177.1,53,177.5,53.8,180,54.8z"/>
<path id="XMLID_132_" class="st0" d="M191.7,47c0.9,0.8,2.1,0.6,2.6-0.4c0,0,0.4-0.7-0.1-3.6c-0.5-2.9-1-3.4-1-3.4
	c-0.9-0.8-2.1-0.6-2.6,0.4c0,0-0.4,0.7,0.1,3.6C191.1,46.5,191.7,47,191.7,47z"/>
<path id="XMLID_131_" class="st0" d="M177.6,49.1c2.8-0.8,3.4-1.8,3.4-1.8c0.6-1,0.2-2.4-0.8-3c0,0-1-0.6-3.8,0.2
	c-2.8,0.8-3.4,1.8-3.4,1.8c-0.6,1-0.2,2.4,0.8,3C173.8,49.3,174.8,49.9,177.6,49.1z"/>
<path id="XMLID_130_" class="st0" d="M169.7,50.4c0,0-0.8,0.8-0.8,3.7c0,2.9,0.8,3.7,0.8,3.7c0.8,0.9,2.2,0.9,3.1,0
	c0,0,0.8-0.8,0.8-3.7c0-2.9-0.8-3.7-0.8-3.7C171.9,49.6,170.5,49.6,169.7,50.4z"/>
<path id="XMLID_129_" class="st0" d="M171.4,39.6c0,0,0.5-0.1,2-2.3c1.5-2.1,1.5-2.8,1.5-2.8c-0.1-1.2-1.1-2-2.3-1.7
	c0,0-0.5,0.1-2,2.3c-1.5,2.1-1.5,2.8-1.5,2.8C169.1,39.1,170.2,39.8,171.4,39.6z"/>
<path id="XMLID_128_" class="st0" d="M186.3,36.6c1.2,0.3,2.3-0.5,2.5-1.7c0,0,0.2-0.9-1.4-3.1c-1.5-2.3-2.4-2.5-2.4-2.5
	c-1.2-0.3-2.3,0.5-2.5,1.7c0,0-0.2,0.9,1.4,3.1C185.4,36.4,186.3,36.6,186.3,36.6z"/>
<path id="XMLID_127_" class="st0" d="M186,45.5c1.1,0.5,2.4,0.1,2.9-1c0,0,0.5-1-0.5-3.8c-1-2.8-2-3.2-2-3.2c-1.1-0.5-2.4-0.1-2.9,1
	c0,0-0.5,1,0.5,3.8C185,45.1,186,45.5,186,45.5z"/>
<path id="XMLID_126_" class="st0" d="M178,41c2.2,1.6,3.1,1.5,3.1,1.5c1.2-0.2,2-1.3,1.8-2.4c0,0-0.1-0.9-2.3-2.5
	c-2.2-1.6-3.1-1.5-3.1-1.5c-1.2,0.2-2,1.3-1.8,2.4C175.6,38.5,175.8,39.4,178,41z"/>
<path id="XMLID_125_" class="st0" d="M204.4,53.8c0,0-0.5-0.1-2.7,1.4c-2.2,1.5-2.3,2.2-2.3,2.2c-0.3,1.2,0.4,2.2,1.6,2.4
	c0,0,0.5,0.1,2.7-1.4c2.1-1.5,2.3-2.2,2.3-2.2C206.3,55.1,205.6,54,204.4,53.8z"/>
<path id="XMLID_124_" class="st0" d="M197.3,54c2.6,0.9,3.4,0.6,3.4,0.6c1.1-0.5,1.5-1.7,1-2.8c0,0-0.4-0.8-3-1.7
	c-2.6-0.9-3.4-0.6-3.4-0.6c-1.1,0.5-1.5,1.7-1,2.8C194.3,52.3,194.7,53.1,197.3,54z"/>
<path id="XMLID_123_" class="st0" d="M189.7,55.4c-0.8,0.9-0.6,2.2,0.4,2.9c0,0,0.7,0.5,3.5,0.1c2.8-0.4,3.3-1,3.3-1
	c0.8-0.9,0.6-2.2-0.4-2.9c0,0-0.7-0.5-3.5-0.1C190.2,54.8,189.7,55.4,189.7,55.4z"/>
<path id="XMLID_122_" class="st0" d="M199.1,47.1c-0.8,0.9-0.6,2.2,0.4,2.8c0,0,0.6,0.4,3.3,0c2.7-0.4,3.2-0.9,3.2-0.9
	c0.8-0.9,0.6-2.2-0.4-2.8c0,0-0.6-0.4-3.3,0C199.6,46.6,199.1,47.1,199.1,47.1z"/>
<path id="XMLID_121_" class="st0" d="M193.3,37.6c1,0.6,2.4,0.3,3-0.7c0,0,0.6-1-0.1-3.8c-0.7-2.8-1.6-3.4-1.6-3.4
	c-1-0.6-2.4-0.3-3,0.7c0,0-0.6,1,0.1,3.8C192.4,37,193.3,37.6,193.3,37.6z"/>
<path id="XMLID_120_" class="st0" d="M196.1,44.6c0.1,1.2,1.1,2.1,2.3,2.1c0,0,1-0.1,2.8-2.2c1.8-2.2,1.7-3.3,1.7-3.3
	c-0.1-1.2-1.1-2.1-2.3-2c0,0-1,0.1-2.8,2.2C196.1,43.5,196.1,44.6,196.1,44.6z"/>
<path id="XMLID_119_" class="st0" d="M195.3,65.4c0,0-0.1-0.9-2.3-2.5c-2.2-1.6-3.1-1.5-3.1-1.5c-1.2,0.2-2,1.3-1.8,2.4
	c0,0,0.1,0.9,2.3,2.5c2.2,1.6,3.1,1.5,3.1,1.5C194.7,67.7,195.5,66.6,195.3,65.4z"/>
<path id="XMLID_118_" class="st0" d="M167.6,47.5c0,0,1,0.2,3.3-1.4c2.3-1.6,2.5-2.7,2.5-2.7c0.2-1.2-0.5-2.3-1.7-2.6
	c0,0-1-0.2-3.3,1.4c-2.3,1.6-2.5,2.7-2.5,2.7C165.7,46.1,166.4,47.3,167.6,47.5z"/>
<path id="XMLID_117_" class="st0" d="M111.2,38.6c-0.6-0.7-1.5-1.2-2.4-1.2c-0.1,0-0.2,0-0.3,0c-1.8,0-3.4,1.4-3.5,3.2
	c-0.1,1.5,1.8,6.2,2.8,8.6c1.1-1.7,2.9-4.5,3.8-6.5c-0.2-0.8-0.4-1.5-0.4-2c0-0.6,0.2-1.1,0.4-1.6C111.4,38.9,111.3,38.8,111.2,38.6
	z"/>
<path id="XMLID_116_" class="st0" d="M106.2,47.8c-0.4-0.9-0.8-1.9-1.2-3c-2.1,2-4.9,4.2-5.4,4.5l-0.2,0.1c0.7,2.6,2.2,6.2,3.1,8.3
	c1.2-1.8,3.2-4.9,4.4-7.2C106.6,49.5,106.3,48.5,106.2,47.8z"/>
<path id="XMLID_115_" class="st0" d="M190,53.8c1.2-0.1,2-1.2,1.8-2.4c0,0-0.2-1.1-2.5-2.8c-2.3-1.8-3.2-1.7-3.2-1.7
	c-1.2,0.1-2,1.2-1.8,2.4c0,0,0.2,1.1,2.5,2.8C189.1,54,190,53.8,190,53.8z"/>
<path id="XMLID_114_" class="st0" d="M167.6,61.4c-1.2-0.3-2.3,0.5-2.5,1.7c0,0-0.2,0.9,1.4,3.1c1.5,2.3,2.4,2.5,2.4,2.5
	c1.2,0.3,2.3-0.5,2.5-1.7c0,0,0.2-0.9-1.4-3.1C168.4,61.6,167.6,61.4,167.6,61.4z"/>
<path id="XMLID_113_" class="st0" d="M167.5,54.8c0,0,0.2-0.9-1.4-3.1c-1.5-2.3-2.4-2.5-2.4-2.5c-1.2-0.3-2.3,0.5-2.5,1.7
	c0,0-0.2,0.9,1.4,3.1c1.5,2.3,2.4,2.5,2.4,2.5C166.1,56.7,167.3,56,167.5,54.8z"/>
<path id="XMLID_112_" class="st0" d="M176.2,62.4c2.1-1.5,2.3-2.2,2.3-2.2c0.3-1.2-0.4-2.2-1.6-2.4c0,0-0.5-0.1-2.7,1.4
	c-2.1,1.5-2.3,2.2-2.3,2.2c-0.3,1.2,0.4,2.2,1.6,2.4C173.5,63.8,174.1,63.9,176.2,62.4z"/>
<path id="XMLID_111_" class="st0" d="M184.4,55.6c0,0-1,0.1-2.6,2.4c-1.6,2.3-1.5,3.4-1.5,3.4c0.2,1.2,1.3,2,2.5,1.9
	c0,0,1-0.1,2.6-2.4c1.6-2.3,1.5-3.4,1.5-3.4C186.7,56.3,185.6,55.4,184.4,55.6z"/>
<path id="XMLID_110_" class="st0" d="M177.4,64.7c-2.7,0-3.4,0.6-3.4,0.6c-0.9,0.8-0.9,2.2,0,3c0,0,0.6,0.6,3.4,0.6
	c2.7,0,3.4-0.6,3.4-0.6c0.9-0.8,0.9-2.2,0-3.1C180.7,65.4,180.1,64.7,177.4,64.7z"/>
<path id="XMLID_109_" class="st0" d="M197.7,59.9c-1.2-0.3-2.3,0.5-2.5,1.7c0,0-0.2,0.9,1.4,3.1c1.5,2.3,2.4,2.5,2.4,2.5
	c1.2,0.3,2.3-0.5,2.5-1.7c0,0,0.2-0.9-1.4-3.1C198.6,60.1,197.7,59.9,197.7,59.9z"/>
<path id="XMLID_108_" class="st0" d="M236.5,50.4c-1.4-0.9-2.5-1.2-2.5-1.2s0.2,2.6,1.2,3.2c1,0.6,2.4,0.6,2.4,0.6
	S237.9,51.3,236.5,50.4z"/>
<path id="XMLID_107_" class="st0" d="M238.3,45.3c-0.3-1.6-0.9-2.6-0.9-2.6s-1.7,1.9-1.5,3c0.3,1.1,1.2,2.1,1.2,2.1
	S238.7,46.9,238.3,45.3z"/>
<path id="XMLID_106_" class="st0" d="M236.5,49.5c0,0,0.6-1.6-0.6-2.7c-1.2-1.1-2.2-1.6-2.2-1.6s-0.2,2.6,0.6,3.3
	C235.1,49.3,236.5,49.5,236.5,49.5z"/>
<path id="XMLID_105_" class="st0" d="M239,50.7c0,0,1.5-0.7,1.5-2.4c-0.1-1.7-0.5-2.7-0.5-2.7s-2,1.6-1.9,2.8
	C238.2,49.6,239,50.7,239,50.7z"/>
<path id="XMLID_104_" class="st0" d="M240.5,67.8c1,0.6,2.4,0.5,2.4,0.5s0.2-1.7-1.2-2.5c-1.4-0.9-2.5-1.1-2.5-1.1
	S239.5,67.2,240.5,67.8z"/>
<path id="XMLID_103_" class="st0" d="M239.1,64c1,0.6,2.4,0.5,2.4,0.5s0.2-1.7-1.2-2.5c-1.4-0.9-2.5-1.1-2.5-1.1
	S238.1,63.4,239.1,64z"/>
<path id="XMLID_102_" class="st0" d="M236.4,56.1c1,0.6,2.4,0.6,2.4,0.6s0.3-1.7-1.1-2.6c-1.4-0.9-2.5-1.2-2.5-1.2
	S235.4,55.5,236.4,56.1z"/>
<path id="XMLID_101_" class="st0" d="M237.8,60c1,0.6,2.4,0.5,2.4,0.5s0.3-1.7-1.2-2.5c-1.4-0.9-2.5-1.1-2.5-1.1
	S236.8,59.4,237.8,60z"/>
<path id="XMLID_100_" class="st0" d="M240.3,54.4c0,0,1.5-0.7,1.5-2.4c-0.1-1.6-0.5-2.7-0.5-2.7s-2,1.6-1.9,2.8
	C239.5,53.3,240.3,54.4,240.3,54.4z"/>
<path id="XMLID_99_" class="st0" d="M250.1,47c0,0,0.8-1.8-0.5-3.1c-1.3-1.4-2.4-2-2.4-2s-0.5,2.9,0.4,3.8
	C248.5,46.7,250.1,47,250.1,47z"/>
<path id="XMLID_98_" class="st0" d="M249.6,42.4c0,0,0.8-1.7-0.4-3.1c-1.2-1.4-2.3-2.1-2.3-2.1s-0.6,2.9,0.3,3.8
	C248.1,42,249.6,42.4,249.6,42.4z"/>
<path id="XMLID_97_" class="st0" d="M250.6,56.4c0,0,0.8-1.8-0.5-3.1c-1.3-1.4-2.4-2-2.4-2s-0.5,2.9,0.4,3.8
	C249.1,56,250.6,56.4,250.6,56.4z"/>
<path id="XMLID_96_" class="st0" d="M250.3,51.8c0,0,0.8-1.8-0.5-3.1c-1.3-1.4-2.4-2-2.4-2s-0.5,2.9,0.4,3.8
	C248.7,51.4,250.3,51.8,250.3,51.8z"/>
<path id="XMLID_95_" class="st0" d="M250.5,57.7c-1.4-1.2-2.6-1.8-2.6-1.8s-0.2,2.9,0.8,3.8c1,0.8,2.6,1.1,2.6,1.1
	S251.9,58.9,250.5,57.7z"/>
<path id="XMLID_94_" class="st0" d="M252.2,46.4c-0.3,1.3,0.3,2.8,0.3,2.8s1.9-0.3,2.4-2.1c0.4-1.8,0.3-3.1,0.3-3.1
	S252.4,45.1,252.2,46.4z"/>
<path id="XMLID_93_" class="st0" d="M249.5,38c0,0,0.9-1.7-0.4-3.1c-1.2-1.4-2.3-2.1-2.3-2.1s-0.6,2.9,0.3,3.8
	C248,37.6,249.5,38,249.5,38z"/>
<path id="XMLID_92_" class="st0" d="M249.4,33.9c0,0,1.1-1.6,0.1-3.2c-1-1.6-1.9-2.4-1.9-2.4s-1.1,2.7-0.3,3.8
	C248,33.2,249.4,33.9,249.4,33.9z"/>
<path id="XMLID_91_" class="st0" d="M246,69.2c0,0,1.5-0.8,1.4-2.4c-0.1-1.6-0.5-2.7-0.5-2.7s-1.9,1.7-1.8,2.9
	C245.2,68.1,246,69.2,246,69.2z"/>
<path id="XMLID_90_" class="st0" d="M242.7,61.8c0,0,1.5-0.7,1.5-2.4c-0.1-1.6-0.5-2.7-0.5-2.7s-2,1.6-1.9,2.8
	C242,60.6,242.7,61.8,242.7,61.8z"/>
<path id="XMLID_89_" class="st0" d="M252.7,29.9c0.2-1.9-0.1-3.1-0.1-3.1s-2.5,1.6-2.5,2.9c-0.1,1.3,0.7,2.7,0.7,2.7
	S252.5,31.7,252.7,29.9z"/>
<path id="XMLID_241_" class="st0" d="M251.3,43.7c-0.2-3.7-0.4-5.9-0.6-8.6l-0.1-0.4c-0.1-0.7,0.3-0.5-0.1-0.5
	c-0.4,0-0.4,0.4-0.4,0.8l0.1,1.4l0.5,7.5c0.7,11.4,1.7,19.2,4.7,30c0.3-0.1,0.6-0.1,0.9-0.2c-0.2-0.7-0.4-1.4-0.6-2.1l0.2,0.4
	c8-2.2,7.7-20.2,17.2-12.3c-1.2-2.6-4.5-7.7-7.5-6.9c-3.7,1-9.5,11.3-10.6,16C252.8,60.3,251.9,53.3,251.3,43.7z M258,66.6l0.5-0.9
	c1.4-2.7,2.7-5.2,4.6-7.6l0.1-0.1c0.9-1.1,1.9-2.6,3.4-2.8c1.4-0.1,2.8,0.8,3.7,1.7c-0.8-0.9-2.7-1.3-3.8-1c-1.2,0.3-2,1.6-2.7,2.5
	l-0.1,0.1c-1.8,2.3-3.1,4.8-4.5,7.5l-0.5,0.9c-0.5,1-1.5,3.2-2.9,3.4c-0.2,0-0.4,0-0.7-0.1C256.6,70.1,257.5,67.6,258,66.6z"/>
<path id="XMLID_86_" class="st0" d="M243.4,63.4c0.1,1.2,1,2.2,1,2.2s1.5-0.8,1.4-2.4c-0.1-1.6-0.6-2.7-0.6-2.7
	S243.3,62.2,243.4,63.4z"/>
<path id="XMLID_85_" class="st0" d="M252.7,51.1c-0.2,1.3,0.4,2.8,0.4,2.8s1.9-0.4,2.3-2.2c0.4-1.8,0.2-3.1,0.2-3.1
	S252.9,49.8,252.7,51.1z"/>
<path id="XMLID_84_" class="st0" d="M251.5,33.2c-0.3,1.3,0.2,2.8,0.2,2.8s1.9-0.3,2.4-2.1c0.4-1.8,0.3-3.1,0.3-3.1
	S251.8,32,251.5,33.2z"/>
<path id="XMLID_83_" class="st0" d="M241.4,58.3c0,0,1.5-0.7,1.5-2.4c-0.1-1.7-0.4-2.7-0.4-2.7s-2,1.6-1.9,2.8
	C240.6,57.2,241.4,58.3,241.4,58.3z"/>
<path id="XMLID_82_" class="st0" d="M253.4,55.5c-0.2,1.3,0.3,2.8,0.3,2.8s1.9-0.4,2.3-2.2c0.4-1.8,0.2-3.1,0.2-3.1
	S253.6,54.2,253.4,55.5z"/>
<path id="XMLID_81_" class="st0" d="M251.8,37.7c-0.3,1.3,0.3,2.8,0.3,2.8s1.9-0.3,2.4-2.1c0.4-1.8,0.3-3.1,0.3-3.1
	S252,36.4,251.8,37.7z"/>
<path id="XMLID_80_" class="st0" d="M251.8,42.2c-0.3,1.3,0.3,2.8,0.3,2.8s1.9-0.3,2.3-2.1c0.4-1.8,0.4-3.1,0.4-3.1
	S252.1,40.9,251.8,42.2z"/>
<path id="XMLID_79_" class="st0" d="M123.7,49.4c1,2.5,3.4,6.3,4.8,8.4c1.2-2.6,3.3-7.7,3.6-10.1c-1.4-0.7-4.7-2.4-6.6-3.8
	C124.9,46.1,124,48.5,123.7,49.4z"/>
<path id="XMLID_230_" class="st0" d="M44.6,68.7c6.6,0,11.9-5.3,11.9-11.9c0-6.6-11.9-27.8-11.9-27.8S32.7,50.2,32.7,56.8
	C32.7,63.3,38,68.7,44.6,68.7z M44.5,33.6C44.5,33.6,44.5,33.6,44.5,33.6c-2.2,5-7.5,17-7.2,21.2c0.4,5.4,5,9.4,10.4,9.1
	c1.6-0.1,3-0.6,4.2-1.3c-1.8,2.1-4.5,3.5-7.4,3.5c-5.4,0-9.7-4.4-9.7-9.7S44.5,33.6,44.5,33.6z"/>
<path id="XMLID_210_" class="st1" d="M103.8,71.7c3.3,1.5,6.8,2.3,10.4,2.3c9.4,0,18-5.5,22-13.9c2.8-5.9,3.1-12.5,0.9-18.6
	c-2.2-6.1-6.6-11-12.5-13.8c-3.3-1.5-6.8-2.3-10.4-2.3c-9.4,0-18,5.5-22,13.9c-2.8,5.9-3.1,12.5-0.9,18.6
	C93.5,64.1,97.9,69,103.8,71.7z M102.6,57.8c-0.9-2.1-2.4-5.7-3.1-8.3l0.2-0.1c0.5-0.3,3.3-2.5,5.4-4.5c0.4,1,0.8,2.1,1.2,3
	c0.1,0.7,0.4,1.7,0.8,2.7C105.8,52.9,103.8,56,102.6,57.8z M111.5,42.7c-0.9,1.9-2.7,4.8-3.8,6.5c-1.1-2.4-3-7.1-2.8-8.6
	c0.2-1.8,1.7-3.2,3.5-3.2c0.1,0,0.2,0,0.3,0c0.9,0.1,1.8,0.5,2.4,1.2c0.1,0.1,0.2,0.3,0.3,0.5c-0.2,0.5-0.4,1.1-0.4,1.6
	C111.1,41.2,111.3,41.9,111.5,42.7z M117.3,41.1c0.1,0.6,0.5,1.4,1,2.3c-0.8,1.9-2.2,4.3-3,5.8c-1.2-2.3-3.3-6.9-3.3-8.4
	c0.1-1.9,1.6-3.4,3.5-3.4l0.1,0c0.8,0,1.6,0.3,2.2,0.9C117.4,39.1,117.2,40.1,117.3,41.1z M124,42.5c0.1,0.2,0.4,0.5,0.7,0.7
	c-0.5,1.9-1.2,4-1.6,5.3c-1.6-2.1-4.6-6.1-4.9-7.6c-0.2-0.9,0.1-1.9,0.6-2.6c0.6-0.8,1.4-1.3,2.3-1.4c0.2,0,0.4-0.1,0.6-0.1
	c0.9,0,1.6,0.3,2.3,0.8C123.1,39.1,123,41,124,42.5z M115.9,49.9c0.6-1,2-3.4,3-5.6c1.5,2.4,3.6,5,4,5.4l0.1,0.1
	c0.1,0.2,0.2,0.5,0.3,0.7c-1,2.4-2.6,5.5-3.6,7.3C118.6,55.8,116.9,52.4,115.9,49.9z M118.8,57.9c-0.8,2.2-2.3,5-3.3,6.7
	c-0.9-1.6-2.3-4.4-3.2-6.5c0.7-1.3,2.2-4,3.2-6.5c0,0,0.1,0,0.1,0C116.7,54,118,56.5,118.8,57.9z M114.9,50.3l0.2,0.3
	c-1,2.4-2.6,5.4-3.5,7.2c-1-1.8-2.6-4.9-3.6-7.3l0.1-0.2c0.3-0.5,2.6-3.8,3.9-6.4C112.9,46.6,114.6,49.8,114.9,50.3z M104.3,56.8
	c0.9-1.4,2.1-3.3,3.1-5.1c0,0,0.1,0,0.1,0c1.2,2.8,2.9,5.9,3.5,6.9c-0.9,2.1-2.1,4.5-3,6C106.8,62.6,105,59,104.3,56.8z M109.7,63.3
	c0.6-1.1,1.2-2.4,1.8-3.7l0,0.1l0.1-0.1c0.1,0,0.2-0.1,0.3-0.1c1,2.2,2.3,4.6,2.9,5.7c-0.7,1.5-1.6,3.3-2.2,4.5
	C111.6,67.9,110.2,65,109.7,63.3z M115.7,72.5c-0.5-0.9-1.2-2.3-1.8-3.6c0.4-0.8,1-1.9,1.4-2.9l0.5-0.2c0.5,1.2,1.1,2.4,1.6,3.3
	C116.9,70.4,116.2,71.6,115.7,72.5z M118.7,69.6c-0.7-1.2-1.6-3.1-2.3-4.7c0.7-1.2,1.9-3.5,2.8-5.6c0.1,0,0.3,0,0.4,0.1
	c0.6,1.4,1.4,2.9,2,4.1C120.9,65.3,119.5,68,118.7,69.6z M123.1,64.6c-0.8-1.5-2-3.8-2.9-5.8c0.4-0.7,2.3-4.1,3.6-7.1
	c0,0,0.1,0,0.1,0c0.9,1.7,2,3.5,2.9,4.9C126.1,58.8,124.2,62.6,123.1,64.6z M128.6,57.8c-1.4-2.1-3.8-5.9-4.8-8.4
	c0.3-0.8,1.1-3.2,1.7-5.5c2,1.5,5.2,3.1,6.6,3.8C131.9,50,129.7,55.2,128.6,57.8z M125.7,37.1c0.6-0.4,1.3-0.6,2-0.6
	c1.2,0,2.2,0.6,2.9,1.5c0.9,1.3,1.5,6.3,1.8,8.9c-2.3-1.2-6.8-3.6-7.6-4.8C123.7,40.4,124.1,38.2,125.7,37.1z M124.9,33.8
	c-0.8-0.6-3.7,1.5-5.1,2.6c-0.4,0.3-0.6,0.5-0.8,0.6c0.2-0.2,0.1-1.4,0.3-1.8c0.3-0.5,0.8-0.9,1.3-1.2
	C121.9,33.2,123.5,32.8,124.9,33.8z M116,30.8c1.8-1.1,4.7-1.5,6.6-0.5c-1.9,0.3-2.9,0.9-3.5,2.8c-0.5,1.4-1.1,2.6-1.6,4
	c-0.8-1.1-2.5-1.3-3.3-0.1C114.1,34.8,113.9,32,116,30.8z M110.6,31.6c1.9,1.1,2.7,3.7,2.6,5.8c-0.9-0.2-2-0.2-2.9-0.5
	c-1.9-0.7-2-2.7-3.3-4c-0.7-0.7-3.9-1.7-4.7-0.7C104,30.2,108.5,30.3,110.6,31.6z M99.8,39.1c0.6-1.3,1.8-2.1,3.2-2.1
	c0.5,0,1,0.1,1.4,0.3c0.3,0.1,0.6,0.3,0.8,0.5c-0.7,0.7-1.2,1.6-1.3,2.7c-0.1,0.8,0.3,2,0.7,3.4c-1.5,1.5-3.6,3.2-5,4.2
	C99.5,45.6,99.2,40.5,99.8,39.1z"/>
<path id="XMLID_180_" class="st1" d="M237.7,49.9l0.2,0.4c0.8,2.3,1.5,4.1,2.6,7.2c2.2,6.2,4.2,11,6.7,16c1.9,0.5,3.8,0.7,5.8,0.7
	c9.4,0,18-5.5,22-13.9c2.8-5.9,3.1-12.5,0.9-18.6c-2.2-6.1-6.6-11-12.5-13.8c-3.3-1.5-6.8-2.3-10.4-2.3c-9.4,0-18,5.5-22,13.9
	c-2.8,5.9-3.1,12.5-0.9,18.6c2.1,5.8,6.2,10.5,11.6,13.3c-0.8-0.8-1.2-2.7-1.2-2.7s1.1,0.2,2.6,0.9c1.5,0.7,1.4,2.4,1.4,2.4
	s-1,0.1-1.9-0.1c1.2,0.5,2.3,1,3.6,1.3c-2.4-4.8-4.2-9.5-6.3-15.5l-2.2-6.2l-0.4-1.1c-0.1-0.3-0.2-0.6,0.1-0.8
	C237.8,49.3,237.5,49.3,237.7,49.9z M247.2,41.9c0,0,1.1,0.6,2.4,2c1.3,1.4,0.5,3.1,0.5,3.1s-1.5-0.4-2.4-1.3
	C246.7,44.8,247.2,41.9,247.2,41.9z M246.9,37.2c0,0,1.1,0.7,2.3,2.1c1.2,1.4,0.4,3.1,0.4,3.1s-1.5-0.4-2.4-1.4
	C246.4,40.1,246.9,37.2,246.9,37.2z M247.4,46.7c0,0,1.1,0.6,2.4,2c1.3,1.4,0.5,3.1,0.5,3.1s-1.5-0.4-2.4-1.3
	C246.9,49.6,247.4,46.7,247.4,46.7z M247.7,51.2c0,0,1.1,0.6,2.4,2c1.3,1.4,0.5,3.1,0.5,3.1s-1.5-0.4-2.5-1.3
	C247.2,54.1,247.7,51.2,247.7,51.2z M251.3,60.8c0,0-1.6-0.2-2.6-1.1c-1-0.8-0.8-3.8-0.8-3.8s1.2,0.5,2.6,1.8
	C251.9,58.9,251.3,60.8,251.3,60.8z M265.4,52.7c3.1-0.9,6.3,4.3,7.5,6.9c-9.5-7.9-9.2,10.1-17.2,12.3l-0.2-0.4
	c0.2,0.7,0.4,1.4,0.6,2.1c-0.3,0-0.6,0.1-0.9,0.2c-3-10.7-4-18.6-4.7-30l-0.5-7.5l-0.1-1.4c0-0.4,0-0.8,0.4-0.8
	c0.5,0,0.1-0.2,0.1,0.5l0.1,0.4c0.1,2.7,0.3,4.9,0.6,8.6c0.6,9.6,1.5,16.6,3.6,25C255.9,64,261.7,53.7,265.4,52.7z M256,56.1
	c-0.4,1.8-2.3,2.2-2.3,2.2s-0.6-1.5-0.3-2.8c0.2-1.3,2.9-2.6,2.9-2.6S256.4,54.2,256,56.1z M255.3,51.6c-0.4,1.8-2.3,2.2-2.3,2.2
	s-0.6-1.5-0.4-2.8c0.2-1.3,2.8-2.6,2.8-2.6S255.6,49.8,255.3,51.6z M254.8,47c-0.4,1.8-2.4,2.1-2.4,2.1s-0.5-1.5-0.3-2.8
	c0.3-1.3,3-2.5,3-2.5S255.2,45.2,254.8,47z M254.4,42.9c-0.4,1.8-2.3,2.1-2.3,2.1s-0.5-1.5-0.3-2.8c0.3-1.3,3-2.5,3-2.5
	S254.8,41,254.4,42.9z M254.4,38.3c-0.4,1.8-2.4,2.1-2.4,2.1s-0.5-1.5-0.3-2.8c0.3-1.3,2.9-2.5,2.9-2.5S254.8,36.5,254.4,38.3z
	 M254.5,30.8c0,0,0.1,1.3-0.3,3.1c-0.4,1.8-2.4,2.1-2.4,2.1s-0.5-1.5-0.2-2.8C251.8,32,254.5,30.8,254.5,30.8z M252.6,26.8
	c0,0,0.3,1.2,0.1,3.1c-0.2,1.9-2,2.5-2,2.5S250,31,250,29.7C250.1,28.3,252.6,26.8,252.6,26.8z M247.6,28.3c0,0,1,0.8,1.9,2.4
	c1,1.6-0.1,3.2-0.1,3.2s-1.4-0.7-2.1-1.8C246.5,31,247.6,28.3,247.6,28.3z M246.8,32.8c0,0,1.1,0.7,2.3,2.1c1.2,1.4,0.4,3.1,0.4,3.1
	s-1.5-0.4-2.4-1.4C246.2,35.6,246.8,32.8,246.8,32.8z M246.9,64.1c0,0,0.4,1.1,0.5,2.7c0.1,1.6-1.4,2.4-1.4,2.4s-0.8-1.1-1-2.3
	C244.9,65.8,246.9,64.1,246.9,64.1z M245.2,60.5c0,0,0.4,1,0.6,2.7c0.1,1.7-1.4,2.4-1.4,2.4s-0.9-1.1-1-2.2
	C243.3,62.2,245.2,60.5,245.2,60.5z M243.8,56.7c0,0,0.4,1.1,0.5,2.7c0.1,1.6-1.5,2.4-1.5,2.4s-0.8-1.1-0.9-2.3
	C241.8,58.3,243.8,56.7,243.8,56.7z M242.5,53.2c0,0,0.4,1.1,0.4,2.7c0.1,1.6-1.5,2.4-1.5,2.4s-0.8-1.1-0.9-2.3
	C240.5,54.9,242.5,53.2,242.5,53.2z M241.3,49.4c0,0,0.4,1.1,0.5,2.7c0.1,1.7-1.5,2.4-1.5,2.4s-0.8-1.1-0.9-2.3
	C239.3,51,241.3,49.4,241.3,49.4z M240,45.7c0,0,0.4,1.1,0.5,2.7c0.1,1.7-1.5,2.4-1.5,2.4s-0.8-1.1-0.9-2.3
	C238.1,47.3,240,45.7,240,45.7z M233.6,45.2c0,0,1,0.5,2.2,1.6c1.2,1.1,0.6,2.7,0.6,2.7s-1.4-0.2-2.2-1
	C233.4,47.8,233.6,45.2,233.6,45.2z M242.9,68.3c0,0-1.4,0-2.4-0.5c-1-0.6-1.3-3.1-1.3-3.1s1.1,0.3,2.5,1.1
	C243.2,66.6,242.9,68.3,242.9,68.3z M241.5,64.5c0,0-1.4,0-2.4-0.5c-1-0.6-1.3-3.1-1.3-3.1s1.1,0.3,2.5,1.1
	C241.8,62.8,241.5,64.5,241.5,64.5z M240.2,60.5c0,0-1.4,0-2.4-0.5c-1-0.6-1.3-3.1-1.3-3.1s1.1,0.3,2.5,1.1
	C240.5,58.8,240.2,60.5,240.2,60.5z M238.8,56.7c0,0-1.4,0-2.4-0.6c-1-0.6-1.2-3.2-1.2-3.2s1.1,0.3,2.5,1.2
	C239.1,55,238.8,56.7,238.8,56.7z M237.6,53c0,0-1.4,0-2.4-0.6c-1-0.6-1.2-3.2-1.2-3.2s1.1,0.3,2.5,1.2
	C237.9,51.3,237.6,53,237.6,53z M237.2,47.9c0,0-1-1-1.2-2.1c-0.3-1.1,1.5-3,1.5-3s0.5,1,0.9,2.6C238.7,46.9,237.2,47.9,237.2,47.9z
	"/>
<path id="XMLID_28_" class="st1" d="M255.8,70.3c1.4-0.2,2.4-2.4,2.9-3.4l0.5-0.9c1.4-2.7,2.7-5.2,4.5-7.5l0.1-0.1
	c0.7-0.9,1.5-2.2,2.7-2.5c1.1-0.3,3,0.1,3.8,1c-0.9-0.9-2.4-1.9-3.7-1.7c-1.5,0.2-2.5,1.7-3.4,2.8l-0.1,0.1
	c-1.9,2.4-3.2,4.9-4.6,7.6l-0.5,0.9c-0.6,1.1-1.5,3.5-2.9,3.7C255.4,70.3,255.6,70.3,255.8,70.3z"/>
<path id="XMLID_176_" class="st1" d="M34.4,71.7c3.3,1.5,6.8,2.3,10.4,2.3c9.4,0,18-5.5,22-13.9c2.8-5.9,3.1-12.5,0.9-18.6
	c-2.2-6.1-6.6-11-12.5-13.8c-3.3-1.5-6.8-2.3-10.4-2.3c-9.4,0-18,5.5-22,13.9C20,45.2,19.7,51.8,21.9,58
	C24.1,64.1,28.6,69,34.4,71.7z M44.6,29c0,0,11.9,21.2,11.9,27.8c0,6.6-5.3,11.9-11.9,11.9c-6.6,0-11.9-5.3-11.9-11.9
	C32.7,50.2,44.6,29,44.6,29z"/>
<path id="XMLID_25_" class="st1" d="M44.5,66.1c3,0,5.6-1.3,7.4-3.5c-1.3,0.7-2.7,1.2-4.2,1.3c-5.4,0.4-10-3.7-10.4-9.1
	c-0.3-4.2,5-16.2,7.2-21.2c0,0,0-0.1,0-0.1s-9.7,17.3-9.7,22.7S39.1,66.1,44.5,66.1z"/>
<path id="XMLID_150_" class="st1" d="M205.5,60.1c2.2-4.6,2.8-9.7,1.9-14.7c-1.8-0.2-2.2-0.6-2.2-0.6c-0.8-0.9-0.7-2,0.4-2.5
	c0.3-0.1,0.6-0.1,1,0c-0.1-0.2-0.2-0.5-0.2-0.7c-0.5-1.3-1.1-2.6-1.7-3.8c-0.2,0.2-0.4,0.3-0.7,0.4c0,0-0.8,0.3-3.3-0.7
	c-2.5-1-2.9-1.8-2.9-1.8c-0.5-1.1,0-2.4,1.2-2.8c0,0,0.6-0.2,2.4,0.4c-2.1-2.2-4.6-4.1-7.5-5.4c-0.9-0.4-1.8-0.8-2.7-1.1
	c0.1,0.9-0.4,1.8-1.3,2.2c0,0-0.8,0.3-3.3-0.7c-2.5-1-2.9-1.8-2.9-1.8c-0.1-0.3-0.2-0.6-0.2-0.9c-1.4,0-2.9,0.2-4.3,0.4
	c0,0,0.1,0,0.1,0.1c0,0,1,0.6,1.6,3.4c0.7,2.8,0.1,3.8,0.1,3.8c-0.6,1-2,1.3-3,0.7c0,0-1-0.6-1.6-3.4c-0.7-2.8-0.1-3.8-0.1-3.8
	c0,0,0-0.1,0.1-0.1c-1.5,0.5-2.9,1.1-4.3,1.8c0.4,2.1,0,2.8,0,2.8c-0.6,1-1.8,1.2-2.6,0.3c-0.3-0.3-0.3-0.8-0.2-1.4
	c-1.1,0.8-2.1,1.6-3,2.5c0.1,0,0.2,0.1,0.3,0.2c0,0,0.7,0.5,1.4,3.1c0.6,2.6,0.2,3.4,0.2,3.4c-0.6,1-2,1.4-3,0.7
	c0,0-0.7-0.5-1.4-3.1c-0.1-0.4-0.2-0.7-0.2-1.1c-0.8,1.2-1.6,2.4-2.2,3.7c-0.3,0.7-0.6,1.4-0.9,2.1c0,0,0,0,0,0
	c1.2-0.3,2.4,0.3,2.7,1.5c0,0,0.3,1.1-0.9,3.6c-1.3,2.5-2.2,2.8-2.2,2.8c-0.4,0.1-0.7,0.1-1.1,0c0,2.4,0.3,4.8,1,7.1
	c2.6,0.2,3.1,0.8,3.1,0.8c0.8,0.9,0.6,2-0.5,2.5c-0.5,0.2-1,0-1.6-0.3c2.4,5.4,6.5,9.7,11.9,12.3c1.3,0.6,2.6,1.1,3.9,1.5
	c-0.1-0.4-0.1-0.8,0-1.1c0,0,0.3-0.8,2.6-2.2c2.4-1.3,3.2-1.1,3.2-1.1c1.2,0.3,1.8,1.5,1.5,2.7c0,0-0.3,0.8-2.6,2.2
	c-0.2,0.1-0.4,0.2-0.6,0.3c0.8,0.1,1.5,0.1,2.3,0.1c2.5,0,5-0.4,7.4-1.2c-0.4-0.1-0.9-0.3-1.4-0.5c-2.5-1-2.9-1.8-2.9-1.8
	c-0.5-1.1,0-2.4,1.2-2.8c0,0,0.8-0.3,3.3,0.7c2.5,1,2.9,1.8,2.9,1.8c0.2,0.4,0.2,0.9,0.1,1.3C199,69.2,203.1,65.2,205.5,60.1z
	 M201.4,65.5c-0.2,1.2-1.4,1.9-2.5,1.7c0,0-0.9-0.2-2.4-2.5c-1.5-2.3-1.4-3.1-1.4-3.1c0.2-1.2,1.4-1.9,2.5-1.7c0,0,0.9,0.2,2.4,2.5
	C201.6,64.7,201.4,65.5,201.4,65.5z M196.5,54.5c1,0.7,1.2,2,0.4,2.9c0,0-0.5,0.6-3.3,1c-2.8,0.4-3.5-0.1-3.5-0.1
	c-1-0.7-1.2-2-0.4-2.9c0,0,0.5-0.6,3.3-1C195.7,54.1,196.5,54.5,196.5,54.5z M195.3,49.5c0,0,0.7-0.3,3.4,0.6c2.6,0.9,3,1.7,3,1.7
	c0.6,1.1,0.1,2.3-1,2.8c0,0-0.8,0.3-3.4-0.6c-2.6-0.9-3-1.7-3-1.7C193.7,51.3,194.2,50,195.3,49.5z M206,56.2c0,0-0.2,0.7-2.3,2.2
	c-2.1,1.5-2.7,1.4-2.7,1.4c-1.2-0.1-1.9-1.2-1.6-2.4c0,0,0.2-0.7,2.3-2.2c2.1-1.5,2.7-1.4,2.7-1.4C205.6,54,206.3,55.1,206,56.2z
	 M205.6,46.2c1,0.6,1.2,1.9,0.4,2.8c0,0-0.5,0.5-3.2,0.9c-2.7,0.4-3.3,0-3.3,0c-1-0.6-1.2-1.9-0.4-2.8c0,0,0.5-0.5,3.2-0.9
	C205,45.8,205.6,46.2,205.6,46.2z M197.9,41.3c1.8-2.2,2.8-2.2,2.8-2.2c1.2-0.1,2.3,0.8,2.3,2c0,0,0.1,1.1-1.7,3.3
	c-1.8,2.2-2.8,2.2-2.8,2.2c-1.2,0.1-2.3-0.9-2.3-2.1C196.1,44.6,196.1,43.5,197.9,41.3z M191.6,30.4c0.6-1,2-1.4,3-0.7
	c0,0,1,0.6,1.6,3.4c0.7,2.8,0.1,3.8,0.1,3.8c-0.6,1-2,1.4-3,0.7c0,0-1-0.6-1.6-3.4C191,31.3,191.6,30.4,191.6,30.4z M190.6,40
	c0.6-1.1,1.8-1.3,2.6-0.4c0,0,0.6,0.5,1,3.4c0.5,2.9,0.1,3.6,0.1,3.6c-0.6,1.1-1.8,1.3-2.6,0.4c0,0-0.6-0.5-1-3.4
	C190.2,40.7,190.6,40,190.6,40z M173,46.4c0,0,0.6-1,3.4-1.8c2.8-0.8,3.8-0.2,3.8-0.2c1.1,0.6,1.4,1.9,0.8,3c0,0-0.6,1-3.4,1.8
	c-2.8,0.8-3.8,0.2-3.8,0.2C172.7,48.8,172.4,47.4,173,46.4z M173.6,54.1c0,2.9-0.8,3.7-0.8,3.7c-0.8,0.9-2.2,0.9-3.1,0
	c0,0-0.8-0.8-0.8-3.7c0-2.9,0.8-3.7,0.8-3.7c0.8-0.9,2.2-0.9,3.1,0C172.8,50.4,173.6,51.2,173.6,54.1z M178.3,50.2
	c0,0,0.8-0.3,3.3,0.7c2.5,1,2.9,1.8,2.9,1.8c0.5,1.1,0,2.4-1.2,2.8c0,0-0.8,0.3-3.3-0.7c-2.5-1-2.9-1.8-2.9-1.8
	C176.7,51.9,177.2,50.6,178.3,50.2z M184,42.3c-1-2.8-0.5-3.8-0.5-3.8c0.5-1.1,1.8-1.6,2.9-1c0,0,1,0.5,2,3.2c1,2.8,0.5,3.8,0.5,3.8
	c-0.5,1.1-1.8,1.6-2.9,1C186,45.5,185,45.1,184,42.3z M182.5,31c0.2-1.2,1.4-1.9,2.5-1.7c0,0,0.9,0.2,2.4,2.5
	c1.5,2.3,1.4,3.1,1.4,3.1c-0.2,1.2-1.4,1.9-2.5,1.7c0,0-0.9-0.2-2.4-2.5C182.4,31.9,182.5,31,182.5,31z M177.5,36.1
	c0,0,0.9-0.1,3.1,1.5c2.2,1.6,2.3,2.5,2.3,2.5c0.2,1.2-0.6,2.3-1.8,2.4c0,0-0.9,0.1-3.1-1.5c-2.2-1.6-2.3-2.5-2.3-2.5
	C175.4,37.3,176.3,36.2,177.5,36.1z M170.5,35c1.5-2.1,2-2.3,2-2.3c1.2-0.3,2.2,0.5,2.3,1.7c0,0,0.1,0.7-1.5,2.8
	c-1.5,2.1-2,2.3-2,2.3c-1.2,0.3-2.2-0.5-2.3-1.7C169.1,37.9,169,37.2,170.5,35z M165.9,44.9c0,0,0.2-1.1,2.5-2.7
	c2.3-1.6,3.3-1.4,3.3-1.4c1.2,0.2,2,1.4,1.7,2.6c0,0-0.2,1.1-2.5,2.7c-2.3,1.6-3.3,1.4-3.3,1.4C166.4,47.3,165.7,46.1,165.9,44.9z
	 M162.6,54c-1.5-2.3-1.4-3.1-1.4-3.1c0.2-1.2,1.4-1.9,2.5-1.7c0,0,0.9,0.2,2.4,2.5c1.5,2.3,1.4,3.1,1.4,3.1
	c-0.2,1.2-1.4,1.9-2.5,1.7C164.9,56.5,164.1,56.3,162.6,54z M171.3,67c-0.2,1.2-1.4,1.9-2.5,1.7c0,0-0.9-0.2-2.4-2.5
	c-1.5-2.3-1.4-3.1-1.4-3.1c0.2-1.2,1.4-1.9,2.5-1.7c0,0,0.9,0.2,2.4,2.5C171.5,66.1,171.3,67,171.3,67z M171.9,61.5
	c0,0,0.2-0.7,2.3-2.2c2.1-1.5,2.7-1.4,2.7-1.4c1.2,0.1,1.9,1.2,1.6,2.4c0,0-0.2,0.7-2.3,2.2c-2.2,1.5-2.7,1.4-2.7,1.4
	C172.3,63.7,171.6,62.6,171.9,61.5z M180.7,68.4c0,0-0.6,0.6-3.4,0.6c-2.7,0-3.4-0.6-3.4-0.6c-0.9-0.8-0.9-2.2,0-3
	c0,0,0.6-0.6,3.4-0.6c2.7,0,3.4,0.6,3.4,0.6C181.6,66.2,181.6,67.6,180.7,68.4z M185.4,60.9c-1.6,2.3-2.6,2.4-2.6,2.4
	c-1.2,0.2-2.3-0.7-2.5-1.9c0,0-0.2-1.1,1.5-3.4c1.6-2.3,2.6-2.4,2.6-2.4c1.2-0.2,2.3,0.7,2.5,1.9C186.9,57.5,187,58.6,185.4,60.9z
	 M186.8,52.2c-2.3-1.8-2.5-2.8-2.5-2.8c-0.2-1.2,0.6-2.3,1.8-2.4c0,0,0.9-0.1,3.2,1.7c2.3,1.8,2.5,2.8,2.5,2.8
	c0.2,1.2-0.6,2.3-1.8,2.4C190,53.8,189.1,54,186.8,52.2z M193.5,67.9c0,0-0.9,0.1-3.1-1.5c-2.2-1.6-2.3-2.5-2.3-2.5
	c-0.2-1.2,0.6-2.3,1.8-2.4c0,0,0.9-0.1,3.1,1.5c2.2,1.6,2.3,2.5,2.3,2.5C195.5,66.6,194.7,67.7,193.5,67.9z"/>
</svg>
