<?xml version="1.0" encoding="utf-8"?>
<!-- Generator: Adobe Illustrator 19.0.0, SVG Export Plug-In . SVG Version: 6.00 Build 0)  -->
<svg version="1.1" xmlns="http://www.w3.org/2000/svg" xmlns:xlink="http://www.w3.org/1999/xlink" x="0px" y="0px" width="550.6px"
	 height="198.5px" viewBox="0 0 550.6 198.5" style="enable-background:new 0 0 550.6 198.5;" xml:space="preserve">
<style type="text/css">
	.st0{fill:#EDE9CE;}
	.st1{fill:#945348;}
	.st2{fill:#FFFFFF;}
	.st3{font-family:'GillSans';}
	.st4{font-size:20.2336px;}
	.st5{letter-spacing:10;}
	.st6{fill:none;stroke:#000000;stroke-width:0.8444;stroke-miterlimit:10;}
	.st7{fill:#C8AD88;}
	.st8{fill:#CDB592;}
	.st9{fill:none;}
</style>
<g id="Layer_2">
</g>
<g id="Layer_1">
	<rect id="XMLID_668_" x="-765.2" y="8" class="st0" width="510.3" height="175"/>
	<rect id="XMLID_600_" x="827.7" y="8" class="st1" width="510.3" height="175"/>
	<g id="XMLID_29_">
		<path id="XMLID_126_" d="M-664.6,77.1L-664.6,77.1c-0.1,0-18.8-0.9-18.8,7.4v53.9c0,0,1.1,3,18.7,3.1h0.1
			c17.6,0,18.7-3.1,18.7-3.1V84.5C-645.9,76.2-664.6,77.1-664.6,77.1z M-656.5,128c0,1.9-1.5,3.4-3.4,3.4h-9.3
			c-1.9,0-3.4-1.5-3.4-3.4v-4.1c0-1.9,1.5-3.4,3.4-3.4h9.3c1.9,0,3.4,1.5,3.4,3.4V128z M-656.5,105c0,1.9-1.5,3.4-3.4,3.4h-9.3
			c-1.9,0-3.4-1.5-3.4-3.4v-4.1c0-1.9,1.5-3.4,3.4-3.4h9.3c1.9,0,3.4,1.5,3.4,3.4V105z"/>
		<path id="XMLID_119_" d="M-725.1,116.7v1.7h-23.2v-1.7c0-2.1,6.5-2.6,8.4-2.8c0.3,0,0.6-0.2,0.6-0.5v-4.2c0-0.2-0.1-0.3-0.2-0.4
			l-4-3c-0.1-0.1-0.2-0.2-0.2-0.4V93.7c0-0.3,0.3-0.5,0.6-0.5h4.4c0.3,0,0.6-0.2,0.6-0.5v-0.4c0-0.2-0.1-0.3-0.3-0.4l-3.1-1.8
			c-0.2-0.1-0.3-0.3-0.3-0.4V89c0-0.3,0.3-0.5,0.6-0.5h8.8c0.3,0,0.6,0.2,0.6,0.5v0.6c0,0.2-0.1,0.3-0.3,0.4l-3.1,1.8
			c-0.2,0.1-0.3,0.3-0.3,0.4v0.4c0,0.3,0.3,0.5,0.6,0.5h4.4c0.3,0,0.6,0.2,0.6,0.5v11.7c0,0.2-0.1,0.3-0.2,0.4l-4,3
			c-0.1,0.1-0.2,0.2-0.2,0.4v4.2c0,0.3,0.2,0.5,0.6,0.5C-731.6,114-725.1,114.6-725.1,116.7z"/>
		<path id="XMLID_120_" d="M-748.3,119h23.2v24.1c0,0.3-0.3,0.5-0.6,0.5c-0.3,0-0.6-0.2-0.6-0.5V141c0-0.3-0.3-0.5-0.6-0.5h-19.6
			c-0.3,0-0.6,0.2-0.6,0.5v2.1c0,0.3-0.3,0.5-0.6,0.5c-0.3,0-0.6-0.2-0.6-0.5V119z"/>
		
			<rect id="XMLID_102_" x="-696.9" y="48.3" transform="matrix(0.7071 0.7071 -0.7071 0.7071 -136.6362 519.4066)" width="3.1" height="93"/>
		<path id="XMLID_98_" d="M-653,136.8v-2.7h14.9l0,0c0,1.5-1.2,2.7-2.7,2.7H-653z"/>
		<rect id="XMLID_103_" x="-640.9" y="85.7" width="2.7" height="48.4"/>
		<path id="XMLID_104_" d="M-620.8,85.7L-620.8,85.7h-20l0,0c0-1.5,1.2-2.7,2.7-2.7h14.6C-622,83-620.8,84.2-620.8,85.7z"/>
		<rect id="XMLID_28_" x="-623.5" y="85.7" width="2.7" height="28.9"/>
		<path id="XMLID_125_" d="M-547.9,138L-547.9,138c0,1.5-1.2,2.7-2.7,2.7h-26.2V138H-547.9z"/>
		<rect id="XMLID_130_" x="-550.6" y="58.3" width="2.7" height="79.8"/>
		<rect id="XMLID_187_" x="-438.5" y="121.2" width="2.7" height="13.1"/>
		<path id="XMLID_188_" d="M-363.6,45.5L-363.6,45.5l-40.7,0v0c0-1.5,1.2-2.7,2.7-2.7h35.3C-364.8,42.7-363.6,44-363.6,45.5z"/>
		<path id="XMLID_201_" d="M-401.5,134.1v2.7h-34.3c-1.5,0-2.7-1.2-2.7-2.7l0,0H-401.5z"/>
		<path id="XMLID_203_" d="M-495.7,121.2L-495.7,121.2c0,1.5-1.2,2.7-2.7,2.7h-6.6v-2.7H-495.7z"/>
		<path id="XMLID_191_" d="M-472.4,121.1L-472.4,121.1c0,1.5-1.2,2.7-2.7,2.7h-2.8c-1.5,0-2.7-1.2-2.7-2.7l0,0H-472.4z"/>
		<rect id="XMLID_196_" x="-366.3" y="45.3" width="2.7" height="16.6"/>
		<rect id="XMLID_189_" x="-404.3" y="45.3" width="2.7" height="89.1"/>
		<path id="XMLID_186_" d="M-339.5,118.7v-2.7h19.7l0,0c0,1.5-1.2,2.7-2.7,2.7H-339.5z"/>
		<rect id="XMLID_224_" x="-322.5" y="67.3" width="2.7" height="49"/>
		<path id="XMLID_229_" d="M-287.5,67.3L-287.5,67.3l-35,0v0c0-1.5,1.2-2.7,2.7-2.7h29.6C-288.7,64.6-287.5,65.8-287.5,67.3z"/>
		<path id="XMLID_236_" d="M-288.9,81.7L-288.9,81.7c-0.8,0-1.4-0.6-1.4-1.4v-13h2.7v13C-287.5,81.1-288.1,81.7-288.9,81.7z"/>
		<rect id="XMLID_178_" x="-475.1" y="20.6" width="2.7" height="100.4"/>
		<path id="XMLID_183_" d="M-435.8,20.6L-435.8,20.6l-39.3,0v0c0-1.5,1.2-2.7,2.7-2.7h33.9C-437,17.9-435.8,19.1-435.8,20.6z"/>
		<rect id="XMLID_185_" x="-438.5" y="20.6" width="2.7" height="7.7"/>
		<rect id="XMLID_154_" x="-497.1" y="105.9" width="1.5" height="15.2"/>
		<rect id="XMLID_155_" x="-494.8" y="105.9" width="1.5" height="15.2"/>
		<path id="XMLID_136_" d="M-493.3,105.9L-493.3,105.9h-3.8l0,0c0-1,0.8-1.8,1.8-1.8h0.2C-494.1,104.2-493.3,105-493.3,105.9z"/>
		<rect id="XMLID_168_" x="-492.4" y="105.8" width="1.5" height="15.2"/>
		<rect id="XMLID_167_" x="-490" y="105.8" width="1.5" height="15.2"/>
		<path id="XMLID_165_" d="M-488.6,105.9L-488.6,105.9h-3.8l0,0c0-1,0.8-1.8,1.8-1.8h0.2C-489.4,104.1-488.6,104.9-488.6,105.9z"/>
		<path id="XMLID_164_" d="M-490.9,121.1L-490.9,121.1c0,0.9-0.8,1.7-1.7,1.7h-0.5c-0.9,0-1.7-0.8-1.7-1.7v0H-490.9z"/>
		<rect id="XMLID_172_" x="-487.7" y="105.8" width="1.5" height="15.4"/>
		<rect id="XMLID_171_" x="-485.3" y="105.8" width="1.5" height="15.4"/>
		<path id="XMLID_170_" d="M-483.8,105.9L-483.8,105.9h-3.8l0,0c0-1,0.8-1.8,1.8-1.8h0.2C-484.6,104.1-483.8,104.9-483.8,105.9z"/>
		<path id="XMLID_169_" d="M-486.2,121.1L-486.2,121.1c0,0.9-0.8,1.7-1.7,1.7h-0.5c-0.9,0-1.7-0.8-1.7-1.7l0,0H-486.2z"/>
		<rect id="XMLID_177_" x="-482.9" y="105.8" width="1.5" height="15.4"/>
		<rect id="XMLID_176_" x="-480.6" y="105.7" width="1.5" height="15.5"/>
		<path id="XMLID_175_" d="M-479.1,105.9L-479.1,105.9h-3.8l0,0c0-1,0.8-1.8,1.8-1.8h0.2C-479.9,104.1-479.1,104.9-479.1,105.9z"/>
		<path id="XMLID_173_" d="M-481.5,121.1L-481.5,121.1c0,0.9-0.8,1.7-1.7,1.7h-0.5c-0.9,0-1.7-0.8-1.7-1.7l0,0H-481.5z"/>
		<path id="XMLID_131_" d="M-519.4,58.3L-519.4,58.3l-31.2,0v0c0-1.5,1.2-2.7,2.7-2.7h25.7C-520.6,55.6-519.4,56.8-519.4,58.3z"/>
		<rect id="XMLID_128_" x="-522.1" y="58.3" width="2.7" height="14.4"/>
		<path id="XMLID_101_" d="M-664,70.1h-1.1c-0.8,0-1.4-0.6-1.4-1.4v-4.6h3.9v4.6C-662.6,69.5-663.2,70.1-664,70.1z"/>
		<rect id="XMLID_100_" x="-665.7" y="70" width="2.5" height="2.1"/>
		<path id="XMLID_99_" d="M-661.5,77.1h-6.3v-4c0-0.5,0.4-0.9,0.9-0.9h4.5c0.5,0,0.9,0.4,0.9,0.9V77.1z"/>
		
			<ellipse id="XMLID_97_" transform="matrix(0.9493 0.3144 -0.3144 0.9493 -8.6772 209.9807)" cx="-655.3" cy="78.1" rx="4.5" ry="1.5"/>
		
			<ellipse id="XMLID_96_" transform="matrix(0.9493 0.3144 -0.3144 0.9493 -8.4003 210.364)" cx="-656.3" cy="79.1" rx="4.5" ry="1.5"/>
		
			<ellipse id="XMLID_95_" transform="matrix(0.9493 0.3144 -0.3144 0.9493 -8.4933 210.0908)" cx="-655.5" cy="78.7" rx="4.5" ry="1.5"/>
		<rect id="XMLID_94_" x="-678.1" y="138.9" width="2.9" height="6.3"/>
		<rect id="XMLID_93_" x="-656.2" y="138.9" width="2.9" height="6.3"/>
		
			<ellipse id="XMLID_92_" transform="matrix(0.9493 0.3144 -0.3144 0.9493 -8.8108 209.9591)" cx="-655.3" cy="77.7" rx="4.5" ry="1.5"/>
		<g id="XMLID_74_">
			<path id="XMLID_107_" d="M-657.3,100.8v4.1c0,1.4-1.2,2.6-2.6,2.6h-9.3c-1.4,0-2.6-1.2-2.6-2.6v-4.1c0-1.4,1.2-2.6,2.6-2.6h9.3
				C-658.5,98.2-657.3,99.4-657.3,100.8z"/>
		</g>
		<g id="XMLID_73_">
			<path id="XMLID_112_" d="M-657.3,123.9v4.1c0,1.4-1.2,2.6-2.6,2.6h-9.3c-1.4,0-2.6-1.2-2.6-2.6v-4.1c0-1.4,1.2-2.6,2.6-2.6h9.3
				C-658.5,121.3-657.3,122.4-657.3,123.9z"/>
		</g>
		<path id="XMLID_72_" d="M-662.2,66.6l-3.8-3.8c-0.4-0.4-0.4-1.1,0-1.6l0,0c0.4-0.4,1.1-0.4,1.6,0l3.8,3.8c0.4,0.4,0.4,1.1,0,1.6
			l0,0C-661,67-661.7,67-662.2,66.6z"/>
		<path id="XMLID_110_" d="M-561,116.4h-64.3c1.2-5.9,10.4-8.6,18.2-12.4c8.3-4.2,8.9-9.8,9.4-11.2c0.6-1.4,0.9-24.1,0.9-24.1
			c0-1.1,3.6-1,3.6-1s3.6-0.2,3.6,1c0,0,0.4,22.6,0.9,24.1c0.6,1.4,1.1,7.1,9.4,11.2C-571.5,107.8-562.3,110.5-561,116.4z"/>
		<path id="XMLID_153_" d="M-592.4,130.6h-1.6c-0.2,0-0.4,0.2-0.4,0.4v1.6c0,0.2,0.2,0.4,0.4,0.4h1.6c0.2,0,0.4-0.2,0.4-0.4V131
			C-592,130.8-592.2,130.6-592.4,130.6z M-592.4,130.6h-1.6c-0.2,0-0.4,0.2-0.4,0.4v1.6c0,0.2,0.2,0.4,0.4,0.4h1.6
			c0.2,0,0.4-0.2,0.4-0.4V131C-592,130.8-592.2,130.6-592.4,130.6z M-588.8,131h1.3v-4.2c0-0.4-0.3-0.7-0.7-0.7h-10.1
			c-0.4,0-0.7,0.3-0.7,0.7v10.1c0,0.4,0.3,0.7,0.7,0.7h10.1c0.4,0,0.7-0.3,0.7-0.7v-4.2h-1.3c-0.5,0-0.8-0.4-0.8-0.8
			C-589.6,131.3-589.2,131-588.8,131z M-590.9,132.6c0,0.8-0.7,1.5-1.5,1.5h-1.6c-0.8,0-1.5-0.7-1.5-1.5V131c0-0.8,0.7-1.5,1.5-1.5
			h1.6c0.8,0,1.5,0.7,1.5,1.5V132.6z M-592.4,130.6h-1.6c-0.2,0-0.4,0.2-0.4,0.4v1.6c0,0.2,0.2,0.4,0.4,0.4h1.6
			c0.2,0,0.4-0.2,0.4-0.4V131C-592,130.8-592.2,130.6-592.4,130.6z M-625.5,118.5c0,7.5,0,26.7,0,26.7h1.7v-1.6h61.2v1.6h1.7
			c0,0,0-19.2,0-26.7H-625.5z M-585,132.6h-1.4v4.2c0,1-0.8,1.8-1.8,1.8h-10.1c-1,0-1.8-0.8-1.8-1.8v-10.1c0-1,0.8-1.8,1.8-1.8h10.1
			c1,0,1.8,0.8,1.8,1.8v4.2h1.4c0.5,0,0.8,0.4,0.8,0.8C-584.2,132.3-584.5,132.6-585,132.6z M-588.2,126.1h-10.1
			c-0.4,0-0.7,0.3-0.7,0.7v10.1c0,0.4,0.3,0.7,0.7,0.7h10.1c0.4,0,0.7-0.3,0.7-0.7v-4.2h-1.3c-0.5,0-0.8-0.4-0.8-0.8
			c0-0.5,0.4-0.8,0.8-0.8h1.3v-4.2C-587.5,126.4-587.8,126.1-588.2,126.1z M-590.9,132.6c0,0.8-0.7,1.5-1.5,1.5h-1.6
			c-0.8,0-1.5-0.7-1.5-1.5V131c0-0.8,0.7-1.5,1.5-1.5h1.6c0.8,0,1.5,0.7,1.5,1.5V132.6z M-592.4,130.6h-1.6c-0.2,0-0.4,0.2-0.4,0.4
			v1.6c0,0.2,0.2,0.4,0.4,0.4h1.6c0.2,0,0.4-0.2,0.4-0.4V131C-592,130.8-592.2,130.6-592.4,130.6z M-592.4,130.6h-1.6
			c-0.2,0-0.4,0.2-0.4,0.4v1.6c0,0.2,0.2,0.4,0.4,0.4h1.6c0.2,0,0.4-0.2,0.4-0.4V131C-592,130.8-592.2,130.6-592.4,130.6z
			 M-592.4,130.6h-1.6c-0.2,0-0.4,0.2-0.4,0.4v1.6c0,0.2,0.2,0.4,0.4,0.4h1.6c0.2,0,0.4-0.2,0.4-0.4V131
			C-592,130.8-592.2,130.6-592.4,130.6z M-588.8,131h1.3v-4.2c0-0.4-0.3-0.7-0.7-0.7h-10.1c-0.4,0-0.7,0.3-0.7,0.7v10.1
			c0,0.4,0.3,0.7,0.7,0.7h10.1c0.4,0,0.7-0.3,0.7-0.7v-4.2h-1.3c-0.5,0-0.8-0.4-0.8-0.8C-589.6,131.3-589.2,131-588.8,131z
			 M-590.9,132.6c0,0.8-0.7,1.5-1.5,1.5h-1.6c-0.8,0-1.5-0.7-1.5-1.5V131c0-0.8,0.7-1.5,1.5-1.5h1.6c0.8,0,1.5,0.7,1.5,1.5V132.6z
			 M-592.4,130.6h-1.6c-0.2,0-0.4,0.2-0.4,0.4v1.6c0,0.2,0.2,0.4,0.4,0.4h1.6c0.2,0,0.4-0.2,0.4-0.4V131
			C-592,130.8-592.2,130.6-592.4,130.6z"/>
		<path id="XMLID_569_" d="M-749.1,85.7l0.4,0.4l0.3-0.6L-749.1,85.7z M-749.1,85.7l0.4,0.4l0.3-0.6L-749.1,85.7z M-741.7,84
			l-5.2-5.2c-0.4-0.4-1.1-0.4-1.5,0l-0.9,1.3c-1.7,2.3-3.7,4.3-6,5.9l-0.8,0.6c-0.4,0.4-0.4,1.1,0,1.5l5.2,5.2
			c0.4,0.4,1.1,0.4,1.5,0l1.1-1.4c1.8-2.4,4-4.5,6.5-6.2l0.2-0.2C-741.3,85-741.3,84.4-741.7,84z M-750.3,85.4l0.8-0.8l0,0l-0.7,0.1
			l0,0l0.1-0.7l0,0l-0.8,0.8l-0.2-0.2l1.1-1.1l0.2,0.2l-0.1,0.8l0.8-0.1l0.2,0.2l-1.1,1.1L-750.3,85.4z M-749,86.7l0.2-0.4l-0.5-0.5
			l-0.4,0.2l-0.2-0.2l1.5-0.6l0.2,0.2l-0.6,1.6L-749,86.7z M-747.9,87.8l-0.7-0.7l1.1-1.1l0.2,0.2l-0.9,0.9l0.5,0.5L-747.9,87.8z
			 M-746.1,87.8l-0.4-0.4l-0.9,0.9l-0.2-0.2l0.9-0.9l-0.4-0.4l0.2-0.2l1,1L-746.1,87.8z M-748.8,86.1l0.3-0.6l-0.6,0.3L-748.8,86.1z
			 M-749.1,85.7l0.4,0.4l0.3-0.6L-749.1,85.7z M-749.1,85.7l0.4,0.4l0.3-0.6L-749.1,85.7z"/>
		<path id="XMLID_166_" d="M-759.1,87.3c0,0,1.4-1.8,3.2,0C-757.7,89.1-759.1,87.3-759.1,87.3z"/>
		<path id="XMLID_158_" d="M-750.3,96c0,0-1.8-1.4,0-3.2C-748.5,94.6-750.3,96-750.3,96z"/>
		<path id="XMLID_159_" d="M-747.5,79.7c0,0-1.8-1.4,0-3.2C-745.7,78.3-747.5,79.7-747.5,79.7z"/>
		<path id="XMLID_157_" d="M-732.7,88.5c0-6.2-10.9-6.4-10.9-6.4l2.5,3.2c0,0,1.2,2.7,0.3,3.2"/>
		<path id="XMLID_162_" d="M-503.9,75.9V77h-34v-1.2c0-4.8,17-4.6,17-4.6S-503.9,71.1-503.9,75.9z"/>
		<path id="XMLID_151_" d="M-513.8,104.1c0,3.9-3.1,7-7,7c-3.9,0-7-3.1-7-7c0-3.9,3.1-7,7-7C-517,97.1-513.8,100.2-513.8,104.1z"/>
		<path id="XMLID_163_" d="M-520.8,95.7c-4.6,0-8.4,3.8-8.4,8.4c0,4.6,3.8,8.4,8.4,8.4c4.6,0,8.4-3.8,8.4-8.4
			C-512.5,99.5-516.2,95.7-520.8,95.7z M-520.8,112c-4.4,0-8-3.6-8-8c0-4.4,3.6-8,8-8s8,3.6,8,8C-512.9,108.5-516.4,112-520.8,112z"
			/>
		<path id="XMLID_174_" d="M-537.8,78.6v67h1.6v-16.2c0-1.2,1.3-1.8,2.3-1.1c2.1,1.5,6,3.2,13.1,3.2s11-1.7,13.1-3.2
			c0.9-0.7,2.3-0.1,2.3,1.1v16.2h1.6v-67H-537.8z M-520.8,113.6c-5.2,0-9.5-4.3-9.5-9.5c0-5.2,4.3-9.5,9.5-9.5
			c5.2,0,9.5,4.3,9.5,9.5C-511.3,109.3-515.6,113.6-520.8,113.6z"/>
		<rect id="XMLID_122_" x="-524.4" y="67.7" width="7.1" height="7.1"/>
		<path id="XMLID_190_" d="M-410.2,42.7h-53.8c2.4-9.6,22.6-12.6,22.6-12.6v-0.8c0-0.6,0.5-1.2,1.2-1.2h6.2c0.6,0,1.2,0.5,1.2,1.2
			v0.8C-432.9,30.1-412.7,33.1-410.2,42.7z"/>
		<path id="XMLID_289_" d="M-464.3,45.3v99.6h3.3v-37.6c0-0.8,1-1.2,1.5-0.6l16.7,18.5c1.5,1.6,3.5,2.5,5.7,2.5
			c2.2,0,4.2-0.9,5.7-2.5l16.7-18.5c0.5-0.6,1.5-0.2,1.5,0.6v37.6h3.3V45.3H-464.3z M-437.1,99.7c-6.5,0-11.8-5.3-11.8-11.8
			c0-6.5,5.3-11.8,11.8-11.8c6.5,0,11.8,5.3,11.8,11.8C-425.4,94.4-430.6,99.7-437.1,99.7z"/>
		<path id="XMLID_232_" d="M-437.1,77.2c-5.9,0-10.7,4.8-10.7,10.7c0,5.9,4.8,10.7,10.7,10.7c5.9,0,10.7-4.8,10.7-10.7
			C-426.4,82-431.2,77.2-437.1,77.2z M-429,82.8l0.4,0.6l-2.1,1.2l-0.4-0.6L-429,82.8z M-432.6,79.4l0.6,0.4l-1.2,2.1l-0.6-0.4
			L-432.6,79.4z M-437.5,78.3h0.7v2.4h-0.7V78.3z M-446.8,87.5h2.4v0.7h-2.4V87.5z M-445.3,93l-0.4-0.6l2.1-1.2l0.4,0.6L-445.3,93z
			 M-443.6,84.6l-2.1-1.2l0.4-0.6l2.1,1.2L-443.6,84.6z M-441.6,96.4l-0.6-0.4l1.2-2.1l0.6,0.4L-441.6,96.4z M-441.1,81.8l-1.2-2.1
			l0.6-0.4l1.2,2.1L-441.1,81.8z M-438.1,89.4l-0.2-0.4c-0.2-0.3-0.2-0.7,0-1l3.1-6.5l-0.8,6.7l5,2.5l-6.4-0.9
			c-0.2,0-0.4-0.1-0.6-0.3C-438,89.6-438.1,89.5-438.1,89.4z M-436.8,97.5h-0.7v-2.4h0.7V97.5z M-432.6,96.4l-1.2-2.1l0.6-0.4
			l1.2,2.1L-432.6,96.4z M-429,93l-2.1-1.2l0.4-0.6l2.1,1.2L-429,93z M-429.9,88.3v-0.7h2.4v0.7H-429.9z"/>
		<g id="XMLID_200_">
			<path id="XMLID_193_" d="M-436.6,88.6c0,0.3-0.3,0.6-0.6,0.6c-0.3,0-0.6-0.3-0.6-0.6s0.3-0.6,0.6-0.6
				C-436.8,88-436.6,88.2-436.6,88.6z"/>
		</g>
		<path id="XMLID_199_" d="M-339.5,60.7v9.7H-390v-9.7c0-6.6,25.2-6.3,25.2-6.3S-339.5,54.1-339.5,60.7z"/>
		<path id="XMLID_227_" d="M-390,72.6v50.1h50.5V72.6H-390z M-364.8,119.3c-4.7,0-8.5-3.8-8.5-8.5s3.8-8.5,8.5-8.5
			c4.7,0,8.5,3.8,8.5,8.5S-360.1,119.3-364.8,119.3z"/>
		<path id="XMLID_197_" d="M-358.3,110.8c0,3.6-2.9,6.5-6.5,6.5c-3.6,0-6.5-2.9-6.5-6.5c0-3.6,2.9-6.5,6.5-6.5
			C-361.2,104.3-358.3,107.2-358.3,110.8z"/>
		<path id="XMLID_198_" d="M-339.5,124.8v19.7h-2.4v-12.9c0-0.9-1.1-1.3-1.8-0.7c-2.5,2.3-8.3,5.6-21.1,5.6
			c-12.8,0-18.6-3.3-21.1-5.6c-0.7-0.6-1.8-0.2-1.8,0.7v12.9h-2.4v-19.7H-339.5z"/>
		<path id="XMLID_311_" d="M-308.8,122.8c0.9,0,1.5,0.1,1.7,0.2c-0.3,0.1-0.9,0.2-1.7,0.2c-0.9,0-1.5-0.1-1.7-0.2
			C-310.3,122.9-309.7,122.8-308.8,122.8z"/>
		<path id="XMLID_314_" d="M-316.7,123.1c0,0.2,0.1,0.4,0.2,0.5l0,0c1.5,1.4,15.1,2.1,15.1-0.5
			C-301.7,120.5-316.3,120.4-316.7,123.1z M-308.8,123.7c-0.6,0-2.3,0-2.3-0.7c0-0.7,1.8-0.7,2.3-0.7c0.5,0,2.3,0,2.3,0.7
			C-306.5,123.6-308.3,123.7-308.8,123.7z"/>
		<path id="XMLID_238_" d="M-301.4,124.2v5.1c0,0.7-0.4,1.2-1,1.5c-1,0.4-3,0.8-6.6,0.8c-3.6,0-5.6-0.4-6.6-0.8
			c-0.6-0.2-1-0.8-1-1.5v-5.1c0,0.1,0.1,0.1,0.2,0.2c1.4,1.3,6.7,1.2,7.4,1.1c0.1,0,0.1,0,0.1,0c0.2,0,0.7,0,1.4,0
			c1.9,0,5-0.2,6-1.2C-301.5,124.4-301.4,124.3-301.4,124.2z"/>
		<path id="XMLID_237_" d="M-309,132.2c4.1,0,6.3-0.5,7.5-1c0.2-0.1,0.5,0.1,0.5,0.3v6.5c0,0.1,0,0.2-0.1,0.3
			c-0.6,0.5-2.5,1.4-7.8,1.4c-5.3,0-7.2-0.9-7.8-1.3c-0.1-0.1-0.1-0.2-0.1-0.3v-6.5c0-0.2,0.3-0.4,0.5-0.3
			C-315.3,131.7-313.1,132.2-309,132.2z"/>
		<path id="XMLID_228_" d="M-309,140.1c4.1,0,6.2-0.5,7.3-1c0.2-0.1,0.3,0,0.3,0.2v4.2c0,0,0,0.1,0,0.1c-0.1,0.3-1.1,1.7-7.6,1.7
			c-6.6,0-7.5-1.4-7.6-1.7c0,0,0-0.1,0-0.1v-4.2c0-0.2,0.2-0.3,0.3-0.2C-315.2,139.6-313.1,140.1-309,140.1z"/>
		<path id="XMLID_288_" d="M-290.2,122.8c0.9,0,1.5,0.1,1.7,0.2c-0.3,0.1-0.9,0.2-1.7,0.2c-0.9,0-1.5-0.1-1.7-0.2
			C-291.7,122.9-291.1,122.8-290.2,122.8z"/>
		<path id="XMLID_284_" d="M-298.1,123.1c0,0.2,0.1,0.4,0.2,0.5l0,0c1.5,1.4,15.1,2.1,15.1-0.5
			C-283.1,120.5-297.7,120.4-298.1,123.1z M-290.2,123.7c-0.6,0-2.3,0-2.3-0.7c0-0.7,1.8-0.7,2.3-0.7c0.5,0,2.3,0,2.3,0.7
			C-287.9,123.6-289.7,123.7-290.2,123.7z"/>
		<path id="XMLID_282_" d="M-282.8,124.2v5.1c0,0.7-0.4,1.2-1,1.5c-1,0.4-3,0.8-6.6,0.8c-3.6,0-5.6-0.4-6.6-0.8
			c-0.6-0.2-1-0.8-1-1.5v-5.1c0,0.1,0.1,0.1,0.2,0.2c1.4,1.3,6.7,1.2,7.4,1.1c0.1,0,0.1,0,0.1,0c0.2,0,0.7,0,1.4,0
			c1.9,0,5-0.2,6-1.2C-282.9,124.4-282.9,124.3-282.8,124.2z"/>
		<path id="XMLID_279_" d="M-290.4,132.2c4.1,0,6.3-0.5,7.5-1c0.2-0.1,0.5,0.1,0.5,0.3v6.5c0,0.1,0,0.2-0.1,0.3
			c-0.6,0.5-2.5,1.4-7.8,1.4c-5.3,0-7.2-0.9-7.8-1.3c-0.1-0.1-0.1-0.2-0.1-0.3v-6.5c0-0.2,0.3-0.4,0.5-0.3
			C-296.7,131.7-294.5,132.2-290.4,132.2z"/>
		<path id="XMLID_278_" d="M-290.4,140.1c4.1,0,6.2-0.5,7.3-1c0.2-0.1,0.3,0,0.3,0.2v4.2c0,0,0,0.1,0,0.1c-0.1,0.3-1.1,1.7-7.6,1.7
			c-6.6,0-7.5-1.4-7.6-1.7c0,0,0-0.1,0-0.1v-4.2c0-0.2,0.2-0.3,0.3-0.2C-296.6,139.6-294.5,140.1-290.4,140.1z"/>
		<path id="XMLID_333_" d="M-299.3,102.3c0.9,0,1.5,0.1,1.7,0.2c-0.3,0.1-0.9,0.2-1.7,0.2c-0.9,0-1.5-0.1-1.7-0.2
			C-300.8,102.4-300.2,102.3-299.3,102.3z"/>
		<path id="XMLID_330_" d="M-307.2,102.6c0,0.2,0.1,0.4,0.2,0.5l0,0c1.5,1.4,15.1,2.1,15.1-0.5C-292.2,100-306.8,100-307.2,102.6z
			 M-299.3,103.2c-0.6,0-2.3,0-2.3-0.7c0-0.7,1.8-0.7,2.3-0.7c0.5,0,2.3,0,2.3,0.7C-297,103.2-298.8,103.2-299.3,103.2z"/>
		<path id="XMLID_329_" d="M-291.9,103.8l0,5.1c0,0.7-0.4,1.2-1,1.5c-1,0.4-3,0.8-6.6,0.8c-3.6,0-5.6-0.4-6.6-0.8
			c-0.6-0.2-1-0.8-1-1.5v-5.1c0,0.1,0.1,0.1,0.2,0.2c1.4,1.3,6.7,1.2,7.4,1.1c0.1,0,0.1,0,0.1,0c0.2,0,0.7,0,1.4,0
			c1.9,0,5-0.2,6-1.2C-292,103.9-291.9,103.8-291.9,103.8z"/>
		<path id="XMLID_327_" d="M-299.5,111.8c4.1,0,6.3-0.5,7.5-1c0.2-0.1,0.5,0.1,0.5,0.3v6.5c0,0.1,0,0.2-0.1,0.3
			c-0.6,0.5-2.5,1.4-7.8,1.4c-5.3,0-7.2-0.9-7.8-1.3c-0.1-0.1-0.1-0.2-0.1-0.3V111c0-0.2,0.3-0.4,0.5-0.3
			C-305.8,111.3-303.6,111.8-299.5,111.8z"/>
		<path id="XMLID_326_" d="M-299.5,119.7c4.1,0,6.2-0.5,7.3-1c0.2-0.1,0.3,0,0.3,0.2v4.2c0,0,0,0.1,0,0.1c-0.1,0.3-1.1,1.7-7.6,1.7
			c-6.6,0-7.5-1.4-7.6-1.7c0,0,0-0.1,0-0.1v-4.2c0-0.2,0.2-0.3,0.3-0.2C-305.7,119.1-303.6,119.7-299.5,119.7z"/>
		<path id="XMLID_325_" d="M-280.7,102.3c0.9,0,1.5,0.1,1.7,0.2c-0.3,0.1-0.9,0.2-1.7,0.2c-0.9,0-1.5-0.1-1.7-0.2
			C-282.2,102.4-281.6,102.3-280.7,102.3z"/>
		<path id="XMLID_322_" d="M-288.6,102.6c0,0.2,0.1,0.4,0.2,0.5l0,0c1.5,1.4,15.1,2.1,15.1-0.5C-273.6,100-288.2,100-288.6,102.6z
			 M-280.7,103.2c-0.6,0-2.3,0-2.3-0.7c0-0.7,1.8-0.7,2.3-0.7c0.5,0,2.3,0,2.3,0.7C-278.4,103.2-280.2,103.2-280.7,103.2z"/>
		<path id="XMLID_321_" d="M-273.3,103.8l0,5.1c0,0.7-0.4,1.2-1,1.5c-1,0.4-3,0.8-6.6,0.8c-3.6,0-5.6-0.4-6.6-0.8
			c-0.6-0.2-1-0.8-1-1.5v-5.1c0,0.1,0.1,0.1,0.2,0.2c1.4,1.3,6.7,1.2,7.4,1.1c0.1,0,0.1,0,0.1,0c0.2,0,0.7,0,1.4,0
			c1.9,0,5-0.2,6-1.2C-273.4,103.9-273.4,103.8-273.3,103.8z"/>
		<path id="XMLID_320_" d="M-280.9,111.8c4.1,0,6.3-0.5,7.5-1c0.2-0.1,0.5,0.1,0.5,0.3v6.5c0,0.1,0,0.2-0.1,0.3
			c-0.6,0.5-2.5,1.4-7.8,1.4c-5.3,0-7.2-0.9-7.8-1.3c-0.1-0.1-0.1-0.2-0.1-0.3V111c0-0.2,0.3-0.4,0.5-0.3
			C-287.2,111.3-285,111.8-280.9,111.8z"/>
		<path id="XMLID_319_" d="M-280.9,119.7c4.1,0,6.2-0.5,7.3-1c0.2-0.1,0.3,0,0.3,0.2v4.2c0,0,0,0.1,0,0.1c-0.1,0.3-1.1,1.7-7.6,1.7
			c-6.6,0-7.5-1.4-7.6-1.7c0,0,0-0.1,0-0.1v-4.2c0-0.2,0.2-0.3,0.3-0.2C-287.1,119.1-285,119.7-280.9,119.7z"/>
		<path id="XMLID_337_" d="M-296.6,81.6c0,0.2,0.1,0.4,0.2,0.5l0,0c1.5,1.4,15.1,2.1,15.1-0.5C-281.6,78.9-296.2,78.9-296.6,81.6z
			 M-288.7,82.2c-0.6,0-2.3,0-2.3-0.7c0-0.7,1.8-0.7,2.3-0.7c0.5,0,2.3,0,2.3,0.7C-286.3,82.1-288.1,82.2-288.7,82.2z"/>
		<path id="XMLID_336_" d="M-281.2,82.7l0,5.1c0,0.7-0.4,1.2-1,1.5c-1,0.4-3,0.8-6.6,0.8c-3.6,0-5.6-0.4-6.6-0.8
			c-0.6-0.2-1-0.8-1-1.5v-5.1c0,0.1,0.1,0.1,0.2,0.2c1.4,1.3,6.7,1.2,7.4,1.1c0.1,0,0.1,0,0.1,0c0.2,0,0.7,0,1.4,0
			c1.9,0,5-0.2,6-1.2C-281.3,82.8-281.3,82.8-281.2,82.7z"/>
		<path id="XMLID_335_" d="M-288.9,90.7c4.1,0,6.3-0.5,7.5-1c0.2-0.1,0.5,0.1,0.5,0.3v6.5c0,0.1,0,0.2-0.1,0.3
			c-0.6,0.5-2.5,1.4-7.8,1.4c-5.3,0-7.2-0.9-7.8-1.3c-0.1-0.1-0.1-0.2-0.1-0.3V90c0-0.2,0.3-0.4,0.5-0.3
			C-295.1,90.2-293,90.7-288.9,90.7z"/>
		<path id="XMLID_334_" d="M-288.9,98.6c4.1,0,6.2-0.5,7.3-1c0.2-0.1,0.3,0,0.3,0.2v4.2c0,0,0,0.1,0,0.1c-0.1,0.3-1.1,1.7-7.6,1.7
			c-6.6,0-7.5-1.4-7.6-1.7c0,0,0-0.1,0-0.1v-4.2c0-0.2,0.2-0.3,0.3-0.2C-295,98.1-292.9,98.6-288.9,98.6z"/>
		<path id="XMLID_318_" d="M-271.6,122.8c0.9,0,1.5,0.1,1.7,0.2c-0.3,0.1-0.9,0.2-1.7,0.2c-0.9,0-1.5-0.1-1.7-0.2
			C-273.1,122.9-272.5,122.8-271.6,122.8z"/>
		<path id="XMLID_315_" d="M-279.5,123.1c0,0.2,0.1,0.4,0.2,0.5l0,0c1.5,1.4,15.1,2.1,15.1-0.5
			C-264.5,120.5-279.2,120.4-279.5,123.1z M-271.6,123.7c-0.6,0-2.3,0-2.3-0.7c0-0.7,1.8-0.7,2.3-0.7c0.5,0,2.3,0,2.3,0.7
			C-269.3,123.6-271.1,123.7-271.6,123.7z"/>
		<path id="XMLID_310_" d="M-264.2,124.2v5.1c0,0.7-0.4,1.2-1,1.5c-1,0.4-3,0.8-6.6,0.8c-3.6,0-5.6-0.4-6.6-0.8
			c-0.6-0.2-1-0.8-1-1.5l0-5.1c0,0.1,0.1,0.1,0.2,0.2c1.4,1.3,6.7,1.2,7.4,1.1c0.1,0,0.1,0,0.1,0c0.2,0,0.7,0,1.4,0
			c1.9,0,5-0.2,6-1.2C-264.3,124.4-264.3,124.3-264.2,124.2z"/>
		<path id="XMLID_291_" d="M-271.9,132.2c4.1,0,6.3-0.5,7.5-1c0.2-0.1,0.5,0.1,0.5,0.3v6.5c0,0.1,0,0.2-0.1,0.3
			c-0.6,0.5-2.5,1.4-7.8,1.4c-5.3,0-7.2-0.9-7.8-1.3c-0.1-0.1-0.1-0.2-0.1-0.3v-6.5c0-0.2,0.3-0.4,0.5-0.3
			C-278.1,131.7-275.9,132.2-271.9,132.2z"/>
		<path id="XMLID_290_" d="M-271.8,140.1c4.1,0,6.2-0.5,7.3-1c0.2-0.1,0.3,0,0.3,0.2v4.2c0,0,0,0.1,0,0.1c-0.1,0.3-1.1,1.7-7.6,1.7
			c-6.6,0-7.5-1.4-7.6-1.7c0,0,0-0.1,0-0.1v-4.2c0-0.2,0.2-0.3,0.3-0.2C-278,139.6-275.9,140.1-271.8,140.1z"/>
	</g>
	<text id="XMLID_27_" transform="matrix(1 0 0 1 -678.1309 174.0007)" class="st3" style="font-size:17px; letter-spacing:8;">THE BREWING PROCESS</text>
	<g id="XMLID_45_">
		<path id="XMLID_378_" class="st2" d="M122.4,77.1L122.4,77.1c-0.1,0-18.8-0.9-18.8,7.4v53.9c0,0,1.1,3,18.7,3.1h0.1
			c17.6,0,18.7-3.1,18.7-3.1V84.5C141.1,76.2,122.4,77.1,122.4,77.1z M130.4,128c0,1.9-1.5,3.4-3.4,3.4h-9.3c-1.9,0-3.4-1.5-3.4-3.4
			v-4.1c0-1.9,1.5-3.4,3.4-3.4h9.3c1.9,0,3.4,1.5,3.4,3.4V128z M130.4,105c0,1.9-1.5,3.4-3.4,3.4h-9.3c-1.9,0-3.4-1.5-3.4-3.4v-4.1
			c0-1.9,1.5-3.4,3.4-3.4h9.3c1.9,0,3.4,1.5,3.4,3.4V105z"/>
		<path id="XMLID_377_" class="st2" d="M61.8,116.7v1.7H38.6v-1.7c0-2.1,6.5-2.6,8.4-2.8c0.3,0,0.6-0.2,0.6-0.5v-4.2
			c0-0.2-0.1-0.3-0.2-0.4l-4-3c-0.1-0.1-0.2-0.2-0.2-0.4V93.7c0-0.3,0.3-0.5,0.6-0.5h4.4c0.3,0,0.6-0.2,0.6-0.5v-0.4
			c0-0.2-0.1-0.3-0.3-0.4L45.5,90c-0.2-0.1-0.3-0.3-0.3-0.4V89c0-0.3,0.3-0.5,0.6-0.5h8.8c0.3,0,0.6,0.2,0.6,0.5v0.6
			c0,0.2-0.1,0.3-0.3,0.4l-3.1,1.8c-0.2,0.1-0.3,0.3-0.3,0.4v0.4c0,0.3,0.3,0.5,0.6,0.5h4.4c0.3,0,0.6,0.2,0.6,0.5v11.7
			c0,0.2-0.1,0.3-0.2,0.4l-4,3c-0.1,0.1-0.2,0.2-0.2,0.4v4.2c0,0.3,0.2,0.5,0.6,0.5C55.3,114,61.8,114.6,61.8,116.7z"/>
		<path id="XMLID_376_" class="st2" d="M38.6,119h23.2v24.1c0,0.3-0.3,0.5-0.6,0.5c-0.3,0-0.6-0.2-0.6-0.5V141
			c0-0.3-0.3-0.5-0.6-0.5H40.4c-0.3,0-0.6,0.2-0.6,0.5v2.1c0,0.3-0.3,0.5-0.6,0.5c-0.3,0-0.6-0.2-0.6-0.5V119z"/>
		
			<rect id="XMLID_375_" x="90.1" y="48.3" transform="matrix(0.7071 0.7071 -0.7071 0.7071 93.8474 -37.0302)" class="st2" width="3.1" height="93"/>
		<path id="XMLID_374_" class="st2" d="M133.9,136.8v-2.7h14.9l0,0c0,1.5-1.2,2.7-2.7,2.7H133.9z"/>
		<rect id="XMLID_373_" x="146.1" y="85.7" class="st2" width="2.7" height="48.4"/>
		<path id="XMLID_372_" class="st2" d="M166.1,85.7L166.1,85.7h-20l0,0c0-1.5,1.2-2.7,2.7-2.7h14.6C164.9,83,166.1,84.2,166.1,85.7z
			"/>
		<rect id="XMLID_371_" x="163.4" y="85.7" class="st2" width="2.7" height="28.9"/>
		<path id="XMLID_370_" class="st2" d="M239,138L239,138c0,1.5-1.2,2.7-2.7,2.7h-26.2V138H239z"/>
		<rect id="XMLID_369_" x="236.3" y="58.3" class="st2" width="2.7" height="79.8"/>
		<rect id="XMLID_368_" x="348.4" y="121.2" class="st2" width="2.7" height="13.1"/>
		<path id="XMLID_367_" class="st2" d="M423.4,45.5L423.4,45.5l-40.7,0v0c0-1.5,1.2-2.7,2.7-2.7h35.3
			C422.1,42.7,423.4,44,423.4,45.5z"/>
		<path id="XMLID_366_" class="st2" d="M385.4,134.1v2.7h-34.3c-1.5,0-2.7-1.2-2.7-2.7l0,0H385.4z"/>
		<path id="XMLID_365_" class="st2" d="M291.3,121.2L291.3,121.2c0,1.5-1.2,2.7-2.7,2.7h-6.6v-2.7H291.3z"/>
		<path id="XMLID_364_" class="st2" d="M314.6,121.1L314.6,121.1c0,1.5-1.2,2.7-2.7,2.7h-2.8c-1.5,0-2.7-1.2-2.7-2.7l0,0H314.6z"/>
		<rect id="XMLID_363_" x="420.6" y="45.3" class="st2" width="2.7" height="16.6"/>
		<rect id="XMLID_362_" x="382.7" y="45.3" class="st2" width="2.7" height="89.1"/>
		<path id="XMLID_361_" class="st2" d="M447.4,118.7v-2.7h19.7l0,0c0,1.5-1.2,2.7-2.7,2.7H447.4z"/>
		<rect id="XMLID_360_" x="464.4" y="67.3" class="st2" width="2.7" height="49"/>
		<path id="XMLID_359_" class="st2" d="M499.4,67.3L499.4,67.3l-35,0v0c0-1.5,1.2-2.7,2.7-2.7h29.6
			C498.2,64.6,499.4,65.8,499.4,67.3z"/>
		<path id="XMLID_358_" class="st2" d="M498.1,81.7L498.1,81.7c-0.8,0-1.4-0.6-1.4-1.4v-13h2.7v13C499.4,81.1,498.8,81.7,498.1,81.7
			z"/>
		<rect id="XMLID_357_" x="311.8" y="20.6" class="st2" width="2.7" height="100.4"/>
		<path id="XMLID_356_" class="st2" d="M351.1,20.6L351.1,20.6l-39.3,0v0c0-1.5,1.2-2.7,2.7-2.7h33.9
			C349.9,17.9,351.1,19.1,351.1,20.6z"/>
		<rect id="XMLID_355_" x="348.4" y="20.6" class="st2" width="2.7" height="7.7"/>
		<rect id="XMLID_354_" x="289.8" y="105.9" class="st2" width="1.5" height="15.2"/>
		<rect id="XMLID_353_" x="292.2" y="105.9" class="st2" width="1.5" height="15.2"/>
		<path id="XMLID_352_" class="st2" d="M293.6,105.9L293.6,105.9h-3.8l0,0c0-1,0.8-1.8,1.8-1.8h0.2
			C292.8,104.2,293.6,105,293.6,105.9z"/>
		<rect id="XMLID_351_" x="294.5" y="105.8" class="st2" width="1.5" height="15.2"/>
		<rect id="XMLID_350_" x="296.9" y="105.8" class="st2" width="1.5" height="15.2"/>
		<path id="XMLID_349_" class="st2" d="M298.4,105.9L298.4,105.9h-3.8l0,0c0-1,0.8-1.8,1.8-1.8h0.2
			C297.6,104.1,298.4,104.9,298.4,105.9z"/>
		<path id="XMLID_348_" class="st2" d="M296,121.1L296,121.1c0,0.9-0.8,1.7-1.7,1.7h-0.5c-0.9,0-1.7-0.8-1.7-1.7v0H296z"/>
		<rect id="XMLID_347_" x="299.3" y="105.8" class="st2" width="1.5" height="15.4"/>
		<rect id="XMLID_346_" x="301.6" y="105.8" class="st2" width="1.5" height="15.4"/>
		<path id="XMLID_345_" class="st2" d="M303.1,105.9L303.1,105.9h-3.8l0,0c0-1,0.8-1.8,1.8-1.8h0.2
			C302.3,104.1,303.1,104.9,303.1,105.9z"/>
		<path id="XMLID_344_" class="st2" d="M300.7,121.1L300.7,121.1c0,0.9-0.8,1.7-1.7,1.7h-0.5c-0.9,0-1.7-0.8-1.7-1.7l0,0H300.7z"/>
		<rect id="XMLID_343_" x="304" y="105.8" class="st2" width="1.5" height="15.4"/>
		<rect id="XMLID_342_" x="306.4" y="105.7" class="st2" width="1.5" height="15.5"/>
		<path id="XMLID_341_" class="st2" d="M307.8,105.9L307.8,105.9H304l0,0c0-1,0.8-1.8,1.8-1.8h0.2
			C307,104.1,307.8,104.9,307.8,105.9z"/>
		<path id="XMLID_340_" class="st2" d="M305.5,121.1L305.5,121.1c0,0.9-0.8,1.7-1.7,1.7h-0.5c-0.9,0-1.7-0.8-1.7-1.7l0,0H305.5z"/>
		<path id="XMLID_328_" class="st2" d="M267.5,58.3L267.5,58.3l-31.2,0v0c0-1.5,1.2-2.7,2.7-2.7h25.7
			C266.3,55.6,267.5,56.8,267.5,58.3z"/>
		<rect id="XMLID_309_" x="264.8" y="58.3" class="st2" width="2.7" height="14.4"/>
		<path id="XMLID_308_" class="st2" d="M122.9,70.1h-1.1c-0.8,0-1.4-0.6-1.4-1.4v-4.6h3.9v4.6C124.3,69.5,123.7,70.1,122.9,70.1z"/>
		<rect id="XMLID_307_" x="121.2" y="70" class="st2" width="2.5" height="2.1"/>
		<path id="XMLID_306_" class="st2" d="M125.5,77.1h-6.3v-4c0-0.5,0.4-0.9,0.9-0.9h4.5c0.5,0,0.9,0.4,0.9,0.9V77.1z"/>
		
			<ellipse id="XMLID_305_" transform="matrix(0.9493 0.3144 -0.3144 0.9493 31.2291 -37.4332)" class="st2" cx="131.7" cy="78.1" rx="4.5" ry="1.5"/>
		
			<ellipse id="XMLID_304_" transform="matrix(0.9493 0.3144 -0.3144 0.9493 31.506 -37.0499)" class="st2" cx="130.6" cy="79.1" rx="4.5" ry="1.5"/>
		
			<ellipse id="XMLID_303_" transform="matrix(0.9493 0.3144 -0.3144 0.9493 31.413 -37.3231)" class="st2" cx="131.4" cy="78.7" rx="4.5" ry="1.5"/>
		<rect id="XMLID_302_" x="108.8" y="138.9" class="st2" width="2.9" height="6.3"/>
		<rect id="XMLID_301_" x="130.7" y="138.9" class="st2" width="2.9" height="6.3"/>
		
			<ellipse id="XMLID_300_" transform="matrix(0.9493 0.3144 -0.3144 0.9493 31.0955 -37.4548)" class="st2" cx="131.7" cy="77.7" rx="4.5" ry="1.5"/>
		<g id="XMLID_298_">
			<path id="XMLID_299_" class="st2" d="M129.6,100.8v4.1c0,1.4-1.2,2.6-2.6,2.6h-9.3c-1.4,0-2.6-1.2-2.6-2.6v-4.1
				c0-1.4,1.2-2.6,2.6-2.6h9.3C128.4,98.2,129.6,99.4,129.6,100.8z"/>
		</g>
		<g id="XMLID_296_">
			<path id="XMLID_297_" class="st2" d="M129.6,123.9v4.1c0,1.4-1.2,2.6-2.6,2.6h-9.3c-1.4,0-2.6-1.2-2.6-2.6v-4.1
				c0-1.4,1.2-2.6,2.6-2.6h9.3C128.4,121.3,129.6,122.4,129.6,123.9z"/>
		</g>
		<path id="XMLID_295_" class="st2" d="M124.8,66.6l-3.8-3.8c-0.4-0.4-0.4-1.1,0-1.6l0,0c0.4-0.4,1.1-0.4,1.6,0l3.8,3.8
			c0.4,0.4,0.4,1.1,0,1.6l0,0C125.9,67,125.2,67,124.8,66.6z"/>
		<path id="XMLID_294_" class="st2" d="M225.9,116.4h-64.3c1.2-5.9,10.4-8.6,18.2-12.4c8.3-4.2,8.9-9.8,9.4-11.2
			c0.6-1.4,0.9-24.1,0.9-24.1c0-1.1,3.6-1,3.6-1s3.6-0.2,3.6,1c0,0,0.4,22.6,0.9,24.1c0.6,1.4,1.1,7.1,9.4,11.2
			C215.4,107.8,224.7,110.5,225.9,116.4z"/>
		<path id="XMLID_257_" class="st2" d="M194.5,130.6h-1.6c-0.2,0-0.4,0.2-0.4,0.4v1.6c0,0.2,0.2,0.4,0.4,0.4h1.6
			c0.2,0,0.4-0.2,0.4-0.4V131C194.9,130.8,194.7,130.6,194.5,130.6z M194.5,130.6h-1.6c-0.2,0-0.4,0.2-0.4,0.4v1.6
			c0,0.2,0.2,0.4,0.4,0.4h1.6c0.2,0,0.4-0.2,0.4-0.4V131C194.9,130.8,194.7,130.6,194.5,130.6z M198.1,131h1.3v-4.2
			c0-0.4-0.3-0.7-0.7-0.7h-10.1c-0.4,0-0.7,0.3-0.7,0.7v10.1c0,0.4,0.3,0.7,0.7,0.7h10.1c0.4,0,0.7-0.3,0.7-0.7v-4.2h-1.3
			c-0.5,0-0.8-0.4-0.8-0.8C197.3,131.3,197.7,131,198.1,131z M196,132.6c0,0.8-0.7,1.5-1.5,1.5h-1.6c-0.8,0-1.5-0.7-1.5-1.5V131
			c0-0.8,0.7-1.5,1.5-1.5h1.6c0.8,0,1.5,0.7,1.5,1.5V132.6z M194.5,130.6h-1.6c-0.2,0-0.4,0.2-0.4,0.4v1.6c0,0.2,0.2,0.4,0.4,0.4
			h1.6c0.2,0,0.4-0.2,0.4-0.4V131C194.9,130.8,194.7,130.6,194.5,130.6z M161.4,118.5c0,7.5,0,26.7,0,26.7h1.7v-1.6h61.2v1.6h1.7
			c0,0,0-19.2,0-26.7H161.4z M201.9,132.6h-1.4v4.2c0,1-0.8,1.8-1.8,1.8h-10.1c-1,0-1.8-0.8-1.8-1.8v-10.1c0-1,0.8-1.8,1.8-1.8h10.1
			c1,0,1.8,0.8,1.8,1.8v4.2h1.4c0.5,0,0.8,0.4,0.8,0.8C202.7,132.3,202.4,132.6,201.9,132.6z M198.7,126.1h-10.1
			c-0.4,0-0.7,0.3-0.7,0.7v10.1c0,0.4,0.3,0.7,0.7,0.7h10.1c0.4,0,0.7-0.3,0.7-0.7v-4.2h-1.3c-0.5,0-0.8-0.4-0.8-0.8
			c0-0.5,0.4-0.8,0.8-0.8h1.3v-4.2C199.4,126.4,199.1,126.1,198.7,126.1z M196,132.6c0,0.8-0.7,1.5-1.5,1.5h-1.6
			c-0.8,0-1.5-0.7-1.5-1.5V131c0-0.8,0.7-1.5,1.5-1.5h1.6c0.8,0,1.5,0.7,1.5,1.5V132.6z M194.5,130.6h-1.6c-0.2,0-0.4,0.2-0.4,0.4
			v1.6c0,0.2,0.2,0.4,0.4,0.4h1.6c0.2,0,0.4-0.2,0.4-0.4V131C194.9,130.8,194.7,130.6,194.5,130.6z M194.5,130.6h-1.6
			c-0.2,0-0.4,0.2-0.4,0.4v1.6c0,0.2,0.2,0.4,0.4,0.4h1.6c0.2,0,0.4-0.2,0.4-0.4V131C194.9,130.8,194.7,130.6,194.5,130.6z
			 M194.5,130.6h-1.6c-0.2,0-0.4,0.2-0.4,0.4v1.6c0,0.2,0.2,0.4,0.4,0.4h1.6c0.2,0,0.4-0.2,0.4-0.4V131
			C194.9,130.8,194.7,130.6,194.5,130.6z M198.1,131h1.3v-4.2c0-0.4-0.3-0.7-0.7-0.7h-10.1c-0.4,0-0.7,0.3-0.7,0.7v10.1
			c0,0.4,0.3,0.7,0.7,0.7h10.1c0.4,0,0.7-0.3,0.7-0.7v-4.2h-1.3c-0.5,0-0.8-0.4-0.8-0.8C197.3,131.3,197.7,131,198.1,131z
			 M196,132.6c0,0.8-0.7,1.5-1.5,1.5h-1.6c-0.8,0-1.5-0.7-1.5-1.5V131c0-0.8,0.7-1.5,1.5-1.5h1.6c0.8,0,1.5,0.7,1.5,1.5V132.6z
			 M194.5,130.6h-1.6c-0.2,0-0.4,0.2-0.4,0.4v1.6c0,0.2,0.2,0.4,0.4,0.4h1.6c0.2,0,0.4-0.2,0.4-0.4V131
			C194.9,130.8,194.7,130.6,194.5,130.6z"/>
		<path id="XMLID_223_" class="st2" d="M283.1,75.9V77h-34v-1.2c0-4.8,17-4.6,17-4.6S283.1,71.1,283.1,75.9z"/>
		<path id="XMLID_222_" class="st2" d="M273.1,104.1c0,3.9-3.1,7-7,7c-3.9,0-7-3.1-7-7c0-3.9,3.1-7,7-7
			C269.9,97.1,273.1,100.2,273.1,104.1z"/>
		<path id="XMLID_219_" class="st2" d="M266.1,95.7c-4.6,0-8.4,3.8-8.4,8.4c0,4.6,3.8,8.4,8.4,8.4c4.6,0,8.4-3.8,8.4-8.4
			C274.4,99.5,270.7,95.7,266.1,95.7z M266.1,112c-4.4,0-8-3.6-8-8c0-4.4,3.6-8,8-8c4.4,0,8,3.6,8,8
			C274.1,108.5,270.5,112,266.1,112z"/>
		<path id="XMLID_215_" class="st2" d="M249.1,78.6v67h1.6v-16.2c0-1.2,1.3-1.8,2.3-1.1c2.1,1.5,6,3.2,13.1,3.2
			c7.1,0,11-1.7,13.1-3.2c0.9-0.7,2.3-0.1,2.3,1.1v16.2h1.6v-67H249.1z M266.1,113.6c-5.2,0-9.5-4.3-9.5-9.5c0-5.2,4.3-9.5,9.5-9.5
			c5.2,0,9.5,4.3,9.5,9.5C275.6,109.3,271.3,113.6,266.1,113.6z"/>
		<rect id="XMLID_214_" x="262.5" y="67.7" class="st2" width="7.1" height="7.1"/>
		<path id="XMLID_213_" class="st2" d="M376.7,42.7h-53.8c2.4-9.6,22.6-12.6,22.6-12.6v-0.8c0-0.6,0.5-1.2,1.2-1.2h6.2
			c0.6,0,1.2,0.5,1.2,1.2v0.8C354.1,30.1,374.3,33.1,376.7,42.7z"/>
		<path id="XMLID_209_" class="st2" d="M322.6,45.3v99.6h3.3v-37.6c0-0.8,1-1.2,1.5-0.6l16.7,18.5c1.5,1.6,3.5,2.5,5.7,2.5
			c2.2,0,4.2-0.9,5.7-2.5l16.7-18.5c0.5-0.6,1.5-0.2,1.5,0.6v37.6h3.3V45.3H322.6z M349.8,99.7c-6.5,0-11.8-5.3-11.8-11.8
			c0-6.5,5.3-11.8,11.8-11.8c6.5,0,11.8,5.3,11.8,11.8C361.6,94.4,356.3,99.7,349.8,99.7z"/>
		<path id="XMLID_127_" class="st2" d="M349.8,77.2c-5.9,0-10.7,4.8-10.7,10.7c0,5.9,4.8,10.7,10.7,10.7c5.9,0,10.7-4.8,10.7-10.7
			C360.5,82,355.7,77.2,349.8,77.2z M357.9,82.8l0.4,0.6l-2.1,1.2l-0.4-0.6L357.9,82.8z M354.3,79.4l0.6,0.4l-1.2,2.1l-0.6-0.4
			L354.3,79.4z M349.4,78.3h0.7v2.4h-0.7V78.3z M340.1,87.5h2.4v0.7h-2.4V87.5z M341.6,93l-0.4-0.6l2.1-1.2l0.4,0.6L341.6,93z
			 M343.3,84.6l-2.1-1.2l0.4-0.6l2.1,1.2L343.3,84.6z M345.3,96.4l-0.6-0.4l1.2-2.1l0.6,0.4L345.3,96.4z M345.8,81.8l-1.2-2.1
			l0.6-0.4l1.2,2.1L345.8,81.8z M348.8,89.4l-0.2-0.4c-0.2-0.3-0.2-0.7,0-1l3.1-6.5l-0.8,6.7l5,2.5l-6.4-0.9c-0.2,0-0.4-0.1-0.6-0.3
			C348.9,89.6,348.8,89.5,348.8,89.4z M350.1,97.5h-0.7v-2.4h0.7V97.5z M354.3,96.4l-1.2-2.1l0.6-0.4l1.2,2.1L354.3,96.4z M357.9,93
			l-2.1-1.2l0.4-0.6l2.1,1.2L357.9,93z M357,88.3v-0.7h2.4v0.7H357z"/>
		<g id="XMLID_111_">
			<path id="XMLID_113_" class="st2" d="M350.3,88.6c0,0.3-0.3,0.6-0.6,0.6c-0.3,0-0.6-0.3-0.6-0.6s0.3-0.6,0.6-0.6
				C350.1,88,350.3,88.2,350.3,88.6z"/>
		</g>
		<path id="XMLID_109_" class="st2" d="M447.4,60.7v9.7h-50.5v-9.7c0-6.6,25.2-6.3,25.2-6.3S447.4,54.1,447.4,60.7z"/>
		<path id="XMLID_105_" class="st2" d="M396.9,72.6v50.1h50.5V72.6H396.9z M422.1,119.3c-4.7,0-8.5-3.8-8.5-8.5s3.8-8.5,8.5-8.5
			c4.7,0,8.5,3.8,8.5,8.5S426.8,119.3,422.1,119.3z"/>
		<path id="XMLID_91_" class="st2" d="M428.6,110.8c0,3.6-2.9,6.5-6.5,6.5c-3.6,0-6.5-2.9-6.5-6.5c0-3.6,2.9-6.5,6.5-6.5
			C425.7,104.3,428.6,107.2,428.6,110.8z"/>
		<path id="XMLID_90_" class="st2" d="M447.4,124.8v19.7H445v-12.9c0-0.9-1.1-1.3-1.8-0.7c-2.5,2.3-8.3,5.6-21.1,5.6
			c-12.8,0-18.6-3.3-21.1-5.6c-0.7-0.6-1.8-0.2-1.8,0.7v12.9h-2.4v-19.7H447.4z"/>
		<path id="XMLID_89_" class="st2" d="M478.1,122.8c0.9,0,1.5,0.1,1.7,0.2c-0.3,0.1-0.9,0.2-1.7,0.2c-0.9,0-1.5-0.1-1.7-0.2
			C476.6,122.9,477.2,122.8,478.1,122.8z"/>
		<path id="XMLID_86_" class="st2" d="M470.2,123.1c0,0.2,0.1,0.4,0.2,0.5l0,0c1.5,1.4,15.1,2.1,15.1-0.5
			C485.2,120.5,470.6,120.4,470.2,123.1z M478.1,123.7c-0.6,0-2.3,0-2.3-0.7c0-0.7,1.8-0.7,2.3-0.7c0.5,0,2.3,0,2.3,0.7
			C480.5,123.6,478.7,123.7,478.1,123.7z"/>
		<path id="XMLID_85_" class="st2" d="M485.5,124.2l0,5.1c0,0.7-0.4,1.2-1,1.5c-1,0.4-3,0.8-6.6,0.8c-3.6,0-5.6-0.4-6.6-0.8
			c-0.6-0.2-1-0.8-1-1.5v-5.1c0,0.1,0.1,0.1,0.2,0.2c1.4,1.3,6.7,1.2,7.4,1.1c0.1,0,0.1,0,0.1,0c0.2,0,0.7,0,1.4,0
			c1.9,0,5-0.2,6-1.2C485.4,124.4,485.5,124.3,485.5,124.2z"/>
		<path id="XMLID_84_" class="st2" d="M477.9,132.2c4.1,0,6.3-0.5,7.5-1c0.2-0.1,0.5,0.1,0.5,0.3v6.5c0,0.1,0,0.2-0.1,0.3
			c-0.6,0.5-2.5,1.4-7.8,1.4c-5.3,0-7.2-0.9-7.8-1.3c-0.1-0.1-0.1-0.2-0.1-0.3v-6.5c0-0.2,0.3-0.4,0.5-0.3
			C471.6,131.7,473.8,132.2,477.9,132.2z"/>
		<path id="XMLID_83_" class="st2" d="M477.9,140.1c4.1,0,6.2-0.5,7.3-1c0.2-0.1,0.3,0,0.3,0.2v4.2c0,0,0,0.1,0,0.1
			c-0.1,0.3-1.1,1.7-7.6,1.7c-6.6,0-7.5-1.4-7.6-1.7c0,0,0-0.1,0-0.1v-4.2c0-0.2,0.2-0.3,0.3-0.2
			C471.7,139.6,473.9,140.1,477.9,140.1z"/>
		<path id="XMLID_82_" class="st2" d="M496.7,122.8c0.9,0,1.5,0.1,1.7,0.2c-0.3,0.1-0.9,0.2-1.7,0.2c-0.9,0-1.5-0.1-1.7-0.2
			C495.2,122.9,495.8,122.8,496.7,122.8z"/>
		<path id="XMLID_79_" class="st2" d="M488.8,123.1c0,0.2,0.1,0.4,0.2,0.5l0,0c1.5,1.4,15.1,2.1,15.1-0.5
			C503.8,120.5,489.2,120.4,488.8,123.1z M496.7,123.7c-0.6,0-2.3,0-2.3-0.7c0-0.7,1.8-0.7,2.3-0.7c0.5,0,2.3,0,2.3,0.7
			C499,123.6,497.2,123.7,496.7,123.7z"/>
		<path id="XMLID_78_" class="st2" d="M504.1,124.2l0,5.1c0,0.7-0.4,1.2-1,1.5c-1,0.4-3,0.8-6.6,0.8c-3.6,0-5.6-0.4-6.6-0.8
			c-0.6-0.2-1-0.8-1-1.5v-5.1c0,0.1,0.1,0.1,0.2,0.2c1.4,1.3,6.7,1.2,7.4,1.1c0.1,0,0.1,0,0.1,0c0.2,0,0.7,0,1.4,0
			c1.9,0,5-0.2,6-1.2C504,124.4,504.1,124.3,504.1,124.2z"/>
		<path id="XMLID_77_" class="st2" d="M496.5,132.2c4.1,0,6.3-0.5,7.5-1c0.2-0.1,0.5,0.1,0.5,0.3v6.5c0,0.1,0,0.2-0.1,0.3
			c-0.6,0.5-2.5,1.4-7.8,1.4c-5.3,0-7.2-0.9-7.8-1.3c-0.1-0.1-0.1-0.2-0.1-0.3v-6.5c0-0.2,0.3-0.4,0.5-0.3
			C490.2,131.7,492.4,132.2,496.5,132.2z"/>
		<path id="XMLID_76_" class="st2" d="M496.5,140.1c4.1,0,6.2-0.5,7.3-1c0.2-0.1,0.3,0,0.3,0.2v4.2c0,0,0,0.1,0,0.1
			c-0.1,0.3-1.1,1.7-7.6,1.7c-6.6,0-7.5-1.4-7.6-1.7c0,0,0-0.1,0-0.1v-4.2c0-0.2,0.2-0.3,0.3-0.2
			C490.3,139.6,492.4,140.1,496.5,140.1z"/>
		<path id="XMLID_75_" class="st2" d="M487.6,102.3c0.9,0,1.5,0.1,1.7,0.2c-0.3,0.1-0.9,0.2-1.7,0.2c-0.9,0-1.5-0.1-1.7-0.2
			C486.1,102.4,486.7,102.3,487.6,102.3z"/>
		<path id="XMLID_69_" class="st2" d="M479.7,102.6c0,0.2,0.1,0.4,0.2,0.5l0,0c1.5,1.4,15.1,2.1,15.1-0.5
			C494.7,100,480.1,100,479.7,102.6z M487.6,103.2c-0.6,0-2.3,0-2.3-0.7c0-0.7,1.8-0.7,2.3-0.7c0.5,0,2.3,0,2.3,0.7
			C489.9,103.2,488.2,103.2,487.6,103.2z"/>
		<path id="XMLID_68_" class="st2" d="M495,103.8v5.1c0,0.7-0.4,1.2-1,1.5c-1,0.4-3,0.8-6.6,0.8c-3.6,0-5.6-0.4-6.6-0.8
			c-0.6-0.2-1-0.8-1-1.5l0-5.1c0,0.1,0.1,0.1,0.2,0.2c1.4,1.3,6.7,1.2,7.4,1.1c0.1,0,0.1,0,0.1,0c0.2,0,0.7,0,1.4,0
			c1.9,0,5-0.2,6-1.2C494.9,103.9,495,103.8,495,103.8z"/>
		<path id="XMLID_67_" class="st2" d="M487.4,111.8c4.1,0,6.3-0.5,7.5-1c0.2-0.1,0.5,0.1,0.5,0.3v6.5c0,0.1,0,0.2-0.1,0.3
			c-0.6,0.5-2.5,1.4-7.8,1.4c-5.3,0-7.2-0.9-7.8-1.3c-0.1-0.1-0.1-0.2-0.1-0.3V111c0-0.2,0.3-0.4,0.5-0.3
			C481.1,111.3,483.3,111.8,487.4,111.8z"/>
		<path id="XMLID_66_" class="st2" d="M487.4,119.7c4.1,0,6.2-0.5,7.3-1c0.2-0.1,0.3,0,0.3,0.2v4.2c0,0,0,0.1,0,0.1
			c-0.1,0.3-1.1,1.7-7.6,1.7c-6.6,0-7.5-1.4-7.6-1.7c0,0,0-0.1,0-0.1v-4.2c0-0.2,0.2-0.3,0.3-0.2
			C481.2,119.1,483.3,119.7,487.4,119.7z"/>
		<path id="XMLID_65_" class="st2" d="M506.2,102.3c0.9,0,1.5,0.1,1.7,0.2c-0.3,0.1-0.9,0.2-1.7,0.2c-0.9,0-1.5-0.1-1.7-0.2
			C504.7,102.4,505.3,102.3,506.2,102.3z"/>
		<path id="XMLID_62_" class="st2" d="M498.3,102.6c0,0.2,0.1,0.4,0.2,0.5l0,0c1.5,1.4,15.1,2.1,15.1-0.5
			C513.3,100,498.7,100,498.3,102.6z M506.2,103.2c-0.6,0-2.3,0-2.3-0.7c0-0.7,1.8-0.7,2.3-0.7c0.5,0,2.3,0,2.3,0.7
			C508.5,103.2,506.7,103.2,506.2,103.2z"/>
		<path id="XMLID_61_" class="st2" d="M513.6,103.8v5.1c0,0.7-0.4,1.2-1,1.5c-1,0.4-3,0.8-6.6,0.8c-3.6,0-5.6-0.4-6.6-0.8
			c-0.6-0.2-1-0.8-1-1.5l0-5.1c0,0.1,0.1,0.1,0.2,0.2c1.4,1.3,6.7,1.2,7.4,1.1c0.1,0,0.1,0,0.1,0c0.2,0,0.7,0,1.4,0
			c1.9,0,5-0.2,6-1.2C513.5,103.9,513.6,103.8,513.6,103.8z"/>
		<path id="XMLID_60_" class="st2" d="M506,111.8c4.1,0,6.3-0.5,7.5-1c0.2-0.1,0.5,0.1,0.5,0.3v6.5c0,0.1,0,0.2-0.1,0.3
			c-0.6,0.5-2.5,1.4-7.8,1.4c-5.3,0-7.2-0.9-7.8-1.3c-0.1-0.1-0.1-0.2-0.1-0.3V111c0-0.2,0.3-0.4,0.5-0.3
			C499.7,111.3,501.9,111.8,506,111.8z"/>
		<path id="XMLID_59_" class="st2" d="M506,119.7c4.1,0,6.2-0.5,7.3-1c0.2-0.1,0.3,0,0.3,0.2v4.2c0,0,0,0.1,0,0.1
			c-0.1,0.3-1.1,1.7-7.6,1.7c-6.6,0-7.5-1.4-7.6-1.7c0,0,0-0.1,0-0.1v-4.2c0-0.2,0.2-0.3,0.3-0.2C499.8,119.1,501.9,119.7,506,119.7
			z"/>
		<path id="XMLID_56_" class="st2" d="M490.4,81.6c0,0.2,0.1,0.4,0.2,0.5l0,0c1.5,1.4,15.1,2.1,15.1-0.5
			C505.4,78.9,490.7,78.9,490.4,81.6z M498.3,82.2c-0.6,0-2.3,0-2.3-0.7c0-0.7,1.8-0.7,2.3-0.7c0.5,0,2.3,0,2.3,0.7
			C500.6,82.1,498.8,82.2,498.3,82.2z"/>
		<path id="XMLID_55_" class="st2" d="M505.7,82.7v5.1c0,0.7-0.4,1.2-1,1.5c-1,0.4-3,0.8-6.6,0.8c-3.6,0-5.6-0.4-6.6-0.8
			c-0.6-0.2-1-0.8-1-1.5v-5.1c0,0.1,0.1,0.1,0.2,0.2c1.4,1.3,6.7,1.2,7.4,1.1c0.1,0,0.1,0,0.1,0c0.2,0,0.7,0,1.4,0
			c1.9,0,5-0.2,6-1.2C505.6,82.8,505.6,82.8,505.7,82.7z"/>
		<path id="XMLID_54_" class="st2" d="M498,90.7c4.1,0,6.3-0.5,7.5-1c0.2-0.1,0.5,0.1,0.5,0.3v6.5c0,0.1,0,0.2-0.1,0.3
			c-0.6,0.5-2.5,1.4-7.8,1.4c-5.3,0-7.2-0.9-7.8-1.3c-0.1-0.1-0.1-0.2-0.1-0.3V90c0-0.2,0.3-0.4,0.5-0.3
			C491.8,90.2,494,90.7,498,90.7z"/>
		<path id="XMLID_53_" class="st2" d="M498,98.6c4.1,0,6.2-0.5,7.3-1c0.2-0.1,0.3,0,0.3,0.2v4.2c0,0,0,0.1,0,0.1
			c-0.1,0.3-1.1,1.7-7.6,1.7c-6.6,0-7.5-1.4-7.6-1.7c0,0,0-0.1,0-0.1v-4.2c0-0.2,0.2-0.3,0.3-0.2C491.9,98.1,494,98.6,498,98.6z"/>
		<path id="XMLID_52_" class="st2" d="M515.3,122.8c0.9,0,1.5,0.1,1.7,0.2c-0.3,0.1-0.9,0.2-1.7,0.2c-0.9,0-1.5-0.1-1.7-0.2
			C513.8,122.9,514.4,122.8,515.3,122.8z"/>
		<path id="XMLID_49_" class="st2" d="M507.4,123.1c0,0.2,0.1,0.4,0.2,0.5l0,0c1.5,1.4,15.1,2.1,15.1-0.5
			C522.4,120.5,507.8,120.4,507.4,123.1z M515.3,123.7c-0.6,0-2.3,0-2.3-0.7c0-0.7,1.8-0.7,2.3-0.7c0.5,0,2.3,0,2.3,0.7
			C517.6,123.6,515.8,123.7,515.3,123.7z"/>
		<path id="XMLID_48_" class="st2" d="M522.7,124.2v5.1c0,0.7-0.4,1.2-1,1.5c-1,0.4-3,0.8-6.6,0.8c-3.6,0-5.6-0.4-6.6-0.8
			c-0.6-0.2-1-0.8-1-1.5v-5.1c0,0.1,0.1,0.1,0.2,0.2c1.4,1.3,6.7,1.2,7.4,1.1c0.1,0,0.1,0,0.1,0c0.2,0,0.7,0,1.4,0
			c1.9,0,5-0.2,6-1.2C522.6,124.4,522.6,124.3,522.7,124.2z"/>
		<path id="XMLID_47_" class="st2" d="M515.1,132.2c4.1,0,6.3-0.5,7.5-1c0.2-0.1,0.5,0.1,0.5,0.3v6.5c0,0.1,0,0.2-0.1,0.3
			c-0.6,0.5-2.5,1.4-7.8,1.4c-5.3,0-7.2-0.9-7.8-1.3c-0.1-0.1-0.1-0.2-0.1-0.3v-6.5c0-0.2,0.3-0.4,0.5-0.3
			C508.8,131.7,511,132.2,515.1,132.2z"/>
		<path id="XMLID_46_" class="st2" d="M515.1,140.1c4.1,0,6.2-0.5,7.3-1c0.2-0.1,0.3,0,0.3,0.2v4.2c0,0,0,0.1,0,0.1
			c-0.1,0.3-1.1,1.7-7.6,1.7c-6.6,0-7.5-1.4-7.6-1.7c0,0,0-0.1,0-0.1v-4.2c0-0.2,0.2-0.3,0.3-0.2C508.9,139.6,511,140.1,515.1,140.1
			z"/>
	</g>
	<text id="XMLID_44_" transform="matrix(1 0 0 1 74.6094 185.4897)" class="st2 st3 st4 st5">THE BREWING PROCESS</text>
	<g id="XMLID_397_">
		<path id="XMLID_580_" class="st2" d="M927.8,77.1L927.8,77.1c-0.1,0-18.8-0.9-18.8,7.4v53.9c0,0,1.1,3,18.7,3.1h0.1
			c17.6,0,18.7-3.1,18.7-3.1V84.5C946.5,76.2,927.8,77.1,927.8,77.1z M935.8,128c0,1.9-1.5,3.4-3.4,3.4h-9.3c-1.9,0-3.4-1.5-3.4-3.4
			v-4.1c0-1.9,1.5-3.4,3.4-3.4h9.3c1.9,0,3.4,1.5,3.4,3.4V128z M935.8,105c0,1.9-1.5,3.4-3.4,3.4h-9.3c-1.9,0-3.4-1.5-3.4-3.4v-4.1
			c0-1.9,1.5-3.4,3.4-3.4h9.3c1.9,0,3.4,1.5,3.4,3.4V105z"/>
		<path id="XMLID_579_" class="st2" d="M867.2,116.7v1.7H844v-1.7c0-2.1,6.5-2.6,8.4-2.8c0.3,0,0.6-0.2,0.6-0.5v-4.2
			c0-0.2-0.1-0.3-0.2-0.4l-4-3c-0.1-0.1-0.2-0.2-0.2-0.4V93.7c0-0.3,0.3-0.5,0.6-0.5h4.4c0.3,0,0.6-0.2,0.6-0.5v-0.4
			c0-0.2-0.1-0.3-0.3-0.4l-3.1-1.8c-0.2-0.1-0.3-0.3-0.3-0.4V89c0-0.3,0.3-0.5,0.6-0.5h8.8c0.3,0,0.6,0.2,0.6,0.5v0.6
			c0,0.2-0.1,0.3-0.3,0.4l-3.1,1.8c-0.2,0.1-0.3,0.3-0.3,0.4v0.4c0,0.3,0.3,0.5,0.6,0.5h4.4c0.3,0,0.6,0.2,0.6,0.5v11.7
			c0,0.2-0.1,0.3-0.2,0.4l-4,3c-0.1,0.1-0.2,0.2-0.2,0.4v4.2c0,0.3,0.2,0.5,0.6,0.5C860.7,114,867.2,114.6,867.2,116.7z"/>
		<path id="XMLID_578_" class="st2" d="M844,119h23.2v24.1c0,0.3-0.3,0.5-0.6,0.5c-0.3,0-0.6-0.2-0.6-0.5V141c0-0.3-0.3-0.5-0.6-0.5
			h-19.6c-0.3,0-0.6,0.2-0.6,0.5v2.1c0,0.3-0.3,0.5-0.6,0.5c-0.3,0-0.6-0.2-0.6-0.5V119z"/>
		
			<rect id="XMLID_577_" x="895.5" y="48.3" transform="matrix(0.7071 0.7071 -0.7071 0.7071 329.7438 -606.5344)" class="st2" width="3.1" height="93"/>
		<path id="XMLID_576_" class="st2" d="M939.3,136.8v-2.7h14.9l0,0c0,1.5-1.2,2.7-2.7,2.7H939.3z"/>
		<rect id="XMLID_575_" x="951.5" y="85.7" class="st2" width="2.7" height="48.4"/>
		<path id="XMLID_574_" class="st2" d="M971.5,85.7L971.5,85.7h-20l0,0c0-1.5,1.2-2.7,2.7-2.7h14.6C970.3,83,971.5,84.2,971.5,85.7z
			"/>
		<rect id="XMLID_573_" x="968.8" y="85.7" class="st2" width="2.7" height="28.9"/>
		<path id="XMLID_572_" class="st2" d="M1044.4,138L1044.4,138c0,1.5-1.2,2.7-2.7,2.7h-26.2V138H1044.4z"/>
		<rect id="XMLID_571_" x="1041.7" y="58.3" class="st2" width="2.7" height="79.8"/>
		<rect id="XMLID_570_" x="1153.8" y="121.2" class="st2" width="2.7" height="13.1"/>
		<path id="XMLID_568_" class="st2" d="M1228.8,45.5L1228.8,45.5l-40.7,0v0c0-1.5,1.2-2.7,2.7-2.7h35.3
			C1227.5,42.7,1228.8,44,1228.8,45.5z"/>
		<path id="XMLID_567_" class="st2" d="M1190.8,134.1v2.7h-34.3c-1.5,0-2.7-1.2-2.7-2.7l0,0H1190.8z"/>
		<path id="XMLID_566_" class="st2" d="M1096.7,121.2L1096.7,121.2c0,1.5-1.2,2.7-2.7,2.7h-6.6v-2.7H1096.7z"/>
		<path id="XMLID_565_" class="st2" d="M1120,121.1L1120,121.1c0,1.5-1.2,2.7-2.7,2.7h-2.8c-1.5,0-2.7-1.2-2.7-2.7l0,0H1120z"/>
		<rect id="XMLID_564_" x="1226" y="45.3" class="st2" width="2.7" height="16.6"/>
		<rect id="XMLID_563_" x="1188.1" y="45.3" class="st2" width="2.7" height="89.1"/>
		<path id="XMLID_562_" class="st2" d="M1252.8,118.7v-2.7h19.7l0,0c0,1.5-1.2,2.7-2.7,2.7H1252.8z"/>
		<rect id="XMLID_561_" x="1269.8" y="67.3" class="st2" width="2.7" height="49"/>
		<path id="XMLID_560_" class="st2" d="M1304.8,67.3L1304.8,67.3l-35,0v0c0-1.5,1.2-2.7,2.7-2.7h29.6
			C1303.6,64.6,1304.8,65.8,1304.8,67.3z"/>
		<path id="XMLID_559_" class="st2" d="M1303.5,81.7L1303.5,81.7c-0.8,0-1.4-0.6-1.4-1.4v-13h2.7v13
			C1304.8,81.1,1304.2,81.7,1303.5,81.7z"/>
		<rect id="XMLID_558_" x="1117.2" y="20.6" class="st2" width="2.7" height="100.4"/>
		<path id="XMLID_557_" class="st2" d="M1156.5,20.6L1156.5,20.6l-39.3,0v0c0-1.5,1.2-2.7,2.7-2.7h33.9
			C1155.3,17.9,1156.5,19.1,1156.5,20.6z"/>
		<rect id="XMLID_556_" x="1153.8" y="20.6" class="st2" width="2.7" height="7.7"/>
		<rect id="XMLID_555_" x="1095.2" y="105.9" class="st2" width="1.5" height="15.2"/>
		<rect id="XMLID_554_" x="1097.6" y="105.9" class="st2" width="1.5" height="15.2"/>
		<path id="XMLID_553_" class="st2" d="M1099,105.9L1099,105.9h-3.8l0,0c0-1,0.8-1.8,1.8-1.8h0.2C1098.2,104.2,1099,105,1099,105.9z
			"/>
		<rect id="XMLID_552_" x="1099.9" y="105.8" class="st2" width="1.5" height="15.2"/>
		<rect id="XMLID_551_" x="1102.3" y="105.8" class="st2" width="1.5" height="15.2"/>
		<path id="XMLID_550_" class="st2" d="M1103.8,105.9L1103.8,105.9h-3.8l0,0c0-1,0.8-1.8,1.8-1.8h0.2
			C1103,104.1,1103.8,104.9,1103.8,105.9z"/>
		<path id="XMLID_549_" class="st2" d="M1101.4,121.1L1101.4,121.1c0,0.9-0.8,1.7-1.7,1.7h-0.5c-0.9,0-1.7-0.8-1.7-1.7v0H1101.4z"/>
		<rect id="XMLID_548_" x="1104.7" y="105.8" class="st2" width="1.5" height="15.4"/>
		<rect id="XMLID_547_" x="1107" y="105.8" class="st2" width="1.5" height="15.4"/>
		<path id="XMLID_546_" class="st2" d="M1108.5,105.9L1108.5,105.9h-3.8l0,0c0-1,0.8-1.8,1.8-1.8h0.2
			C1107.7,104.1,1108.5,104.9,1108.5,105.9z"/>
		<path id="XMLID_545_" class="st2" d="M1106.1,121.1L1106.1,121.1c0,0.9-0.8,1.7-1.7,1.7h-0.5c-0.9,0-1.7-0.8-1.7-1.7l0,0H1106.1z"
			/>
		<rect id="XMLID_544_" x="1109.4" y="105.8" class="st2" width="1.5" height="15.4"/>
		<rect id="XMLID_543_" x="1111.8" y="105.7" class="st2" width="1.5" height="15.5"/>
		<path id="XMLID_542_" class="st2" d="M1113.2,105.9L1113.2,105.9h-3.8l0,0c0-1,0.8-1.8,1.8-1.8h0.2
			C1112.4,104.1,1113.2,104.9,1113.2,105.9z"/>
		<path id="XMLID_541_" class="st2" d="M1110.9,121.1L1110.9,121.1c0,0.9-0.8,1.7-1.7,1.7h-0.5c-0.9,0-1.7-0.8-1.7-1.7l0,0H1110.9z"
			/>
		<path id="XMLID_540_" class="st2" d="M1072.9,58.3L1072.9,58.3l-31.2,0v0c0-1.5,1.2-2.7,2.7-2.7h25.7
			C1071.7,55.6,1072.9,56.8,1072.9,58.3z"/>
		<rect id="XMLID_539_" x="1070.2" y="58.3" class="st2" width="2.7" height="14.4"/>
		<path id="XMLID_538_" class="st2" d="M928.3,70.1h-1.1c-0.8,0-1.4-0.6-1.4-1.4v-4.6h3.9v4.6C929.7,69.5,929.1,70.1,928.3,70.1z"/>
		<rect id="XMLID_537_" x="926.6" y="70" class="st2" width="2.5" height="2.1"/>
		<path id="XMLID_536_" class="st2" d="M930.9,77.1h-6.3v-4c0-0.5,0.4-0.9,0.9-0.9h4.5c0.5,0,0.9,0.4,0.9,0.9V77.1z"/>
		
			<ellipse id="XMLID_535_" transform="matrix(0.9493 0.3144 -0.3144 0.9493 72.0726 -290.6574)" class="st2" cx="937.1" cy="78.1" rx="4.5" ry="1.5"/>
		
			<ellipse id="XMLID_534_" transform="matrix(0.9493 0.3144 -0.3144 0.9493 72.3494 -290.274)" class="st2" cx="936" cy="79.1" rx="4.5" ry="1.5"/>
		
			<ellipse id="XMLID_533_" transform="matrix(0.9493 0.3144 -0.3144 0.9493 72.2564 -290.5473)" class="st2" cx="936.8" cy="78.7" rx="4.5" ry="1.5"/>
		<rect id="XMLID_532_" x="914.2" y="138.9" class="st2" width="2.9" height="6.3"/>
		<rect id="XMLID_531_" x="936.1" y="138.9" class="st2" width="2.9" height="6.3"/>
		
			<ellipse id="XMLID_530_" transform="matrix(0.9493 0.3144 -0.3144 0.9493 71.939 -290.679)" class="st2" cx="937.1" cy="77.7" rx="4.5" ry="1.5"/>
		<g id="XMLID_528_">
			<path id="XMLID_529_" class="st2" d="M935,100.8v4.1c0,1.4-1.2,2.6-2.6,2.6h-9.3c-1.4,0-2.6-1.2-2.6-2.6v-4.1
				c0-1.4,1.2-2.6,2.6-2.6h9.3C933.8,98.2,935,99.4,935,100.8z"/>
		</g>
		<g id="XMLID_526_">
			<path id="XMLID_527_" class="st2" d="M935,123.9v4.1c0,1.4-1.2,2.6-2.6,2.6h-9.3c-1.4,0-2.6-1.2-2.6-2.6v-4.1
				c0-1.4,1.2-2.6,2.6-2.6h9.3C933.8,121.3,935,122.4,935,123.9z"/>
		</g>
		<path id="XMLID_525_" class="st2" d="M930.2,66.6l-3.8-3.8c-0.4-0.4-0.4-1.1,0-1.6l0,0c0.4-0.4,1.1-0.4,1.6,0l3.8,3.8
			c0.4,0.4,0.4,1.1,0,1.6l0,0C931.3,67,930.6,67,930.2,66.6z"/>
		<path id="XMLID_524_" class="st2" d="M1031.3,116.4H967c1.2-5.9,10.4-8.6,18.2-12.4c8.3-4.2,8.9-9.8,9.4-11.2
			c0.6-1.4,0.9-24.1,0.9-24.1c0-1.1,3.6-1,3.6-1s3.6-0.2,3.6,1c0,0,0.4,22.6,0.9,24.1c0.6,1.4,1.1,7.1,9.4,11.2
			C1020.8,107.8,1030.1,110.5,1031.3,116.4z"/>
		<path id="XMLID_504_" class="st2" d="M999.9,130.6h-1.6c-0.2,0-0.4,0.2-0.4,0.4v1.6c0,0.2,0.2,0.4,0.4,0.4h1.6
			c0.2,0,0.4-0.2,0.4-0.4V131C1000.3,130.8,1000.1,130.6,999.9,130.6z M999.9,130.6h-1.6c-0.2,0-0.4,0.2-0.4,0.4v1.6
			c0,0.2,0.2,0.4,0.4,0.4h1.6c0.2,0,0.4-0.2,0.4-0.4V131C1000.3,130.8,1000.1,130.6,999.9,130.6z M1003.5,131h1.3v-4.2
			c0-0.4-0.3-0.7-0.7-0.7h-10.1c-0.4,0-0.7,0.3-0.7,0.7v10.1c0,0.4,0.3,0.7,0.7,0.7h10.1c0.4,0,0.7-0.3,0.7-0.7v-4.2h-1.3
			c-0.5,0-0.8-0.4-0.8-0.8C1002.7,131.3,1003.1,131,1003.5,131z M1001.4,132.6c0,0.8-0.7,1.5-1.5,1.5h-1.6c-0.8,0-1.5-0.7-1.5-1.5
			V131c0-0.8,0.7-1.5,1.5-1.5h1.6c0.8,0,1.5,0.7,1.5,1.5V132.6z M999.9,130.6h-1.6c-0.2,0-0.4,0.2-0.4,0.4v1.6
			c0,0.2,0.2,0.4,0.4,0.4h1.6c0.2,0,0.4-0.2,0.4-0.4V131C1000.3,130.8,1000.1,130.6,999.9,130.6z M966.8,118.5c0,7.5,0,26.7,0,26.7
			h1.7v-1.6h61.2v1.6h1.7c0,0,0-19.2,0-26.7H966.8z M1007.3,132.6h-1.4v4.2c0,1-0.8,1.8-1.8,1.8h-10.1c-1,0-1.8-0.8-1.8-1.8v-10.1
			c0-1,0.8-1.8,1.8-1.8h10.1c1,0,1.8,0.8,1.8,1.8v4.2h1.4c0.5,0,0.8,0.4,0.8,0.8C1008.1,132.3,1007.8,132.6,1007.3,132.6z
			 M1004.1,126.1h-10.1c-0.4,0-0.7,0.3-0.7,0.7v10.1c0,0.4,0.3,0.7,0.7,0.7h10.1c0.4,0,0.7-0.3,0.7-0.7v-4.2h-1.3
			c-0.5,0-0.8-0.4-0.8-0.8c0-0.5,0.4-0.8,0.8-0.8h1.3v-4.2C1004.8,126.4,1004.5,126.1,1004.1,126.1z M1001.4,132.6
			c0,0.8-0.7,1.5-1.5,1.5h-1.6c-0.8,0-1.5-0.7-1.5-1.5V131c0-0.8,0.7-1.5,1.5-1.5h1.6c0.8,0,1.5,0.7,1.5,1.5V132.6z M999.9,130.6
			h-1.6c-0.2,0-0.4,0.2-0.4,0.4v1.6c0,0.2,0.2,0.4,0.4,0.4h1.6c0.2,0,0.4-0.2,0.4-0.4V131C1000.3,130.8,1000.1,130.6,999.9,130.6z
			 M999.9,130.6h-1.6c-0.2,0-0.4,0.2-0.4,0.4v1.6c0,0.2,0.2,0.4,0.4,0.4h1.6c0.2,0,0.4-0.2,0.4-0.4V131
			C1000.3,130.8,1000.1,130.6,999.9,130.6z M999.9,130.6h-1.6c-0.2,0-0.4,0.2-0.4,0.4v1.6c0,0.2,0.2,0.4,0.4,0.4h1.6
			c0.2,0,0.4-0.2,0.4-0.4V131C1000.3,130.8,1000.1,130.6,999.9,130.6z M1003.5,131h1.3v-4.2c0-0.4-0.3-0.7-0.7-0.7h-10.1
			c-0.4,0-0.7,0.3-0.7,0.7v10.1c0,0.4,0.3,0.7,0.7,0.7h10.1c0.4,0,0.7-0.3,0.7-0.7v-4.2h-1.3c-0.5,0-0.8-0.4-0.8-0.8
			C1002.7,131.3,1003.1,131,1003.5,131z M1001.4,132.6c0,0.8-0.7,1.5-1.5,1.5h-1.6c-0.8,0-1.5-0.7-1.5-1.5V131
			c0-0.8,0.7-1.5,1.5-1.5h1.6c0.8,0,1.5,0.7,1.5,1.5V132.6z M999.9,130.6h-1.6c-0.2,0-0.4,0.2-0.4,0.4v1.6c0,0.2,0.2,0.4,0.4,0.4
			h1.6c0.2,0,0.4-0.2,0.4-0.4V131C1000.3,130.8,1000.1,130.6,999.9,130.6z"/>
		<path id="XMLID_492_" class="st2" d="M843.2,85.7l0.4,0.4l0.3-0.6L843.2,85.7z M843.2,85.7l0.4,0.4l0.3-0.6L843.2,85.7z M850.6,84
			l-5.2-5.2c-0.4-0.4-1.1-0.4-1.5,0l-0.9,1.3c-1.7,2.3-3.7,4.3-6,5.9l-0.8,0.6c-0.4,0.4-0.4,1.1,0,1.5l5.2,5.2
			c0.4,0.4,1.1,0.4,1.5,0l1.1-1.4c1.8-2.4,4-4.5,6.5-6.2l0.2-0.2C851,85,851,84.4,850.6,84z M842,85.4l0.8-0.8l0,0l-0.7,0.1l0,0
			l0.1-0.7l0,0l-0.8,0.8l-0.2-0.2l1.1-1.1l0.2,0.2l-0.1,0.8l0.8-0.1l0.2,0.2l-1.1,1.1L842,85.4z M843.3,86.7l0.2-0.4l-0.5-0.5
			l-0.4,0.2l-0.2-0.2l1.5-0.6l0.2,0.2l-0.6,1.6L843.3,86.7z M844.4,87.8l-0.7-0.7l1.1-1.1l0.2,0.2l-0.9,0.9l0.5,0.5L844.4,87.8z
			 M846.2,87.8l-0.4-0.4l-0.9,0.9l-0.2-0.2l0.9-0.9l-0.4-0.4l0.2-0.2l1,1L846.2,87.8z M843.5,86.1l0.3-0.6l-0.6,0.3L843.5,86.1z
			 M843.2,85.7l0.4,0.4l0.3-0.6L843.2,85.7z M843.2,85.7l0.4,0.4l0.3-0.6L843.2,85.7z"/>
		<path id="XMLID_490_" class="st2" d="M833.2,87.3c0,0,1.4-1.8,3.2,0C834.7,89.1,833.2,87.3,833.2,87.3z"/>
		<path id="XMLID_489_" class="st2" d="M842,96c0,0-1.8-1.4,0-3.2C843.8,94.6,842,96,842,96z"/>
		<path id="XMLID_488_" class="st2" d="M844.8,79.7c0,0-1.8-1.4,0-3.2C846.7,78.3,844.8,79.7,844.8,79.7z"/>
		<path id="XMLID_487_" class="st2" d="M859.7,88.5c0-6.2-10.9-6.4-10.9-6.4l2.5,3.2c0,0,1.2,2.7,0.3,3.2"/>
		<path id="XMLID_485_" class="st2" d="M1088.5,75.9V77h-34v-1.2c0-4.8,17-4.6,17-4.6S1088.5,71.1,1088.5,75.9z"/>
		<path id="XMLID_484_" class="st2" d="M1078.5,104.1c0,3.9-3.1,7-7,7c-3.9,0-7-3.1-7-7c0-3.9,3.1-7,7-7
			C1075.3,97.1,1078.5,100.2,1078.5,104.1z"/>
		<path id="XMLID_481_" class="st2" d="M1071.5,95.7c-4.6,0-8.4,3.8-8.4,8.4c0,4.6,3.8,8.4,8.4,8.4c4.6,0,8.4-3.8,8.4-8.4
			C1079.8,99.5,1076.1,95.7,1071.5,95.7z M1071.5,112c-4.4,0-8-3.6-8-8c0-4.4,3.6-8,8-8c4.4,0,8,3.6,8,8
			C1079.5,108.5,1075.9,112,1071.5,112z"/>
		<path id="XMLID_477_" class="st2" d="M1054.5,78.6v67h1.6v-16.2c0-1.2,1.3-1.8,2.3-1.1c2.1,1.5,6,3.2,13.1,3.2s11-1.7,13.1-3.2
			c0.9-0.7,2.3-0.1,2.3,1.1v16.2h1.6v-67H1054.5z M1071.5,113.6c-5.2,0-9.5-4.3-9.5-9.5c0-5.2,4.3-9.5,9.5-9.5
			c5.2,0,9.5,4.3,9.5,9.5C1081,109.3,1076.7,113.6,1071.5,113.6z"/>
		<rect id="XMLID_476_" x="1067.9" y="67.7" class="st2" width="7.1" height="7.1"/>
		<path id="XMLID_475_" class="st2" d="M1182.1,42.7h-53.8c2.4-9.6,22.6-12.6,22.6-12.6v-0.8c0-0.6,0.5-1.2,1.2-1.2h6.2
			c0.6,0,1.2,0.5,1.2,1.2v0.8C1159.5,30.1,1179.7,33.1,1182.1,42.7z"/>
		<path id="XMLID_471_" class="st2" d="M1128,45.3v99.6h3.3v-37.6c0-0.8,1-1.2,1.5-0.6l16.7,18.5c1.5,1.6,3.5,2.5,5.7,2.5
			c2.2,0,4.2-0.9,5.7-2.5l16.7-18.5c0.5-0.6,1.5-0.2,1.5,0.6v37.6h3.3V45.3H1128z M1155.2,99.7c-6.5,0-11.8-5.3-11.8-11.8
			c0-6.5,5.3-11.8,11.8-11.8c6.5,0,11.8,5.3,11.8,11.8C1167,94.4,1161.7,99.7,1155.2,99.7z"/>
		<path id="XMLID_456_" class="st2" d="M1155.2,77.2c-5.9,0-10.7,4.8-10.7,10.7c0,5.9,4.8,10.7,10.7,10.7c5.9,0,10.7-4.8,10.7-10.7
			C1165.9,82,1161.1,77.2,1155.2,77.2z M1163.3,82.8l0.4,0.6l-2.1,1.2l-0.4-0.6L1163.3,82.8z M1159.7,79.4l0.6,0.4l-1.2,2.1
			l-0.6-0.4L1159.7,79.4z M1154.8,78.3h0.7v2.4h-0.7V78.3z M1145.5,87.5h2.4v0.7h-2.4V87.5z M1147,93l-0.4-0.6l2.1-1.2l0.4,0.6
			L1147,93z M1148.7,84.6l-2.1-1.2l0.4-0.6l2.1,1.2L1148.7,84.6z M1150.7,96.4l-0.6-0.4l1.2-2.1l0.6,0.4L1150.7,96.4z M1151.2,81.8
			l-1.2-2.1l0.6-0.4l1.2,2.1L1151.2,81.8z M1154.2,89.4l-0.2-0.4c-0.2-0.3-0.2-0.7,0-1l3.1-6.5l-0.8,6.7l5,2.5l-6.4-0.9
			c-0.2,0-0.4-0.1-0.6-0.3C1154.3,89.6,1154.3,89.5,1154.2,89.4z M1155.5,97.5h-0.7v-2.4h0.7V97.5z M1159.7,96.4l-1.2-2.1l0.6-0.4
			l1.2,2.1L1159.7,96.4z M1163.3,93l-2.1-1.2l0.4-0.6l2.1,1.2L1163.3,93z M1162.4,88.3v-0.7h2.4v0.7H1162.4z"/>
		<g id="XMLID_453_">
			<path id="XMLID_455_" class="st2" d="M1155.7,88.6c0,0.3-0.3,0.6-0.6,0.6c-0.3,0-0.6-0.3-0.6-0.6s0.3-0.6,0.6-0.6
				C1155.5,88,1155.7,88.2,1155.7,88.6z"/>
		</g>
		<path id="XMLID_452_" class="st2" d="M1252.8,60.7v9.7h-50.5v-9.7c0-6.6,25.2-6.3,25.2-6.3S1252.8,54.1,1252.8,60.7z"/>
		<path id="XMLID_449_" class="st2" d="M1202.3,72.6v50.1h50.5V72.6H1202.3z M1227.5,119.3c-4.7,0-8.5-3.8-8.5-8.5s3.8-8.5,8.5-8.5
			c4.7,0,8.5,3.8,8.5,8.5S1232.2,119.3,1227.5,119.3z"/>
		<path id="XMLID_448_" class="st2" d="M1234,110.8c0,3.6-2.9,6.5-6.5,6.5c-3.6,0-6.5-2.9-6.5-6.5c0-3.6,2.9-6.5,6.5-6.5
			C1231.1,104.3,1234,107.2,1234,110.8z"/>
		<path id="XMLID_447_" class="st2" d="M1252.8,124.8v19.7h-2.4v-12.9c0-0.9-1.1-1.3-1.8-0.7c-2.5,2.3-8.3,5.6-21.1,5.6
			c-12.8,0-18.6-3.3-21.1-5.6c-0.7-0.6-1.8-0.2-1.8,0.7v12.9h-2.4v-19.7H1252.8z"/>
		<path id="XMLID_446_" class="st2" d="M1283.5,122.8c0.9,0,1.5,0.1,1.7,0.2c-0.3,0.1-0.9,0.2-1.7,0.2c-0.9,0-1.5-0.1-1.7-0.2
			C1282,122.9,1282.6,122.8,1283.5,122.8z"/>
		<path id="XMLID_440_" class="st2" d="M1275.6,123.1c0,0.2,0.1,0.4,0.2,0.5l0,0c1.5,1.4,15.1,2.1,15.1-0.5
			C1290.6,120.5,1276,120.4,1275.6,123.1z M1283.5,123.7c-0.6,0-2.3,0-2.3-0.7c0-0.7,1.8-0.7,2.3-0.7c0.5,0,2.3,0,2.3,0.7
			C1285.9,123.6,1284.1,123.7,1283.5,123.7z"/>
		<path id="XMLID_438_" class="st2" d="M1290.9,124.2v5.1c0,0.7-0.4,1.2-1,1.5c-1,0.4-3,0.8-6.6,0.8c-3.6,0-5.6-0.4-6.6-0.8
			c-0.6-0.2-1-0.8-1-1.5v-5.1c0,0.1,0.1,0.1,0.2,0.2c1.4,1.3,6.7,1.2,7.4,1.1c0.1,0,0.1,0,0.1,0c0.2,0,0.7,0,1.4,0
			c1.9,0,5-0.2,6-1.2C1290.8,124.4,1290.9,124.3,1290.9,124.2z"/>
		<path id="XMLID_437_" class="st2" d="M1283.3,132.2c4.1,0,6.3-0.5,7.5-1c0.2-0.1,0.5,0.1,0.5,0.3v6.5c0,0.1,0,0.2-0.1,0.3
			c-0.6,0.5-2.5,1.4-7.8,1.4c-5.3,0-7.2-0.9-7.8-1.3c-0.1-0.1-0.1-0.2-0.1-0.3v-6.5c0-0.2,0.3-0.4,0.5-0.3
			C1277,131.7,1279.2,132.2,1283.3,132.2z"/>
		<path id="XMLID_436_" class="st2" d="M1283.3,140.1c4.1,0,6.2-0.5,7.3-1c0.2-0.1,0.3,0,0.3,0.2v4.2c0,0,0,0.1,0,0.1
			c-0.1,0.3-1.1,1.7-7.6,1.7c-6.6,0-7.5-1.4-7.6-1.7c0,0,0-0.1,0-0.1v-4.2c0-0.2,0.2-0.3,0.3-0.2
			C1277.1,139.6,1279.3,140.1,1283.3,140.1z"/>
		<path id="XMLID_435_" class="st2" d="M1302.1,122.8c0.9,0,1.5,0.1,1.7,0.2c-0.3,0.1-0.9,0.2-1.7,0.2c-0.9,0-1.5-0.1-1.7-0.2
			C1300.6,122.9,1301.2,122.8,1302.1,122.8z"/>
		<path id="XMLID_432_" class="st2" d="M1294.2,123.1c0,0.2,0.1,0.4,0.2,0.5l0,0c1.5,1.4,15.1,2.1,15.1-0.5
			C1309.2,120.5,1294.6,120.4,1294.2,123.1z M1302.1,123.7c-0.6,0-2.3,0-2.3-0.7c0-0.7,1.8-0.7,2.3-0.7c0.5,0,2.3,0,2.3,0.7
			C1304.4,123.6,1302.6,123.7,1302.1,123.7z"/>
		<path id="XMLID_431_" class="st2" d="M1309.5,124.2v5.1c0,0.7-0.4,1.2-1,1.5c-1,0.4-3,0.8-6.6,0.8c-3.6,0-5.6-0.4-6.6-0.8
			c-0.6-0.2-1-0.8-1-1.5v-5.1c0,0.1,0.1,0.1,0.2,0.2c1.4,1.3,6.7,1.2,7.4,1.1c0.1,0,0.1,0,0.1,0c0.2,0,0.7,0,1.4,0
			c1.9,0,5-0.2,6-1.2C1309.4,124.4,1309.5,124.3,1309.5,124.2z"/>
		<path id="XMLID_430_" class="st2" d="M1301.9,132.2c4.1,0,6.3-0.5,7.5-1c0.2-0.1,0.5,0.1,0.5,0.3v6.5c0,0.1,0,0.2-0.1,0.3
			c-0.6,0.5-2.5,1.4-7.8,1.4c-5.3,0-7.2-0.9-7.8-1.3c-0.1-0.1-0.1-0.2-0.1-0.3v-6.5c0-0.2,0.3-0.4,0.5-0.3
			C1295.6,131.7,1297.8,132.2,1301.9,132.2z"/>
		<path id="XMLID_429_" class="st2" d="M1301.9,140.1c4.1,0,6.2-0.5,7.3-1c0.2-0.1,0.3,0,0.3,0.2v4.2c0,0,0,0.1,0,0.1
			c-0.1,0.3-1.1,1.7-7.6,1.7c-6.6,0-7.5-1.4-7.6-1.7c0,0,0-0.1,0-0.1v-4.2c0-0.2,0.2-0.3,0.3-0.2
			C1295.7,139.6,1297.8,140.1,1301.9,140.1z"/>
		<path id="XMLID_428_" class="st2" d="M1293,102.3c0.9,0,1.5,0.1,1.7,0.2c-0.3,0.1-0.9,0.2-1.7,0.2c-0.9,0-1.5-0.1-1.7-0.2
			C1291.5,102.4,1292.1,102.3,1293,102.3z"/>
		<path id="XMLID_425_" class="st2" d="M1285.1,102.6c0,0.2,0.1,0.4,0.2,0.5l0,0c1.5,1.4,15.1,2.1,15.1-0.5
			C1300.1,100,1285.5,100,1285.1,102.6z M1293,103.2c-0.6,0-2.3,0-2.3-0.7c0-0.7,1.8-0.7,2.3-0.7c0.5,0,2.3,0,2.3,0.7
			C1295.3,103.2,1293.6,103.2,1293,103.2z"/>
		<path id="XMLID_424_" class="st2" d="M1300.4,103.8l0,5.1c0,0.7-0.4,1.2-1,1.5c-1,0.4-3,0.8-6.6,0.8c-3.6,0-5.6-0.4-6.6-0.8
			c-0.6-0.2-1-0.8-1-1.5v-5.1c0,0.1,0.1,0.1,0.2,0.2c1.4,1.3,6.7,1.2,7.4,1.1c0.1,0,0.1,0,0.1,0c0.2,0,0.7,0,1.4,0
			c1.9,0,5-0.2,6-1.2C1300.3,103.9,1300.4,103.8,1300.4,103.8z"/>
		<path id="XMLID_423_" class="st2" d="M1292.8,111.8c4.1,0,6.3-0.5,7.5-1c0.2-0.1,0.5,0.1,0.5,0.3v6.5c0,0.1,0,0.2-0.1,0.3
			c-0.6,0.5-2.5,1.4-7.8,1.4c-5.3,0-7.2-0.9-7.8-1.3c-0.1-0.1-0.1-0.2-0.1-0.3V111c0-0.2,0.3-0.4,0.5-0.3
			C1286.5,111.3,1288.7,111.8,1292.8,111.8z"/>
		<path id="XMLID_422_" class="st2" d="M1292.8,119.7c4.1,0,6.2-0.5,7.3-1c0.2-0.1,0.3,0,0.3,0.2v4.2c0,0,0,0.1,0,0.1
			c-0.1,0.3-1.1,1.7-7.6,1.7c-6.6,0-7.5-1.4-7.6-1.7c0,0,0-0.1,0-0.1v-4.2c0-0.2,0.2-0.3,0.3-0.2
			C1286.6,119.1,1288.7,119.7,1292.8,119.7z"/>
		<path id="XMLID_421_" class="st2" d="M1311.6,102.3c0.9,0,1.5,0.1,1.7,0.2c-0.3,0.1-0.9,0.2-1.7,0.2c-0.9,0-1.5-0.1-1.7-0.2
			C1310.1,102.4,1310.7,102.3,1311.6,102.3z"/>
		<path id="XMLID_418_" class="st2" d="M1303.7,102.6c0,0.2,0.1,0.4,0.2,0.5l0,0c1.5,1.4,15.1,2.1,15.1-0.5
			C1318.7,100,1304.1,100,1303.7,102.6z M1311.6,103.2c-0.6,0-2.3,0-2.3-0.7c0-0.7,1.8-0.7,2.3-0.7c0.5,0,2.3,0,2.3,0.7
			C1313.9,103.2,1312.1,103.2,1311.6,103.2z"/>
		<path id="XMLID_417_" class="st2" d="M1319,103.8v5.1c0,0.7-0.4,1.2-1,1.5c-1,0.4-3,0.8-6.6,0.8c-3.6,0-5.6-0.4-6.6-0.8
			c-0.6-0.2-1-0.8-1-1.5v-5.1c0,0.1,0.1,0.1,0.2,0.2c1.4,1.3,6.7,1.2,7.4,1.1c0.1,0,0.1,0,0.1,0c0.2,0,0.7,0,1.4,0
			c1.9,0,5-0.2,6-1.2C1318.9,103.9,1319,103.8,1319,103.8z"/>
		<path id="XMLID_416_" class="st2" d="M1311.4,111.8c4.1,0,6.3-0.5,7.5-1c0.2-0.1,0.5,0.1,0.5,0.3v6.5c0,0.1,0,0.2-0.1,0.3
			c-0.6,0.5-2.5,1.4-7.8,1.4c-5.3,0-7.2-0.9-7.8-1.3c-0.1-0.1-0.1-0.2-0.1-0.3V111c0-0.2,0.3-0.4,0.5-0.3
			C1305.1,111.3,1307.3,111.8,1311.4,111.8z"/>
		<path id="XMLID_415_" class="st2" d="M1311.4,119.7c4.1,0,6.2-0.5,7.3-1c0.2-0.1,0.3,0,0.3,0.2v4.2c0,0,0,0.1,0,0.1
			c-0.1,0.3-1.1,1.7-7.6,1.7c-6.6,0-7.5-1.4-7.6-1.7c0,0,0-0.1,0-0.1v-4.2c0-0.2,0.2-0.3,0.3-0.2
			C1305.2,119.1,1307.3,119.7,1311.4,119.7z"/>
		<path id="XMLID_412_" class="st2" d="M1295.8,81.6c0,0.2,0.1,0.4,0.2,0.5l0,0c1.5,1.4,15.1,2.1,15.1-0.5
			C1310.8,78.9,1296.1,78.9,1295.8,81.6z M1303.7,82.2c-0.6,0-2.3,0-2.3-0.7c0-0.7,1.8-0.7,2.3-0.7c0.5,0,2.3,0,2.3,0.7
			C1306,82.1,1304.2,82.2,1303.7,82.2z"/>
		<path id="XMLID_411_" class="st2" d="M1311.1,82.7l0,5.1c0,0.7-0.4,1.2-1,1.5c-1,0.4-3,0.8-6.6,0.8c-3.6,0-5.6-0.4-6.6-0.8
			c-0.6-0.2-1-0.8-1-1.5v-5.1c0,0.1,0.1,0.1,0.2,0.2c1.4,1.3,6.7,1.2,7.4,1.1c0.1,0,0.1,0,0.1,0c0.2,0,0.7,0,1.4,0
			c1.9,0,5-0.2,6-1.2C1311,82.8,1311,82.8,1311.1,82.7z"/>
		<path id="XMLID_410_" class="st2" d="M1303.4,90.7c4.1,0,6.3-0.5,7.5-1c0.2-0.1,0.5,0.1,0.5,0.3v6.5c0,0.1,0,0.2-0.1,0.3
			c-0.6,0.5-2.5,1.4-7.8,1.4c-5.3,0-7.2-0.9-7.8-1.3c-0.1-0.1-0.1-0.2-0.1-0.3V90c0-0.2,0.3-0.4,0.5-0.3
			C1297.2,90.2,1299.4,90.7,1303.4,90.7z"/>
		<path id="XMLID_408_" class="st2" d="M1303.4,98.6c4.1,0,6.2-0.5,7.3-1c0.2-0.1,0.3,0,0.3,0.2v4.2c0,0,0,0.1,0,0.1
			c-0.1,0.3-1.1,1.7-7.6,1.7c-6.6,0-7.5-1.4-7.6-1.7c0,0,0-0.1,0-0.1v-4.2c0-0.2,0.2-0.3,0.3-0.2
			C1297.3,98.1,1299.4,98.6,1303.4,98.6z"/>
		<path id="XMLID_407_" class="st2" d="M1320.7,122.8c0.9,0,1.5,0.1,1.7,0.2c-0.3,0.1-0.9,0.2-1.7,0.2c-0.9,0-1.5-0.1-1.7-0.2
			C1319.2,122.9,1319.8,122.8,1320.7,122.8z"/>
		<path id="XMLID_401_" class="st2" d="M1312.8,123.1c0,0.2,0.1,0.4,0.2,0.5l0,0c1.5,1.4,15.1,2.1,15.1-0.5
			C1327.8,120.5,1313.2,120.4,1312.8,123.1z M1320.7,123.7c-0.6,0-2.3,0-2.3-0.7c0-0.7,1.8-0.7,2.3-0.7c0.5,0,2.3,0,2.3,0.7
			C1323,123.6,1321.2,123.7,1320.7,123.7z"/>
		<path id="XMLID_400_" class="st2" d="M1328.1,124.2v5.1c0,0.7-0.4,1.2-1,1.5c-1,0.4-3,0.8-6.6,0.8c-3.6,0-5.6-0.4-6.6-0.8
			c-0.6-0.2-1-0.8-1-1.5v-5.1c0,0.1,0.1,0.1,0.2,0.2c1.4,1.3,6.7,1.2,7.4,1.1c0.1,0,0.1,0,0.1,0c0.2,0,0.7,0,1.4,0
			c1.9,0,5-0.2,6-1.2C1328,124.4,1328,124.3,1328.1,124.2z"/>
		<path id="XMLID_399_" class="st2" d="M1320.5,132.2c4.1,0,6.3-0.5,7.5-1c0.2-0.1,0.5,0.1,0.5,0.3v6.5c0,0.1,0,0.2-0.1,0.3
			c-0.6,0.5-2.5,1.4-7.8,1.4c-5.3,0-7.2-0.9-7.8-1.3c-0.1-0.1-0.1-0.2-0.1-0.3v-6.5c0-0.2,0.3-0.4,0.5-0.3
			C1314.2,131.7,1316.4,132.2,1320.5,132.2z"/>
		<path id="XMLID_398_" class="st2" d="M1320.5,140.1c4.1,0,6.2-0.5,7.3-1c0.2-0.1,0.3,0,0.3,0.2v4.2c0,0,0,0.1,0,0.1
			c-0.1,0.3-1.1,1.7-7.6,1.7c-6.6,0-7.5-1.4-7.6-1.7c0,0,0-0.1,0-0.1v-4.2c0-0.2,0.2-0.3,0.3-0.2
			C1314.3,139.6,1316.4,140.1,1320.5,140.1z"/>
	</g>
	<text id="XMLID_396_" transform="matrix(1 0 0 1 914.1901 174.0007)" class="st2 st3" style="font-size:17px; letter-spacing:8;">THE BREWING PROCESS</text>
	<text id="XMLID_598_" transform="matrix(1 0 0 1 69.9276 -45)" class="st3" style="font-size:17px;">1</text>
	<circle id="XMLID_599_" class="st6" cx="75.2" cy="-50.4" r="9.5"/>
	<text id="XMLID_602_" transform="matrix(1 0 0 1 97.9592 -45)" class="st3" style="font-size:17px;">2</text>
	<circle id="XMLID_601_" class="st6" cx="102.2" cy="-50.4" r="9.5"/>
	<rect id="XMLID_669_" x="40.3" y="599" class="st0" width="510.3" height="432"/>
	<g id="XMLID_683_">
		
			<image style="overflow:visible;opacity:0.39;" width="1793" height="1785" id="XMLID_31_" xlink:href="C2E5845F48287951.png"  transform="matrix(0.24 0 0 0.24 81.9208 609.8207)">
		</image>
		<g id="XMLID_12_">
			<rect id="XMLID_30_" x="96.9" y="618.8" class="st7" width="394.3" height="392.3"/>
		</g>
	</g>
	<path id="XMLID_749_" class="st8" d="M1286.5,1001.9c-0.5,0-0.6,0.9,0,1C1286.5,1002.3,1287.3,1002.1,1286.5,1001.9"/>
	<path id="XMLID_1431_" class="st8" d="M1465.7,997.5c-0.5,0-1,0-1.5,0c0,0.5,0,1,0,1.5l0.2,0C1465.4,999,1465.8,998.5,1465.7,997.5
		"/>
	<path id="XMLID_3352_" class="st8" d="M1586.6,1037.3c-0.1,0-0.3,0.1-0.4,0.2c-0.4,0.4,0.3,1.4,0.5,1.5c0.2,0.1,0.3,0.1,0.5,0.1
		c0.5,0,0.5-0.4,0.3-0.9C1587.3,1037.7,1586.9,1037.3,1586.6,1037.3"/>
	<path id="XMLID_3375_" class="st8" d="M1587.7,1041.3c-0.1,0-0.3,0-0.5,0.1c0.3,0.7,0.6,0.9,0.8,0.9c0.3,0,0.4-0.2,0.4-0.5
		C1588.4,1041.6,1588.2,1041.3,1587.7,1041.3"/>
	<path id="XMLID_3437_" class="st8" d="M1593,1022.5c-0.2,0-0.3,0.2-0.4,0.6c0.6,0.1,0.3,0.5,0,1c0.2,0.1,0.4,0.1,0.5,0.1
		c0.5,0,0.6-0.4,0.5-0.8C1593.6,1023,1593.3,1022.5,1593,1022.5"/>
	<path id="XMLID_6411_" class="st8" d="M1811,1042.3c-0.1,0,0,0.1,0.3,0.5c0.3,0.2,0.5,0.3,0.5,0.3c0.1,0-0.1-0.2-0.3-0.4
		C1811.3,1042.6,1811.1,1042.3,1811,1042.3"/>
	<path id="XMLID_611_" class="st9" d="M51.7,78.4C51.7,78.4,51.7,78.4,51.7,78.4c0.1,0,0.2,0,0.2,0C51.9,78.4,51.8,78.4,51.7,78.4z"
		/>
	<path id="XMLID_610_" class="st2" d="M68.9,53.9c0,0-0.1,0.1-0.1,0.1c0,0.1-0.1,0.1-0.1,0.3c0,0.1,0,0.2,0.1,0.3
		c0.1,0.1,0.2,0.1,0.3,0.1c0.2,0,0.4-0.1,0.6-0.2c0-0.2,0-0.4,0-0.6c-0.3,0-0.5,0-0.6,0.1C69.1,53.8,69,53.9,68.9,53.9z"/>
	<path id="XMLID_609_" class="st2" d="M91,53.9c0,0-0.1,0.1-0.1,0.1c0,0.1-0.1,0.1-0.1,0.3c0,0.1,0,0.2,0.1,0.3
		c0.1,0.1,0.2,0.1,0.3,0.1c0.2,0,0.4-0.1,0.6-0.2c0-0.2,0-0.4,0-0.6c-0.3,0-0.5,0-0.6,0.1C91.1,53.8,91,53.9,91,53.9z"/>
	<path id="XMLID_608_" class="st2" d="M76.1,52.6c-0.2,0-0.3,0.1-0.5,0.2c-0.1,0.1-0.2,0.3-0.2,0.6c0.4,0,0.8,0,1.2-0.1
		C76.6,52.8,76.5,52.6,76.1,52.6z"/>
	<path id="XMLID_589_" class="st2" d="M95.6,49.5l-29.9-0.1c-2.2,0-4,1.8-4,4c0,2.2,1.8,4,4,4l29.9,0.1c2.2,0,4-1.8,4-4
		C99.6,51.3,97.8,49.5,95.6,49.5z M67.7,54.4c-0.1,0.1-0.2,0.2-0.3,0.3c-0.3,0.2-0.6,0.3-1.1,0.3l-0.7,0H65c-0.1,0-0.1,0-0.2,0
		c-0.1,0-0.1-0.1-0.1-0.1c0-0.1,0-0.1,0-0.1c0.1,0,0.1,0,0.2,0c0.1,0,0.1,0,0.1,0c0,0,0.1,0,0.1,0c0.1-0.1,0.1-0.1,0.1-0.3v-2.3
		c0-0.1-0.1-0.2-0.3-0.3c-0.1,0-0.2,0-0.2-0.1c0,0,0-0.1,0-0.1c0-0.1,0-0.1,0-0.1c0,0,0.1,0,0.1,0h0.7c0.1,0,0.2,0,0.3,0
		c0.1,0,0.3,0,0.5,0c0.2,0,0.4,0,0.6,0.1c0.2,0,0.3,0.1,0.4,0.2c0.2,0.1,0.3,0.3,0.3,0.6c0,0.3-0.1,0.5-0.4,0.7
		c-0.1,0.1-0.2,0.1-0.3,0.2c0.4,0,0.7,0.2,0.8,0.5c0,0.1,0.1,0.2,0.1,0.3C67.8,54.1,67.8,54.3,67.7,54.4z M70.7,54.7
		C70.7,54.8,70.6,54.8,70.7,54.7c-0.1,0.1-0.2,0.2-0.2,0.2c-0.3,0.1-0.5,0.1-0.6-0.1c0,0,0-0.1,0-0.1C69.6,54.9,69.3,55,69,55
		c-0.2,0-0.4-0.1-0.6-0.2c-0.1-0.1-0.2-0.3-0.2-0.5c0-0.3,0.1-0.5,0.4-0.6c0.2-0.1,0.5-0.2,0.9-0.2h0.3c0-0.1,0-0.1,0-0.2v-0.2
		c0-0.2,0-0.3-0.1-0.4c-0.1-0.1-0.2-0.1-0.3-0.1c-0.4,0-0.5,0.1-0.6,0.4c0,0,0,0.1,0,0.1c0,0-0.1,0-0.2,0s-0.1,0-0.2,0
		c0,0-0.1,0-0.1-0.1c-0.1-0.1-0.1-0.1-0.1-0.2c0-0.1,0-0.2,0.1-0.2c0.1-0.1,0.1-0.1,0.2-0.2c0.2-0.1,0.4-0.1,0.6-0.1
		c0.2,0,0.4,0,0.5,0.1c0.1,0,0.2,0.1,0.3,0.2c0.1,0.1,0.2,0.3,0.2,0.5l0,1.1c0,0.2,0,0.3,0,0.4c0,0.1,0,0.1,0.1,0.1c0,0,0.1,0,0.1,0
		c0,0,0.1,0,0.1,0l0.1,0c0,0,0,0,0.1,0C70.7,54.6,70.7,54.6,70.7,54.7C70.7,54.7,70.7,54.7,70.7,54.7z M73,52.8c0,0.1,0,0.1,0,0.1
		c0,0.1-0.1,0.1-0.1,0.2c0,0-0.1,0.1-0.2,0.1c-0.1,0-0.1,0-0.1-0.1c0-0.2,0-0.3,0-0.3c0-0.1-0.1-0.1-0.1-0.1c-0.1,0-0.1,0-0.2,0
		c-0.1,0-0.1,0-0.2,0.1c-0.1,0.1-0.2,0.1-0.3,0.2v1.5c0,0.1,0.1,0.2,0.2,0.2c0,0,0.1,0,0.1,0c0,0,0.1,0,0.1,0c0,0,0,0,0.1,0
		c0,0,0,0.1,0,0.1c0,0.1,0,0.1,0,0.1c0,0-0.1,0-0.1,0h-0.8c-0.1,0-0.2,0-0.3-0.1c0,0,0,0,0-0.1c0-0.1,0-0.1,0-0.1c0,0,0.1,0,0.1,0
		c0,0,0.1,0,0.1,0c0,0,0,0,0,0c0,0,0-0.1,0-0.2V53c0-0.1,0-0.2-0.1-0.3c0,0,0,0-0.1,0s-0.1,0-0.1,0c0,0,0,0,0,0c0,0,0,0,0,0
		c0,0,0,0,0,0c0,0,0-0.1,0-0.1c0,0,0-0.1,0-0.1c0,0,0-0.1,0.1-0.1c0,0,0.1-0.1,0.1-0.1c0.1-0.1,0.2-0.1,0.4-0.1
		c0.1,0,0.2,0.1,0.2,0.3c0,0.1,0,0.1,0,0.2c0.2-0.2,0.4-0.3,0.7-0.4c0.1,0,0.1,0,0.2,0c0.1,0,0.1,0,0.2,0c0,0,0.1,0,0.1,0.1
		c0,0.1,0.1,0.1,0.1,0.2C73,52.7,73,52.8,73,52.8z M74.6,55c0,0-0.1,0-0.1,0h-0.7c-0.2,0-0.3-0.1-0.3-0.2c0-0.1,0-0.1,0-0.1
		c0,0,0.1,0,0.1,0c0.1,0,0.2-0.1,0.2-0.2v-2.8c0-0.1,0-0.2,0-0.2c0,0-0.1-0.1-0.2-0.1c0,0-0.1,0-0.1,0c0,0-0.1,0-0.1,0c0,0,0,0,0,0
		c0,0,0-0.1,0.1-0.2c0.2-0.1,0.3-0.2,0.5-0.2c0.2,0,0.3,0.1,0.3,0.3c0,0.1,0,0.1,0,0.2v3c0,0.1,0,0.2,0.1,0.2c0,0,0.1,0,0.1,0
		c0,0,0.1,0,0.1,0c0,0,0,0,0.1,0c0,0,0,0.1,0,0.1C74.6,54.9,74.6,54.9,74.6,55z M77,53.6l-1.6,0c0,0.3,0.1,0.6,0.2,0.7
		c0.1,0.1,0.3,0.2,0.5,0.2c0.3,0,0.6-0.1,0.8-0.2c0,0,0,0,0,0c0,0,0.1,0.1,0.1,0.1c0,0.1-0.1,0.2-0.3,0.3c-0.2,0.1-0.4,0.2-0.7,0.2
		c-0.4,0-0.6-0.1-0.8-0.3c-0.2-0.2-0.3-0.5-0.3-0.9c0-0.2,0-0.3,0.1-0.5c0-0.1,0.1-0.3,0.1-0.4c0.1-0.1,0.1-0.2,0.2-0.3
		c0.1-0.1,0.2-0.2,0.3-0.2c0.2-0.1,0.4-0.2,0.6-0.2c0.2,0,0.3,0,0.4,0.1c0.1,0.1,0.2,0.2,0.3,0.3c0.1,0.2,0.2,0.5,0.2,0.8
		C77.1,53.6,77.1,53.6,77,53.6z M79.7,53.3c-0.1,0.4-0.3,0.7-0.3,0.8c-0.3,0.6-0.5,1-0.6,1.3c-0.1,0.2-0.3,0.4-0.4,0.5
		c-0.1,0.1-0.3,0.1-0.4,0.1c-0.1,0-0.2,0-0.3-0.1c-0.1-0.1-0.1-0.1-0.1-0.2c0-0.1,0-0.1,0.1-0.2c0.1-0.1,0.1-0.1,0.2-0.1
		c0,0.1,0.1,0.2,0.2,0.2c0.1,0,0.2-0.1,0.3-0.2c0-0.1,0.1-0.1,0.1-0.2l0.1-0.3l0-0.1c-0.1,0-0.2-0.1-0.2-0.1c0,0,0-0.1-0.1-0.1
		L77.8,53l-0.1-0.1c-0.1-0.2-0.1-0.3-0.2-0.3l0,0c0,0-0.1,0-0.1-0.1c0,0,0,0,0-0.1s0,0,0-0.1c0,0,0.1-0.1,0.1-0.1
		c0.1-0.1,0.2-0.1,0.3-0.1c0.1,0,0.1,0,0.2,0c0.1,0,0.1,0.1,0.2,0.3l0.7,2c0.1-0.3,0.2-0.5,0.3-0.7l0.1-0.3c0.1-0.3,0.2-0.6,0.2-0.7
		c0-0.1,0-0.2-0.1-0.2c0,0-0.1-0.1-0.2-0.1c0,0,0,0,0-0.1c0,0,0-0.1,0-0.1c0,0,0.1,0,0.1-0.1c0.1,0,0.2-0.1,0.3-0.1
		c0.1,0,0.2,0,0.2,0c0,0,0.1,0,0.1,0c0,0,0.1,0.1,0.1,0.2C80,52.6,79.9,52.9,79.7,53.3z M82.1,55.3c0,0-0.1,0-0.1,0c0,0-0.1,0-0.1,0
		c0,0-0.1,0-0.1,0c-0.1,0-0.1-0.1-0.1-0.1l1.6-4.3c0,0,0.1,0,0.1,0s0.1,0,0.1,0s0.1,0,0.1,0c0.1,0,0.1,0.1,0.1,0.1L82.1,55.3z
		 M89.9,55c0,0-0.1,0-0.1,0h-1c-0.2,0-0.3-0.1-0.3-0.2c0,0,0,0,0-0.1c0,0,0,0,0-0.1c0,0,0.1,0,0.1,0s0.1,0,0.1,0c0,0,0.1,0,0.1,0
		c0.1-0.1,0.1-0.1,0.1-0.3l-0.1-1.9l0-0.4l-1,2.3c0,0,0,0-0.1,0c0,0-0.1,0-0.1,0c0,0-0.1-0.1-0.1-0.1c-0.1-0.1-0.1-0.2-0.2-0.3
		L86.5,52l-0.2,2.4c0,0.1,0,0.1,0,0.2c0,0,0.1,0.1,0.1,0.1c0.1,0,0.1,0,0.1,0c0,0,0.1,0,0.1,0c0.1,0,0.1,0.1,0.1,0.1
		c0,0,0,0.1,0,0.1c0,0-0.1,0-0.1,0h-1c-0.2,0-0.3-0.1-0.3-0.2c0,0,0-0.1,0-0.1c0,0,0.1,0,0.1,0c0,0,0.1,0,0.1,0c0,0,0.1,0,0.1,0
		c0.1-0.1,0.1-0.2,0.1-0.3l0.2-2.4c0,0,0-0.1,0-0.1c0,0-0.1,0-0.1,0c0,0-0.1,0-0.1,0c0,0-0.1,0-0.1,0c0,0-0.1-0.1-0.1-0.1
		c0-0.1,0-0.1,0-0.1c0,0,0.1,0,0.1,0h0.7c0.2,0,0.4,0.1,0.4,0.2l0.8,1.9l0.9-2c0-0.1,0.1-0.1,0.1-0.1c0.1,0,0.1,0,0.2,0h0.4
		c0.2,0,0.3,0.1,0.3,0.2c0,0.1,0,0.1,0,0.1c-0.1,0-0.1,0-0.1,0s-0.1,0-0.1,0c0,0-0.1,0-0.1,0c0,0-0.1,0.1,0,0.2l0.2,2.4
		c0,0.1,0.1,0.2,0.2,0.2c0,0,0.1,0,0.1,0l0.1,0c0.1,0,0.1,0,0.1,0.1C90,54.8,90,54.8,89.9,55C90,54.9,90,54.9,89.9,55z M92.7,54.7
		C92.7,54.8,92.7,54.8,92.7,54.7c-0.1,0.1-0.2,0.2-0.2,0.2c-0.3,0.1-0.5,0.1-0.6-0.1c0,0,0-0.1,0-0.1c-0.2,0.2-0.5,0.3-0.8,0.3
		c-0.2,0-0.4-0.1-0.6-0.2c-0.1-0.1-0.2-0.3-0.2-0.5c0-0.3,0.1-0.5,0.4-0.6c0.2-0.1,0.5-0.2,0.9-0.2h0.3c0-0.1,0-0.1,0-0.2v-0.2
		c0-0.2,0-0.3-0.1-0.4c-0.1-0.1-0.2-0.1-0.3-0.1c-0.4,0-0.5,0.1-0.6,0.4c0,0,0,0.1,0,0.1c0,0-0.1,0-0.2,0s-0.1,0-0.2,0
		c0,0-0.1,0-0.1-0.1c-0.1-0.1-0.1-0.1-0.1-0.2c0-0.1,0-0.2,0.1-0.2c0.1-0.1,0.1-0.1,0.2-0.2c0.2-0.1,0.4-0.1,0.6-0.1
		c0.2,0,0.4,0,0.5,0.1c0.1,0,0.2,0.1,0.3,0.2c0.1,0.1,0.2,0.3,0.2,0.5l0,1.1c0,0.2,0,0.3,0,0.4c0,0.1,0,0.1,0.1,0.1c0,0,0.1,0,0.1,0
		s0.1,0,0.1,0l0.1,0c0,0,0,0,0.1,0C92.7,54.6,92.8,54.6,92.7,54.7C92.8,54.7,92.7,54.7,92.7,54.7z M94.3,55c0,0-0.1,0-0.1,0h-0.7
		c-0.2,0-0.3-0.1-0.3-0.2c0-0.1,0-0.1,0-0.1c0,0,0.1,0,0.1,0c0.1,0,0.2-0.1,0.2-0.2v-2.8c0-0.1,0-0.2,0-0.2c0,0-0.1-0.1-0.2-0.1
		c0,0-0.1,0-0.1,0c0,0-0.1,0-0.1,0c0,0,0,0,0,0c0,0,0-0.1,0.1-0.2c0.2-0.1,0.3-0.2,0.5-0.2c0.2,0,0.3,0.1,0.3,0.3c0,0.1,0,0.1,0,0.2
		v3c0,0.1,0,0.2,0.1,0.2c0,0,0.1,0,0.1,0c0,0,0.1,0,0.1,0c0,0,0,0,0.1,0c0,0,0,0.1,0,0.1C94.3,54.9,94.3,54.9,94.3,55z M96.2,54.7
		c0,0-0.1,0.1-0.1,0.1c-0.1,0-0.1,0.1-0.2,0.1C95.8,55,95.7,55,95.5,55s-0.2,0-0.3,0c-0.1,0-0.1,0-0.2-0.1c-0.1-0.1-0.2-0.2-0.2-0.5
		v-1.7h-0.2c0,0-0.1,0-0.1,0c0,0-0.1-0.1-0.1-0.1c0-0.1,0-0.1,0-0.1c0.2,0,0.4-0.2,0.5-0.5c0-0.1,0.1-0.2,0.1-0.3c0.1,0,0.1,0,0.2,0
		c0,0,0.1,0,0.1,0.1c0,0,0,0.1,0,0.1c0,0,0,0.1,0,0.1c0,0,0,0.1,0,0.1l0,0.3h0.8c0,0,0,0.1,0,0.1v0.1c0,0.1,0,0.1-0.1,0.2
		c-0.1,0-0.1,0.1-0.2,0.1c-0.1,0-0.1,0-0.2,0c0,0-0.1,0-0.1,0l-0.1,0c0,0-0.1,0-0.1,0v0l0,0.7l0,0.6c0,0.2,0,0.4,0,0.4
		c0,0,0.1,0.1,0.1,0.1c0,0,0.1,0,0.1,0c0.1,0,0.1,0,0.1,0c0,0,0.1,0,0.1,0c0,0,0.1,0,0.1,0l0.1,0c0,0,0.1,0,0.1,0.1
		C96.2,54.5,96.2,54.6,96.2,54.7C96.2,54.6,96.2,54.6,96.2,54.7z"/>
	<path id="XMLID_588_" class="st2" d="M66.3,53.4c-0.2,0-0.4,0-0.5,0v1.1c0,0.1,0.1,0.2,0.3,0.3c0.1,0,0.1,0,0.3,0
		c0.1,0,0.2,0,0.3,0c0.1,0,0.2-0.1,0.3-0.1c0.2-0.1,0.3-0.3,0.3-0.5C67.3,53.6,67,53.4,66.3,53.4z"/>
	<path id="XMLID_587_" class="st2" d="M66.4,53.1c0.1,0,0.2,0,0.3,0c0.1,0,0.2-0.1,0.2-0.1c0.1-0.1,0.2-0.3,0.2-0.4
		c0-0.2-0.1-0.4-0.2-0.5c-0.1-0.1-0.3-0.2-0.6-0.2c-0.2,0-0.3,0-0.4,0.1c0,0-0.1,0.1-0.1,0.1c0,0,0,0.1,0,0.2v0.9l0.3,0
		C66.2,53.1,66.3,53.1,66.4,53.1z"/>
	<path id="XMLID_3_" class="st2" d="M62.2,61.9c-1.1-3.1-3.4-5.6-6.4-7.1c-1.7-0.8-3.5-1.2-5.3-1.2c0,0,0,0-0.1,0
		c-4.8,0-9.2,2.8-11.2,7.2c-1.4,3-1.6,6.4-0.5,9.5c0.8,2.2,2.2,4.1,4,5.5c0,0,0.1,0.1,0.1,0.1c0.1,0.1,0.2,0.1,0.2,0.2
		c0.1,0.1,0.2,0.2,0.4,0.3c0,0,0,0,0,0c0.4,0.3,0.8,0.5,1.3,0.8l0.5,0.3c0.6,0.3,1.2,0.5,1.8,0.7c0,0,0,0,0-0.1
		c-1.2-2.4-2.1-4.8-3.2-7.9l-1.1-3.2l-0.2-0.6c-0.1-0.2-0.1-0.3,0.1-0.4c0.2-0.1,0-0.1,0.1,0.2l0.1,0.2c0.4,1.2,0.8,2.1,1.3,3.7
		c1.1,3.1,2.1,5.6,3.4,8.1c0,0,0,0,0,0.1c1,0.2,2,0.4,3,0.4c4.8,0,9.2-2.8,11.3-7.2C63.2,68.4,63.4,65,62.2,61.9z M49.9,59.9
		c0.1-0.7,1.5-1.3,1.5-1.3s0,0.7-0.2,1.6C51,61.1,50,61.3,50,61.3S49.8,60.5,49.9,59.9z M49.8,57.6c0.1-0.7,1.5-1.3,1.5-1.3
		s0,0.7-0.2,1.6c-0.2,0.9-1.2,1.1-1.2,1.1S49.6,58.3,49.8,57.6z M49.9,62.2c0.1-0.7,1.5-1.3,1.5-1.3s0,0.7-0.2,1.6
		c-0.2,0.9-1.2,1.1-1.2,1.1S49.8,62.9,49.9,62.2z M50.1,64.4c0.1-0.7,1.5-1.3,1.5-1.3s0,0.7-0.2,1.6c-0.2,0.9-1.2,1.1-1.2,1.1
		S50,65,50.1,64.4z M50.4,66.8c0.1-0.7,1.5-1.3,1.5-1.3s0.1,0.7-0.1,1.6c-0.2,0.9-1.2,1.2-1.2,1.2S50.3,67.4,50.4,66.8z M50.7,69
		c0.1-0.7,1.5-1.3,1.5-1.3s0.1,0.7-0.1,1.6c-0.2,0.9-1.2,1.1-1.2,1.1S50.6,69.7,50.7,69z M50.3,54.3c0,0,0.1,0.6,0.1,1.6
		c-0.1,1-1,1.3-1,1.3S49,56.4,49,55.8C49,55.1,50.3,54.3,50.3,54.3z M49.7,71.7c0,0-0.8-0.1-1.3-0.5c-0.5-0.4-0.4-1.9-0.4-1.9
		s0.6,0.3,1.3,0.9C50,70.8,49.7,71.7,49.7,71.7z M50.4,74c0,0-0.8,0-1.4-0.3c-0.6-0.3-0.8-1.8-0.8-1.8s0.6,0.1,1.5,0.6
		C50.5,73.1,50.4,74,50.4,74z M49.3,69.5c0,0-0.8-0.2-1.3-0.7c-0.5-0.5-0.2-2-0.2-2s0.6,0.3,1.2,1C49.7,68.6,49.3,69.5,49.3,69.5z
		 M49.1,67.1c0,0-0.8-0.2-1.3-0.7c-0.5-0.5-0.2-2-0.2-2s0.6,0.3,1.2,1C49.5,66.2,49.1,67.1,49.1,67.1z M49,64.7c0,0-0.8-0.2-1.3-0.7
		c-0.5-0.5-0.2-2-0.2-2s0.6,0.3,1.2,1C49.4,63.8,49,64.7,49,64.7z M47.4,59.6c0,0,0.6,0.3,1.2,1.1c0.6,0.7,0.2,1.6,0.2,1.6
		s-0.8-0.2-1.2-0.7C47.1,61.1,47.4,59.6,47.4,59.6z M47.8,55.1c0,0,0.5,0.4,1,1.2c0.5,0.8-0.1,1.6-0.1,1.6S48,57.6,47.6,57
		C47.2,56.5,47.8,55.1,47.8,55.1z M47.4,57.4c0,0,0.6,0.3,1.2,1.1c0.6,0.7,0.2,1.6,0.2,1.6s-0.8-0.2-1.2-0.7
		C47.1,58.8,47.4,57.4,47.4,57.4z M40.6,63.7c0,0,0.5,0.2,1.1,0.8c0.6,0.6,0.3,1.4,0.3,1.4s-0.7-0.1-1.1-0.5
		C40.5,65.1,40.6,63.7,40.6,63.7z M45.4,75.6c0,0-0.7,0-1.2-0.3c-0.5-0.3-0.7-1.6-0.7-1.6s0.6,0.1,1.3,0.6
		C45.5,74.7,45.4,75.6,45.4,75.6z M44.7,73.7c0,0-0.7,0-1.2-0.3c-0.5-0.3-0.7-1.6-0.7-1.6s0.6,0.1,1.3,0.6
		C44.8,72.8,44.7,73.7,44.7,73.7z M44,71.6c0,0-0.7,0-1.2-0.3c-0.5-0.3-0.7-1.6-0.7-1.6s0.6,0.1,1.3,0.6C44.1,70.7,44,71.6,44,71.6z
		 M43.2,69.6c0,0-0.7,0-1.2-0.3c-0.5-0.3-0.6-1.6-0.6-1.6s0.6,0.2,1.3,0.6C43.4,68.8,43.2,69.6,43.2,69.6z M42.6,67.7
		c0,0-0.7,0-1.2-0.3c-0.5-0.3-0.6-1.6-0.6-1.6s0.6,0.2,1.3,0.6C42.8,66.9,42.6,67.7,42.6,67.7z M42.5,65.1c0,0-0.5-0.5-0.6-1.1
		c-0.1-0.6,0.7-1.6,0.7-1.6s0.3,0.5,0.4,1.3C43.2,64.6,42.5,65.1,42.5,65.1z M42.9,65.4c0-0.6,1-1.4,1-1.4s0.2,0.5,0.2,1.4
		c0,0.8-0.8,1.2-0.8,1.2S43,66,42.9,65.4z M44,68.5c0,0-0.4-0.6-0.5-1.2c0-0.6,1-1.4,1-1.4s0.2,0.5,0.2,1.4
		C44.8,68.1,44,68.5,44,68.5z M44.2,69.3c0-0.6,1-1.4,1-1.4s0.2,0.5,0.2,1.4c0,0.8-0.8,1.2-0.8,1.2S44.2,69.9,44.2,69.3z M44.8,71.1
		c0-0.6,1-1.4,1-1.4S46,70.2,46,71c0,0.8-0.8,1.2-0.8,1.2S44.9,71.7,44.8,71.1z M45.6,73.1c-0.1-0.6,0.9-1.5,0.9-1.5
		s0.2,0.5,0.3,1.4c0.1,0.8-0.7,1.3-0.7,1.3S45.7,73.7,45.6,73.1z M47,76c0,0-0.4-0.6-0.5-1.2c-0.1-0.6,0.9-1.5,0.9-1.5
		s0.2,0.5,0.3,1.4C47.7,75.6,47,76,47,76z M51.7,78.4c-1.6-5.5-2-9.5-2.4-15.4l-0.2-3.8l0-0.7c0-0.2,0-0.4,0.2-0.4
		c0.2,0,0-0.1,0.1,0.3l0.1,0.2c0.1,1.4,0.2,2.5,0.3,4.4c0.2,2.4,0.4,4.7,0.7,7.1c0.3,2.2,1.1,4.6,1.4,6.8c-0.1-1,0.8-2.3,1.3-3.1
		c1-1.7,2.9-6.1,5.1-4.9c0.7,0.4,1.6,1.3,2.2,1.7c-0.8-0.7-2.4-1.8-3.4-1.1c-0.7,0.5-1.7,2.1-2.4,3.4c-0.7,1.3-1.4,2.4-2.2,3.4
		c1.2-1.1,2.5-3.1,3.3-4.6c0.8-1.4,1.3-2.8,3.1-2.1c0.8,0.3,1.4,0.9,2,1.6c-0.5-0.6-2-1.2-2.8-1c-0.6,0.2-1.1,1-1.3,1.6
		c-0.8,1.6-1.5,2.9-2.5,4.2c-0.1,0.2-1.7,1.4-2,1.3l-0.3-0.2c0.1,0.4,0.3,0.8,0.4,1.2c-0.1,0-0.1,0-0.2,0
		C51.9,78.4,51.8,78.4,51.7,78.4C51.7,78.4,51.7,78.4,51.7,78.4z"/>
	<polygon id="XMLID_2_" class="st2" points="50.4,85.4 53.8,81.9 46.9,81.9 	"/>
	<polygon id="XMLID_676_" class="st2" points="290.7,35.4 287.2,31.9 287.2,38.8 	"/>
	<polygon id="XMLID_635_" class="st2" points="193.5,57.8 196.9,54.4 190,54.4 	"/>
	<polygon id="XMLID_677_" class="st2" points="123.6,57.8 127.1,54.4 120.1,54.4 	"/>
	<g id="XMLID_241_">
		<path id="XMLID_634_" class="st2" d="M217.7,23.2c-0.2,0-0.4,0.1-0.6,0.3v1.7c0.2,0.1,0.3,0.2,0.5,0.2c0.2,0,0.5-0.1,0.6-0.3
			c0.2-0.2,0.2-0.5,0.2-0.8c0-0.4-0.1-0.6-0.2-0.8C218.1,23.3,217.9,23.2,217.7,23.2z"/>
		<path id="XMLID_633_" class="st2" d="M214.4,23.2c-0.2,0-0.4,0.1-0.5,0.2c-0.1,0.2-0.2,0.4-0.2,0.7c0,0.4,0.1,0.7,0.3,0.9
			c0.2,0.2,0.3,0.3,0.6,0.3c0.1,0,0.2,0,0.3-0.1c0.1-0.1,0.2-0.1,0.2-0.2c0.1-0.2,0.2-0.4,0.2-0.7c0-0.3-0.1-0.6-0.2-0.8
			C214.9,23.3,214.7,23.2,214.4,23.2z"/>
		<path id="XMLID_657_" class="st2" d="M225.9,24.2c0-2.4-1.9-4.3-4.3-4.3l-13.1-0.1c-2.4,0-4.3,1.9-4.3,4.3c0,2.4,1.9,4.3,4.3,4.3
			l13.1,0.1C224,28.5,225.9,26.6,225.9,24.2z M212.6,25.7c0,0-0.1,0-0.2,0h-1c-0.1,0-0.1,0-0.2,0c0,0-0.1-0.1-0.1-0.1
			c0-0.1,0-0.1,0-0.1c0.1,0,0.1,0,0.2,0c0.1,0,0.1,0,0.1,0c0,0,0.1,0,0.1-0.1c0-0.1,0.1-0.2,0.1-0.3v-1h-1.9v1.1
			c0,0.1,0,0.2,0.1,0.2c0,0,0.1,0,0.1,0c0,0,0.1,0,0.1,0c0,0,0.1,0,0.1,0c0.1,0,0.1,0.1,0.1,0.1c0,0.1,0,0.1,0,0.1c0,0-0.1,0-0.2,0
			h-1c-0.1,0-0.1,0-0.2,0c0,0-0.1-0.1-0.1-0.1c0-0.1,0-0.1,0-0.1c0.1,0,0.1,0,0.2,0c0.1,0,0.1,0,0.1,0c0,0,0.1,0,0.1-0.1
			c0-0.1,0.1-0.2,0.1-0.3v-2.4c0-0.1,0-0.2-0.1-0.2c0,0,0,0-0.1,0l-0.1,0c-0.1,0-0.1,0-0.1-0.1c0,0,0-0.1,0-0.1c0-0.1,0-0.1,0-0.1
			c0,0,0.1,0,0.2,0h1c0.1,0,0.1,0,0.2,0c0.1,0,0.1,0.1,0.1,0.1c0,0.1,0,0.1,0,0.1c-0.1,0-0.1,0-0.2,0c-0.2,0-0.2,0.1-0.2,0.4v1.1
			h1.9v-1.2c0-0.1,0-0.2-0.1-0.2c0,0,0,0-0.1,0l-0.1,0c-0.1,0-0.1,0-0.1-0.1c0,0,0-0.1,0-0.1c0-0.1,0-0.1,0-0.1c0,0,0.1,0,0.2,0h1
			c0.1,0,0.1,0,0.2,0c0.1,0,0.1,0.1,0.1,0.1c0,0.1,0,0.1,0,0.1c-0.1,0-0.1,0-0.2,0c-0.2,0-0.2,0.1-0.2,0.4v2.4c0,0.1,0,0.1,0,0.2
			c0,0,0.1,0.1,0.1,0.1c0.1,0,0.1,0,0.1,0c0,0,0.1,0,0.1,0c0.1,0,0.1,0.1,0.1,0.1C212.7,25.6,212.7,25.7,212.6,25.7z M215.3,25.4
			c-0.3,0.3-0.6,0.4-0.9,0.4c-0.4,0-0.7-0.1-0.9-0.4c-0.2-0.3-0.3-0.6-0.3-1c0-0.2,0-0.4,0.1-0.5c0-0.2,0.1-0.3,0.2-0.4
			c0.1-0.1,0.1-0.2,0.2-0.3c0.1-0.1,0.2-0.2,0.3-0.2c0.2-0.1,0.4-0.2,0.7-0.2c0.3,0,0.6,0.1,0.8,0.3c0.2,0.2,0.4,0.6,0.4,1
			C215.7,24.7,215.6,25.1,215.3,25.4z M218.8,25c-0.1,0.2-0.3,0.4-0.6,0.5c-0.2,0.1-0.5,0.2-0.7,0.2c-0.1,0-0.3,0-0.5-0.1V26
			c0,0.3,0,0.4,0,0.5c0,0.1,0.1,0.1,0.1,0.1c0,0,0.1,0,0.1,0s0.1,0,0.2,0c0,0,0,0.1,0,0.1c0,0,0,0.1-0.1,0.1c0,0-0.1,0.1-0.1,0.1
			c-0.1,0-0.2,0.1-0.3,0.1s-0.2,0-0.2,0c-0.1,0-0.1,0-0.2-0.1c-0.1-0.1-0.1-0.2-0.1-0.3v-2.9c0-0.1,0-0.2-0.1-0.3c0,0-0.1,0-0.1,0
			s-0.1,0-0.1,0s0,0-0.1,0c0,0,0,0,0,0c0,0,0,0,0,0c0,0,0-0.1,0-0.1s0-0.1,0-0.1c0,0,0.1-0.1,0.1-0.1c0,0,0.1-0.1,0.2-0.1
			c0.1-0.1,0.3-0.1,0.4-0.1c0.2,0,0.2,0.1,0.3,0.4c0.3-0.2,0.5-0.4,0.8-0.4c0.3,0,0.6,0.1,0.8,0.3c0.2,0.2,0.3,0.6,0.3,1
			C219,24.5,218.9,24.8,218.8,25z M220.5,25.7c-0.4,0-0.8-0.1-0.9-0.3c-0.1-0.1-0.1-0.2-0.1-0.3c0-0.2,0.1-0.4,0.2-0.4
			c0,0,0.1,0,0.1,0c0.1,0,0.1,0,0.1,0.1c0,0.4,0.3,0.6,0.7,0.6c0.2,0,0.4-0.1,0.5-0.2c0,0,0-0.1,0-0.2c0-0.1,0-0.1-0.1-0.2
			c0-0.1-0.1-0.1-0.2-0.1c-0.1,0-0.2-0.1-0.3-0.1l-0.3-0.1c-0.5-0.2-0.7-0.5-0.7-0.9c0-0.2,0.1-0.4,0.3-0.6c0.2-0.1,0.5-0.2,0.8-0.2
			c0.4,0,0.7,0.1,0.8,0.3c0,0,0,0.1,0,0.2s0,0.1,0,0.2c0,0,0,0.1,0,0.1c0,0.1,0,0.1-0.1,0.1c0,0-0.1,0-0.2,0s-0.1,0-0.1-0.1
			c0-0.2-0.1-0.4-0.3-0.5c-0.1,0-0.1,0-0.2,0s-0.1,0-0.2,0c-0.1,0-0.1,0-0.2,0.1c-0.1,0.1-0.2,0.1-0.2,0.3c0,0.1,0,0.2,0.1,0.3
			c0.1,0.1,0.3,0.2,0.6,0.3c0.3,0.1,0.5,0.3,0.6,0.4c0.2,0.1,0.2,0.3,0.2,0.5c0,0.2-0.1,0.4-0.3,0.5
			C221.2,25.7,220.9,25.7,220.5,25.7z"/>
		<path id="XMLID_637_" class="st2" d="M192.9,51.1c5.2,0,9.9-3,12.1-7.7c1.5-3.2,1.7-6.9,0.5-10.3c-1.2-3.4-3.7-6.1-6.9-7.6
			c-1.8-0.9-3.7-1.3-5.7-1.3c-5.2,0-9.9,3-12.1,7.7c-1.5,3.2-1.7,6.9-0.5,10.3c1.2,3.4,3.7,6.1,6.9,7.6
			C189,50.6,190.9,51.1,192.9,51.1z M194.6,32.9c0.1,0.3,0.3,0.8,0.6,1.3c-0.5,1.1-1.2,2.4-1.7,3.2c-0.7-1.3-1.8-3.8-1.8-4.6
			c0-1,0.9-1.9,2-1.9l0.1,0c0.5,0,0.9,0.2,1.2,0.5C194.7,31.8,194.6,32.3,194.6,32.9z M196.7,30.6c0.1,0,0.2,0,0.3,0
			c0.5,0,0.9,0.2,1.2,0.4c-0.5,0.8-0.5,1.9,0,2.7c0.1,0.1,0.2,0.3,0.4,0.4c-0.3,1-0.6,2.2-0.9,2.9c-0.9-1.1-2.6-3.4-2.7-4.2
			c-0.1-0.5,0-1,0.3-1.4C195.8,30.9,196.2,30.7,196.7,30.6z M195.6,30.6c0.1-0.1,0.1-0.8,0.2-1c0.2-0.3,0.4-0.5,0.7-0.7
			c0.7-0.5,1.6-0.7,2.4-0.1c-0.4-0.3-2,0.8-2.8,1.4C195.8,30.4,195.6,30.6,195.6,30.6z M193.7,38.7
			C193.7,38.7,193.7,38.7,193.7,38.7c0.6,1.3,1.4,2.7,1.8,3.4c-0.5,1.2-1.3,2.8-1.8,3.7c-0.5-0.9-1.3-2.4-1.8-3.6
			C192.3,41.5,193.1,40.1,193.7,38.7z M191.4,42.1c-0.6-1-1.4-2.7-2-4.1l0.1-0.1c0.2-0.3,1.4-2.1,2.2-3.6c0.6,1.5,1.5,3.3,1.6,3.5
			l0.1,0.2C192.8,39.5,192,41.1,191.4,42.1z M195.6,42.9c0.1,0,0.1,0,0.2,0c0.3,0.8,0.8,1.6,1.1,2.3c-0.3,1-1.1,2.5-1.6,3.3
			c-0.4-0.7-0.9-1.7-1.3-2.6C194.5,45.4,195.1,44.1,195.6,42.9z M196.2,42.6c0.2-0.4,1.2-2.2,2-3.9c0,0,0,0,0.1,0
			c0.5,0.9,1.1,1.9,1.6,2.7c-0.4,1.2-1.4,3.3-2,4.4C197.4,45,196.7,43.8,196.2,42.6z M196,42.1c-0.6-1.1-1.6-3-2.1-4.4
			c0.3-0.6,1.1-1.9,1.7-3.1c0.8,1.3,2,2.8,2.2,3l0,0.1c0.1,0.1,0.1,0.3,0.2,0.4C197.4,39.4,196.5,41.1,196,42.1z M190.8,30.6
			c-1.1-0.4-1.1-1.5-1.8-2.2c-0.4-0.4-2.1-0.9-2.6-0.4c1-1.1,3.4-1,4.6-0.3c1.1,0.6,1.5,2,1.4,3.2C191.9,30.8,191.3,30.7,190.8,30.6
			z M189.7,30.8c0.1,0,0.1,0,0.2,0c0.5,0,1,0.3,1.3,0.7c0.1,0.1,0.1,0.2,0.2,0.3c-0.1,0.3-0.2,0.6-0.2,0.9c0,0.3,0.1,0.6,0.2,1.1
			c-0.5,1.1-1.5,2.7-2.1,3.6c-0.6-1.3-1.6-3.9-1.6-4.7C187.9,31.6,188.7,30.8,189.7,30.8z M187.9,35c0.2,0.6,0.4,1.1,0.6,1.6
			c0,0.4,0.2,0.9,0.4,1.5c-0.7,1.3-1.8,3-2.4,4c-0.5-1.1-1.3-3.1-1.7-4.6l0.1-0.1C185.2,37.3,186.7,36.1,187.9,35z M189.2,38.7
			C189.2,38.7,189.2,38.7,189.2,38.7c0.7,1.5,1.6,3.2,2,3.8c-0.5,1.1-1.2,2.5-1.6,3.3c-0.6-1.1-1.6-3.1-2-4.3
			C188,40.8,188.6,39.7,189.2,38.7z M191.4,43.1L191.4,43.1L191.4,43.1c0.1-0.1,0.2-0.1,0.2-0.1c0.5,1.2,1.2,2.6,1.6,3.2
			c-0.4,0.8-0.9,1.8-1.2,2.5c-0.5-0.9-1.3-2.5-1.6-3.5C190.7,44.5,191.1,43.8,191.4,43.1z M193.5,46.7l0.3-0.1
			c0.3,0.6,0.6,1.3,0.9,1.8c-0.3,0.7-0.7,1.4-0.9,1.8c-0.3-0.5-0.7-1.3-1-2C193,47.8,193.3,47.2,193.5,46.7z M198.2,37.5
			c0.2-0.5,0.6-1.8,1-3.1c1.1,0.8,2.9,1.7,3.7,2.1c-0.1,1.3-1.3,4.1-2,5.6C200.1,40.9,198.7,38.8,198.2,37.5z M198.8,33.4
			c-0.6-0.9-0.4-2.1,0.5-2.7c0.3-0.2,0.7-0.3,1.1-0.3c0.6,0,1.2,0.3,1.6,0.8c0.5,0.7,0.8,3.5,1,4.9
			C201.7,35.4,199.2,34.1,198.8,33.4z M193.9,27.2c1-0.6,2.6-0.8,3.7-0.3c-1.1,0.1-1.6,0.5-2,1.6c-0.3,0.8-0.6,1.4-0.9,2.2
			c-0.4-0.6-1.4-0.7-1.8-0.1C192.8,29.4,192.8,27.9,193.9,27.2z M185,31.8c0.3-0.7,1-1.2,1.8-1.2c0.3,0,0.5,0.1,0.8,0.2
			c0.2,0.1,0.3,0.2,0.4,0.3c-0.4,0.4-0.6,0.9-0.7,1.5c0,0.4,0.1,1.1,0.4,1.9c-0.8,0.8-2,1.8-2.7,2.3C184.8,35.4,184.7,32.6,185,31.8
			z"/>
	</g>
	<g id="XMLID_675_">
		<path id="XMLID_245_" class="st2" d="M118,49.3c1.8,0.9,3.8,1.3,5.8,1.3c5.3,0,10.1-3.1,12.4-7.9c0.5-1,0.8-2,1-3c0,0,0-0.1,0-0.1
			c0-0.1,0-0.3,0.1-0.4c0-0.1,0-0.2,0.1-0.3c0,0,0-0.1,0-0.1c0.3-2.2,0.1-4.4-0.7-6.5c-1.2-3.4-3.7-6.2-7-7.8
			c-1.8-0.9-3.8-1.3-5.8-1.3c0,0,0,0,0,0c0,0-0.1,0-0.1,0c-0.2,0-0.5,0-0.7,0c-0.1,0-0.3,0-0.4,0c-0.1,0-0.3,0-0.4,0
			c-0.4,0-0.7,0.1-1,0.2c0,0,0,0-0.1,0c-0.2,0-0.4,0.1-0.6,0.1c0,0-0.1,0-0.1,0c-3.9,1-7.2,3.7-9,7.4c-1.6,3.3-1.7,7-0.5,10.5
			C112.2,44.9,114.7,47.7,118,49.3z M130.5,40.8c0,3.7-3,6.7-6.7,6.7c-3.7,0-6.7-3-6.7-6.7c0-3.7,6.7-15.7,6.7-15.7
			S130.5,37.1,130.5,40.8z"/>
		<path id="XMLID_244_" class="st2" d="M118.2,40.6c0,3,2.5,5.5,5.5,5.5"/>
		<path id="XMLID_254_" class="st2" d="M157.9,27.7c-0.2,0-0.4,0.1-0.6,0.3c-0.1,0.2-0.2,0.4-0.3,0.7c0.5,0,1-0.1,1.4-0.1
			C158.6,28,158.4,27.7,157.9,27.7z"/>
		<path id="XMLID_638_" class="st2" d="M166.1,28.9c0-2.7-2.2-4.9-4.9-4.9l-16.9-0.1c-2.7,0-4.9,2.2-4.9,4.9c0,2.7,2.2,4.9,4.9,4.9
			l16.9,0.1C163.9,33.8,166.1,31.6,166.1,28.9z M150.5,26.8c-0.1,0-0.1,0-0.2,0c-0.1,0-0.1,0-0.1,0.1c0,0-0.1,0.1-0.1,0.1
			c-0.1,0.1-0.1,0.2-0.1,0.4l-0.3,1.1l-0.6,1.8c-0.1,0.2-0.1,0.3-0.3,0.4c-0.1,0.1-0.2,0.1-0.3,0.1c-0.1,0-0.1,0-0.2,0l-0.9-2.2
			l-0.1-0.3c-0.5,1.2-0.7,1.9-0.8,2c0,0.1-0.1,0.2-0.1,0.2c-0.1,0.1-0.1,0.1-0.2,0.2c-0.1,0.1-0.2,0.1-0.3,0.1c-0.1,0-0.1,0-0.2,0
			l-1.1-3.5c0,0,0-0.1,0-0.1c0,0,0-0.1,0-0.1c0-0.1-0.1-0.1-0.1-0.2c0,0-0.1,0-0.1,0c0,0-0.1,0-0.1,0c-0.1,0-0.1-0.1-0.1-0.1
			c0-0.1,0-0.1,0-0.2c0,0,0.1,0,0.3,0h1.1c0.2,0,0.3,0.1,0.3,0.2c0,0.1,0,0.1,0,0.1c-0.1,0-0.1,0-0.2,0c-0.2,0-0.3,0.1-0.3,0.3
			c0,0.1,0,0.1,0,0.2l0.8,2.8c0.1-0.4,0.3-0.6,0.3-0.8l0.7-1.9c0-0.1,0.1-0.1,0.2-0.2c0.1,0,0.2-0.1,0.3-0.1l1.1,3
			c0.2-0.7,0.4-1.2,0.4-1.4l0.3-1c0.1-0.3,0.1-0.5,0.1-0.5c0-0.1,0-0.1-0.1-0.2c0,0-0.1-0.1-0.1-0.1c-0.1,0-0.1,0-0.1,0
			c0,0-0.1,0-0.1,0c-0.1,0-0.1-0.1-0.1-0.1c0-0.1,0-0.1,0-0.1c0,0,0.1,0,0.3,0h1c0.2,0,0.3,0.1,0.3,0.2
			C150.5,26.7,150.5,26.7,150.5,26.8z M153.7,30.3c0,0-0.1,0.1-0.1,0.1c-0.1,0-0.1,0.1-0.2,0.1c-0.4,0.2-0.6,0.1-0.7-0.1
			c0,0,0-0.1-0.1-0.2c-0.3,0.3-0.6,0.4-1,0.4c-0.3,0-0.5-0.1-0.7-0.3c-0.2-0.2-0.3-0.4-0.3-0.7c0-0.3,0.1-0.6,0.4-0.8
			c0.3-0.2,0.6-0.2,1.1-0.2h0.3c0-0.1,0-0.1,0-0.2v-0.2c0-0.2,0-0.4-0.1-0.5c-0.1-0.1-0.2-0.2-0.4-0.2c-0.4,0-0.7,0.2-0.7,0.5
			c0,0,0,0.1,0,0.1c0,0-0.1,0-0.2,0c-0.1,0-0.1,0-0.2,0c0,0-0.1,0-0.1-0.1c-0.1-0.1-0.1-0.2-0.1-0.3c0-0.1,0-0.2,0.1-0.3
			c0.1-0.1,0.2-0.1,0.3-0.2c0.2-0.1,0.5-0.2,0.8-0.2c0.3,0,0.5,0,0.7,0.1c0.1,0.1,0.3,0.1,0.4,0.2c0.2,0.2,0.2,0.4,0.2,0.7l0,1.3
			c0,0.2,0,0.4,0,0.5c0,0.1,0,0.1,0.1,0.1c0,0,0.1,0,0.1,0s0.1,0,0.1,0l0.1,0c0,0,0,0,0.1,0C153.7,30.2,153.7,30.2,153.7,30.3
			C153.7,30.3,153.7,30.3,153.7,30.3z M156,30.2c0,0-0.1,0.1-0.1,0.1c-0.1,0.1-0.1,0.1-0.2,0.1c-0.2,0.1-0.3,0.1-0.5,0.1
			c-0.1,0-0.3,0-0.4,0c-0.1,0-0.2,0-0.2-0.1c-0.1-0.1-0.2-0.3-0.2-0.6v-2.1h-0.3c-0.1,0-0.1,0-0.1-0.1c0-0.1-0.1-0.1-0.1-0.1
			c0-0.1,0-0.1,0-0.1c0.3,0,0.5-0.3,0.6-0.6c0-0.1,0.1-0.2,0.1-0.4c0.1,0,0.2,0,0.2,0c0,0,0.1,0,0.1,0.1c0,0,0,0.1,0,0.2
			c0,0.1,0,0.1,0,0.2c0,0.1,0,0.1,0,0.2l0,0.4h0.9c0,0,0,0.1,0,0.1v0.1c0,0.1,0,0.1-0.1,0.2c-0.1,0-0.2,0.1-0.3,0.1s-0.2,0-0.2,0
			c0,0-0.1,0-0.1,0l-0.1,0c0,0-0.1,0-0.1,0v0l0,0.9l0,0.7c0,0.3,0,0.5,0,0.5c0,0.1,0.1,0.1,0.1,0.1c0,0,0.1,0,0.2,0
			c0.1,0,0.1,0,0.2,0c0.1,0,0.1,0,0.2,0c0,0,0.1,0,0.1-0.1l0.1-0.1c0,0,0.1,0,0.1,0.1c0,0,0,0,0,0.1C156,30.1,156,30.2,156,30.2z
			 M159,29l-1.9,0c0,0.4,0.1,0.7,0.3,0.9c0.2,0.2,0.4,0.2,0.6,0.2c0.4,0,0.7-0.1,0.9-0.2c0,0,0,0,0.1,0c0,0.1,0.1,0.1,0.1,0.1
			c0,0.1-0.1,0.2-0.3,0.3c-0.3,0.2-0.5,0.2-0.9,0.2c-0.4,0-0.8-0.1-1-0.4c-0.2-0.3-0.4-0.6-0.4-1.1c0-0.2,0-0.4,0.1-0.6
			c0-0.2,0.1-0.3,0.2-0.5c0.1-0.1,0.2-0.3,0.3-0.4c0.1-0.1,0.2-0.2,0.3-0.3c0.2-0.1,0.5-0.2,0.7-0.2c0.2,0,0.4,0,0.5,0.1
			c0.1,0.1,0.3,0.2,0.3,0.3c0.2,0.3,0.2,0.6,0.2,1C159.2,28.9,159.1,29,159,29z M162.2,28c0,0.1,0,0.1,0,0.2c0,0.1-0.1,0.2-0.1,0.2
			c-0.1,0.1-0.1,0.1-0.2,0.1c-0.1,0-0.1,0-0.1-0.1c0-0.2,0-0.3,0-0.4c0-0.1-0.1-0.2-0.2-0.2c-0.1,0-0.2,0-0.2,0
			c-0.1,0-0.1,0-0.2,0.1c-0.1,0.1-0.2,0.1-0.3,0.3V30c0,0.1,0.1,0.2,0.2,0.3c0,0,0.1,0,0.1,0c0,0,0.1,0,0.1,0c0,0,0.1,0,0.1,0
			c0,0,0,0.1,0,0.1c0,0.1,0,0.1,0,0.2c0,0-0.1,0-0.2,0h-0.9c-0.2,0-0.3,0-0.3-0.1c0,0,0-0.1,0-0.1c0-0.1,0-0.1,0-0.2
			c0,0,0.1,0,0.1,0c0,0,0.1,0,0.1,0c0,0,0,0,0.1-0.1c0,0,0-0.1,0-0.3v-1.8c0-0.2,0-0.3-0.1-0.3c0,0-0.1,0-0.1,0c0,0-0.1,0-0.1,0
			c0,0,0,0-0.1,0c0,0,0,0,0,0c0,0,0,0,0,0c0,0,0-0.1,0-0.1s0-0.1,0-0.1c0,0,0.1-0.1,0.1-0.1c0.1,0,0.1-0.1,0.2-0.1
			c0.1-0.1,0.3-0.1,0.4-0.1c0.2,0,0.3,0.1,0.3,0.3c0,0.1,0,0.1,0,0.2c0.3-0.2,0.5-0.4,0.8-0.5c0.1,0,0.2,0,0.3,0c0.1,0,0.1,0,0.2,0
			c0,0,0.1,0.1,0.1,0.1c0.1,0.1,0.1,0.2,0.1,0.3S162.2,27.9,162.2,28z"/>
		<path id="XMLID_239_" class="st2" d="M151.5,29.3c-0.1,0-0.1,0.1-0.1,0.1c-0.1,0.1-0.1,0.2-0.1,0.3c0,0.1,0,0.2,0.1,0.3
			c0.1,0.1,0.2,0.1,0.4,0.1c0.3,0,0.5-0.1,0.7-0.3c0-0.3,0-0.5,0-0.8c-0.4,0-0.6,0-0.8,0.1C151.7,29.2,151.6,29.3,151.5,29.3z"/>
	</g>
	<g id="XMLID_1_">
		<path id="XMLID_666_" class="st2" d="M303.1,21.3c0-2.4-2-4.4-4.4-4.4l-13.3-0.1c-2.4,0-4.4,2-4.4,4.4c0,2.4,2,4.4,4.4,4.4
			l13.3,0.1C301.1,25.7,303.1,23.7,303.1,21.3z M288.9,19.4c-0.1,0-0.1,0-0.1,0c0,0-0.1,0-0.1,0c0,0-0.1,0.1-0.1,0.1
			c0,0-0.1,0.1-0.1,0.1c-0.1,0.2-0.2,0.3-0.2,0.4c-0.5,0.9-0.8,1.3-0.8,1.4l-0.1,0.1v0.7c0,0.1,0.1,0.2,0.2,0.2
			c0.2,0,0.3,0.1,0.3,0.1c0.1,0,0.1,0.1,0.1,0.1c0,0.1,0,0.1,0,0.1c0,0-0.1,0-0.2,0h-1.2c-0.2,0-0.3-0.1-0.3-0.2c0-0.1,0-0.1,0-0.1
			c0.1,0,0.1,0,0.2,0c0.1,0,0.1,0,0.2,0c0,0,0.1,0,0.1-0.1c0.1-0.1,0.1-0.2,0.1-0.3v-0.6l-1.2-2c-0.1-0.1-0.1-0.2-0.2-0.2
			c0,0-0.1,0-0.1,0c0,0,0,0-0.1,0c0,0-0.1-0.1-0.1-0.1c0-0.1,0-0.1,0-0.1c0,0,0.1,0,0.2,0h0.9c0.2,0,0.3,0,0.3,0.1c0,0,0,0.1,0,0.1
			c0,0,0,0.1,0,0.1c-0.1,0-0.1,0-0.2,0c-0.1,0-0.2,0.1-0.2,0.2c0,0.1,0,0.2,0.1,0.3l0.8,1.4c0.2-0.3,0.3-0.6,0.4-0.7l0.2-0.4
			c0.1-0.2,0.2-0.3,0.2-0.4c0,0,0-0.1,0-0.1s0,0,0-0.1c0,0,0,0,0,0c0,0,0,0-0.1,0c0,0-0.1,0-0.1,0c0,0-0.1,0-0.1,0c0,0-0.1,0-0.1,0
			c-0.1,0-0.1-0.1-0.1-0.1c0-0.1,0-0.1,0-0.1c0,0,0.1,0,0.2,0h0.8c0.1,0,0.2,0,0.3,0.1c0,0,0,0.1,0,0.1
			C288.9,19.3,288.9,19.4,288.9,19.4z M291.4,21.4l-1.7,0c0,0.4,0.1,0.6,0.3,0.8c0.1,0.1,0.3,0.2,0.6,0.2c0.3,0,0.6-0.1,0.8-0.2
			c0,0,0,0,0.1,0c0,0,0.1,0.1,0.1,0.1c0,0.1-0.1,0.2-0.3,0.3c-0.2,0.1-0.5,0.2-0.8,0.2c-0.4,0-0.7-0.1-0.9-0.4
			c-0.2-0.2-0.3-0.6-0.3-1c0-0.2,0-0.4,0.1-0.5c0-0.2,0.1-0.3,0.2-0.4c0.1-0.1,0.2-0.2,0.2-0.3c0.1-0.1,0.2-0.2,0.3-0.2
			c0.2-0.1,0.4-0.2,0.6-0.2c0.2,0,0.4,0,0.5,0.1c0.1,0.1,0.2,0.2,0.3,0.3c0.1,0.2,0.2,0.5,0.2,0.9C291.6,21.3,291.5,21.4,291.4,21.4
			z M294.8,22.6c0,0,0,0.1-0.1,0.1c0,0-0.1,0.1-0.2,0.1c-0.3,0.2-0.5,0.1-0.7-0.1c0,0,0-0.1-0.1-0.2c-0.2,0.2-0.5,0.4-0.9,0.4
			c-0.3,0-0.5-0.1-0.6-0.2c-0.2-0.2-0.2-0.3-0.2-0.6c0-0.3,0.1-0.5,0.4-0.7c0.2-0.1,0.6-0.2,1-0.2h0.3c0-0.1,0-0.1,0-0.2v-0.2
			c0-0.2,0-0.4-0.1-0.5c-0.1-0.1-0.2-0.2-0.4-0.2c-0.4,0-0.6,0.1-0.6,0.4c0,0,0,0.1,0,0.1c0,0-0.1,0-0.2,0c-0.1,0-0.1,0-0.2,0
			c0,0-0.1,0-0.1-0.1c-0.1-0.1-0.1-0.1-0.1-0.2s0-0.2,0.1-0.3c0.1-0.1,0.1-0.1,0.2-0.2c0.2-0.1,0.4-0.1,0.7-0.1c0.3,0,0.5,0,0.6,0.1
			c0.1,0.1,0.2,0.1,0.3,0.2c0.1,0.1,0.2,0.4,0.2,0.6l0,1.2c0,0.2,0,0.3,0,0.4c0,0.1,0,0.1,0.1,0.1c0,0,0.1,0,0.1,0c0,0,0.1,0,0.1,0
			l0.1,0c0,0,0,0,0.1,0C294.8,22.5,294.8,22.5,294.8,22.6C294.8,22.5,294.8,22.6,294.8,22.6z M297.1,22.6c-0.2,0.2-0.5,0.3-0.9,0.3
			c-0.5,0-0.8-0.1-0.9-0.3c-0.1-0.1-0.1-0.2-0.1-0.3c0-0.3,0.1-0.4,0.2-0.4c0,0,0.1,0,0.1,0c0.1,0,0.1,0,0.1,0.1
			c0,0.4,0.3,0.6,0.7,0.6c0.3,0,0.4-0.1,0.5-0.2c0,0,0-0.1,0-0.2c0-0.1,0-0.1-0.1-0.2c0-0.1-0.1-0.1-0.2-0.1c-0.1,0-0.2-0.1-0.3-0.1
			l-0.3-0.1c-0.5-0.2-0.7-0.5-0.7-0.9c0-0.2,0.1-0.4,0.3-0.6c0.2-0.1,0.5-0.2,0.8-0.2c0.4,0,0.7,0.1,0.8,0.3c0,0,0,0.1,0,0.2
			s0,0.1,0,0.2c0,0,0,0.1,0,0.1c0,0.1,0,0.1-0.1,0.2c0,0-0.1,0-0.2,0s-0.1,0-0.1-0.1c0-0.3-0.1-0.4-0.3-0.5c-0.1,0-0.1,0-0.2,0
			c-0.1,0-0.1,0-0.2,0c-0.1,0-0.1,0-0.2,0.1c-0.1,0.1-0.2,0.2-0.2,0.3c0,0.1,0,0.2,0.1,0.3c0.1,0.1,0.3,0.2,0.6,0.3
			c0.3,0.1,0.5,0.3,0.7,0.4c0.2,0.1,0.2,0.3,0.2,0.5C297.3,22.3,297.2,22.5,297.1,22.6z M298.3,22.8c-0.1-0.1-0.2-0.3-0.2-0.5v-1.9
			h-0.2c-0.1,0-0.1,0-0.1,0c0-0.1-0.1-0.1-0.1-0.1c0-0.1,0-0.1,0-0.1c0.3,0,0.4-0.2,0.5-0.6c0-0.1,0.1-0.2,0.1-0.4
			c0.1,0,0.1,0,0.2,0c0,0,0.1,0,0.1,0.1c0,0,0,0.1,0,0.1c0,0.1,0,0.1,0,0.2c0,0,0,0.1,0,0.2l0,0.3h0.8c0,0,0,0.1,0,0.1v0.1
			c0,0.1,0,0.1-0.1,0.2s-0.2,0.1-0.2,0.1c-0.1,0-0.2,0-0.2,0c0,0-0.1,0-0.1,0l-0.1,0c0,0-0.1,0-0.1,0v0l0,0.8l0,0.6
			c0,0.3,0,0.4,0,0.5c0,0.1,0.1,0.1,0.1,0.1c0,0,0.1,0,0.1,0c0.1,0,0.1,0,0.2,0c0,0,0.1,0,0.1,0c0,0,0.1,0,0.1,0l0.1-0.1
			c0,0,0.1,0,0.1,0.1c0,0,0,0,0,0.1c0,0,0,0.1,0,0.1c0,0-0.1,0.1-0.1,0.1c-0.1,0-0.1,0.1-0.2,0.1c-0.2,0.1-0.3,0.1-0.4,0.1
			c-0.1,0-0.2,0-0.3,0C298.4,22.9,298.4,22.8,298.3,22.8z"/>
		<path id="XMLID_665_" class="st2" d="M290.4,20.3c-0.2,0-0.4,0.1-0.5,0.2c-0.1,0.1-0.2,0.4-0.2,0.6c0.5,0,0.9-0.1,1.3-0.1
			C291,20.5,290.8,20.3,290.4,20.3z"/>
		<path id="XMLID_664_" class="st2" d="M292.9,21.7c-0.1,0-0.1,0.1-0.1,0.1c-0.1,0.1-0.1,0.2-0.1,0.3c0,0.1,0,0.2,0.1,0.3
			c0.1,0.1,0.2,0.1,0.4,0.1c0.2,0,0.4-0.1,0.6-0.2c0-0.2,0-0.5,0-0.7c-0.3,0-0.6,0-0.7,0.1C293,21.6,292.9,21.6,292.9,21.7z"/>
		<path id="XMLID_636_" class="st2" d="M261.5,46c0.6,0.5,1.3,0.9,2,1.2c0.7,0.3,1.4,0.6,2.2,0.8c-0.1-0.2-0.1-0.4,0-0.6
			c0,0,0.1-0.5,1.5-1.2c1.3-0.7,1.8-0.6,1.8-0.6c0.6,0.2,1,0.8,0.8,1.5c0,0-0.1,0.5-1.5,1.2c-0.1,0.1-0.2,0.1-0.3,0.2
			c0.4,0,0.8,0.1,1.3,0.1c0.3,0,0.7,0,1,0c0,0,0,0,0,0c1-0.1,2.1-0.3,3-0.6c-0.2-0.1-0.5-0.1-0.8-0.3c-1.4-0.6-1.6-1-1.6-1
			c-0.3-0.6,0-1.3,0.6-1.6c0,0,0.5-0.2,1.8,0.4c1.4,0.6,1.6,1,1.6,1c0.1,0.2,0.1,0.5,0.1,0.7c2.7-1.3,5-3.5,6.4-6.4
			c0.6-1.3,1-2.6,1.2-4c0,0,0,0,0-0.1c0.1-0.7,0.1-1.3,0.1-2c0,0,0,0,0-0.1c0-0.7-0.1-1.4-0.2-2c-1-0.1-1.2-0.4-1.2-0.4
			c-0.5-0.5-0.4-1.1,0.2-1.4c0.2-0.1,0.4-0.1,0.5,0c0-0.1-0.1-0.3-0.1-0.4c-0.3-0.7-0.6-1.4-1-2.1c-0.1,0.1-0.2,0.2-0.4,0.2
			c0,0-0.5,0.2-1.8-0.4c-1.4-0.6-1.6-1-1.6-1c-0.3-0.6,0-1.3,0.6-1.6c0,0,0.3-0.1,1.3,0.2c0,0,0,0,0,0c-0.1-0.1-0.1-0.1-0.2-0.2
			c-0.1-0.1-0.2-0.2-0.2-0.2c-0.1-0.1-0.1-0.1-0.2-0.2c-0.1-0.1-0.2-0.2-0.3-0.3c-0.1,0-0.1-0.1-0.2-0.1c-0.1-0.1-0.2-0.2-0.3-0.3
			c0,0-0.1,0-0.1-0.1c-0.8-0.6-1.7-1.2-2.7-1.7c-0.5-0.2-1-0.4-1.5-0.6c0.1,0.5-0.2,1-0.7,1.2c0,0-0.5,0.2-1.9-0.4
			c-1.4-0.6-1.6-1-1.6-1c-0.1-0.2-0.1-0.3-0.1-0.5v0c-0.1,0-0.3,0-0.4,0c-0.7,0-1.3,0.1-1.9,0.2c0,0,0,0,0.1,0c0,0,0.5,0.3,0.9,1.9
			c0.4,1.6,0,2.1,0,2.1c-0.3,0.6-1.1,0.7-1.7,0.4c0,0-0.5-0.3-0.9-1.9c-0.4-1.6-0.1-2.1-0.1-2.1c0,0,0,0,0,0c-0.8,0.3-1.6,0.6-2.4,1
			c0.2,1.2,0,1.5,0,1.5c-0.3,0.6-1,0.6-1.4,0.1c-0.2-0.2-0.2-0.5-0.1-0.8c-0.6,0.4-1.1,0.9-1.7,1.4c0.1,0,0.1,0.1,0.2,0.1
			c0,0,0.4,0.3,0.8,1.7c0.3,1.5,0.1,1.9,0.1,1.9c-0.3,0.6-1.1,0.7-1.7,0.4c0,0-0.4-0.3-0.8-1.7c-0.1-0.2-0.1-0.4-0.1-0.6
			c-0.5,0.6-0.9,1.3-1.2,2.1c-0.2,0.4-0.3,0.8-0.5,1.1c0,0,0,0,0,0c0.6-0.2,1.3,0.2,1.5,0.8c0,0,0.2,0.6-0.5,2
			c-0.7,1.4-1.2,1.6-1.2,1.6c-0.2,0.1-0.4,0.1-0.6,0c0,0,0,0,0,0c0,0.1,0,0.1,0,0.2c0,0.3,0,0.5,0,0.8c0,0.1,0,0.2,0,0.3
			c0,0.2,0,0.4,0.1,0.7c0,0.1,0,0.1,0,0.2c0.1,0.6,0.2,1.3,0.4,1.9c1.4,0.1,1.7,0.5,1.7,0.5c0.4,0.5,0.3,1.1-0.3,1.4
			c-0.3,0.1-0.6,0-0.9-0.2c0.3,0.7,0.7,1.5,1.2,2.1c0,0,0,0,0,0c0.2,0.3,0.4,0.6,0.6,0.8c0,0.1,0.1,0.1,0.1,0.2
			c0.2,0.2,0.4,0.5,0.6,0.7c0.1,0.1,0.1,0.2,0.2,0.2c0.2,0.2,0.4,0.4,0.7,0.6c0.1,0.1,0.1,0.1,0.2,0.2c0.3,0.2,0.5,0.4,0.8,0.6
			C261.4,45.9,261.4,46,261.5,46z M262.8,41.5c0,0,0.1-0.4,1.3-1.2c1.2-0.8,1.5-0.8,1.5-0.8c0.7,0.1,1.1,0.7,0.9,1.3
			c0,0-0.1,0.4-1.3,1.2c-1.2,0.8-1.5,0.8-1.5,0.8C263,42.7,262.6,42.1,262.8,41.5z M267.8,33.7c0,0-0.3,0.5-1.9,1
			c-1.6,0.4-2.1,0.1-2.1,0.1c-0.6-0.3-0.8-1.1-0.5-1.6c0,0,0.3-0.5,1.9-1c1.6-0.4,2.1-0.1,2.1-0.1C268,32.4,268.2,33.1,267.8,33.7z
			 M268.2,35.6c1.4,0.6,1.6,1,1.6,1c0.3,0.6,0,1.3-0.6,1.6c0,0-0.5,0.2-1.9-0.4c-1.4-0.6-1.6-1-1.6-1c-0.3-0.6,0-1.3,0.6-1.6
			C266.3,35.2,266.8,35.1,268.2,35.6z M263.3,35.4c0,0,0.4,0.4,0.4,2.1c0,1.6-0.4,2.1-0.4,2.1c-0.5,0.5-1.2,0.5-1.7,0
			c0,0-0.4-0.4-0.4-2.1c0-1.6,0.4-2.1,0.4-2.1C262,34.9,262.8,34.9,263.3,35.4z M267.7,45.3c0,0-0.4,0.3-1.9,0.3
			c-1.5,0-1.9-0.3-1.9-0.3c-0.5-0.5-0.5-1.2,0-1.7c0,0,0.4-0.3,1.9-0.3c1.5,0,1.9,0.3,1.9,0.3C268.2,44.1,268.2,44.9,267.7,45.3z
			 M270.3,41.2c-0.9,1.3-1.4,1.3-1.4,1.3c-0.7,0.1-1.3-0.4-1.4-1c0,0-0.1-0.6,0.8-1.9c0.9-1.3,1.4-1.3,1.4-1.3
			c0.7-0.1,1.3,0.4,1.4,1C271.1,39.3,271.2,39.9,270.3,41.2z M274.8,45c0,0-0.5,0.1-1.7-0.8c-1.2-0.9-1.3-1.4-1.3-1.4
			c-0.1-0.7,0.3-1.3,1-1.4c0,0,0.5-0.1,1.7,0.8c1.2,0.9,1.3,1.4,1.3,1.4C275.9,44.4,275.4,45,274.8,45z M276.4,37.7
			c0.6,0.4,0.7,1.1,0.2,1.6c0,0-0.3,0.3-1.8,0.6c-1.5,0.2-1.9-0.1-1.9-0.1c-0.6-0.4-0.7-1.1-0.2-1.6c0,0,0.3-0.3,1.8-0.6
			C276,37.4,276.4,37.7,276.4,37.7z M275.8,34.9c0,0,0.4-0.2,1.9,0.3c1.4,0.5,1.7,0.9,1.7,0.9c0.3,0.6,0.1,1.3-0.5,1.5
			c0,0-0.4,0.2-1.9-0.3c-1.5-0.5-1.7-0.9-1.7-0.9C274.9,35.8,275.1,35.1,275.8,34.9z M279.2,43.7c-0.1,0.7-0.8,1.1-1.4,0.9
			c0,0-0.5-0.1-1.3-1.4c-0.8-1.3-0.7-1.7-0.7-1.7c0.1-0.7,0.8-1.1,1.4-0.9c0,0,0.5,0.1,1.3,1.4C279.3,43.3,279.2,43.7,279.2,43.7z
			 M281.7,38.6c0,0-0.1,0.4-1.3,1.2c-1.2,0.8-1.5,0.8-1.5,0.8c-0.7-0.1-1.1-0.7-0.9-1.3c0,0,0.1-0.4,1.3-1.2
			c1.2-0.8,1.5-0.8,1.5-0.8C281.5,37.4,281.9,37.9,281.7,38.6z M281.5,33c0.6,0.4,0.7,1.1,0.2,1.6c0,0-0.3,0.3-1.8,0.5
			c-1.5,0.2-1.8,0-1.8,0c-0.6-0.4-0.7-1.1-0.2-1.6c0,0,0.3-0.3,1.8-0.5C281.1,32.8,281.5,33,281.5,33z M277.2,30.3
			c1-1.2,1.5-1.2,1.5-1.2c0.7,0,1.3,0.5,1.3,1.1c0,0,0,0.6-1,1.8c-1,1.2-1.5,1.2-1.5,1.2c-0.7,0-1.3-0.5-1.3-1.1
			C276.2,32.2,276.2,31.5,277.2,30.3z M273.7,24.2c0.3-0.6,1.1-0.7,1.7-0.4c0,0,0.5,0.3,0.9,1.9c0.4,1.6,0,2.1,0,2.1
			c-0.3,0.6-1.1,0.7-1.7,0.4c0,0-0.5-0.3-0.9-1.9C273.4,24.8,273.7,24.2,273.7,24.2z M273.2,29.6c0.3-0.6,1-0.7,1.5-0.2
			c0,0,0.3,0.3,0.6,1.9c0.3,1.6,0,2,0,2c-0.3,0.6-1,0.7-1.5,0.2c0,0-0.3-0.3-0.6-1.9C273,30,273.2,29.6,273.2,29.6z M273.8,35.9
			c0.1,0.7-0.3,1.3-1,1.3c0,0-0.5,0.1-1.8-0.9c-1.3-1-1.4-1.6-1.4-1.6c-0.1-0.7,0.3-1.3,1-1.3c0,0,0.5-0.1,1.8,0.9
			C273.7,35.3,273.8,35.9,273.8,35.9z M272.2,32.1c-0.3,0.6-1,0.9-1.6,0.6c0,0-0.6-0.3-1.1-1.8c-0.5-1.5-0.3-2.1-0.3-2.1
			c0.3-0.6,1-0.9,1.6-0.6c0,0,0.6,0.3,1.1,1.8C272.5,31.5,272.2,32.1,272.2,32.1z M268.7,24.6c0.1-0.7,0.8-1.1,1.4-0.9
			c0,0,0.5,0.1,1.3,1.4c0.8,1.3,0.7,1.7,0.7,1.7c-0.1,0.7-0.8,1.1-1.4,0.9c0,0-0.5-0.1-1.3-1.4C268.6,25.1,268.7,24.6,268.7,24.6z
			 M265.9,27.4c0,0,0.5-0.1,1.7,0.8c1.2,0.9,1.3,1.4,1.3,1.4c0.1,0.7-0.3,1.3-1,1.4c0,0-0.5,0.1-1.7-0.8c-1.2-0.9-1.3-1.4-1.3-1.4
			C264.8,28.1,265.2,27.5,265.9,27.4z M262,26.8c0.8-1.2,1.1-1.3,1.1-1.3c0.7-0.1,1.2,0.3,1.3,0.9c0,0,0,0.4-0.8,1.6
			c-0.8,1.2-1.1,1.3-1.1,1.3c-0.7,0.1-1.2-0.3-1.3-0.9C261.2,28.4,261.2,28,262,26.8z M259.5,32.3c0,0,0.1-0.6,1.4-1.5
			c1.3-0.9,1.8-0.8,1.8-0.8c0.7,0.1,1.1,0.8,1,1.4c0,0-0.1,0.6-1.4,1.5c-1.3,0.9-1.8,0.8-1.8,0.8C259.8,33.6,259.3,33,259.5,32.3z
			 M257.6,37.4c-0.8-1.3-0.7-1.7-0.7-1.7c0.1-0.7,0.8-1.1,1.4-0.9c0,0,0.5,0.1,1.3,1.4c0.8,1.3,0.7,1.7,0.7,1.7
			c-0.1,0.7-0.8,1.1-1.4,0.9C258.9,38.7,258.5,38.6,257.6,37.4z M261.1,45.5c0,0-0.5-0.1-1.3-1.4c-0.8-1.3-0.7-1.7-0.7-1.7
			c0.1-0.7,0.8-1.1,1.4-0.9c0,0,0.5,0.1,1.3,1.4c0.8,1.3,0.7,1.7,0.7,1.7C262.3,45.2,261.7,45.6,261.1,45.5z"/>
	</g>
</g>
</svg>
